<?xml version="1.0" encoding="UTF-8"?>
<!DOCTYPE svg PUBLIC "-//W3C//DTD SVG 1.1//EN" "http://www.w3.org/Graphics/SVG/1.1/DTD/svg11.dtd">
<!-- Creator: CorelDRAW X6 -->
<svg xmlns="http://www.w3.org/2000/svg" xml:space="preserve" width="157.869mm" height="156.993mm" version="1.1" style="shape-rendering:geometricPrecision; text-rendering:geometricPrecision; image-rendering:optimizeQuality; fill-rule:evenodd; clip-rule:evenodd"
viewBox="0 0 14804 14722"
 xmlns:xlink="http://www.w3.org/1999/xlink">
 <defs>
  <style type="text/css">
   <![CDATA[
    .fil3 {fill:#2A273E;fill-rule:nonzero}
    .fil6 {fill:#2D406F;fill-rule:nonzero}
    .fil9 {fill:#32AED6;fill-rule:nonzero}
    .fil8 {fill:#5BC3ED;fill-rule:nonzero}
    .fil12 {fill:#7CC0D8;fill-rule:nonzero}
    .fil14 {fill:#B3DFEF;fill-rule:nonzero}
    .fil0 {fill:#BADEF1;fill-rule:nonzero}
    .fil1 {fill:#D9ECF4;fill-rule:nonzero}
    .fil5 {fill:#E87979;fill-rule:nonzero}
    .fil11 {fill:#E9F2F6;fill-rule:nonzero}
    .fil2 {fill:#EB6D6F;fill-rule:nonzero}
    .fil10 {fill:#EDF3FA;fill-rule:nonzero}
    .fil4 {fill:#F3A1A2;fill-rule:nonzero}
    .fil13 {fill:#FCFDFE;fill-rule:nonzero}
    .fil7 {fill:#FEFEFE;fill-rule:nonzero}
   ]]>
  </style>
 </defs>
 <g id="Layer_x0020_1">
  <metadata id="CorelCorpID_0Corel-Layer"/>
  <path class="fil0" d="M13089 6683c0,394 -35,780 -102,1154l-1 7c-9,51 -19,101 -29,151l-2 12c-10,49 -21,99 -32,147l-3 14c-11,49 -23,98 -36,147l-2 9c-26,100 -54,200 -85,298l-3 10c-15,47 -30,93 -45,139l-6 19c-15,45 -31,89 -47,133l-8 22c-16,43 -32,87 -49,129 -3,7 -6,15 -9,22 -17,43 -35,87 -53,130 -2,5 -4,10 -6,15 -18,42 -36,83 -54,124 -2,5 -4,10 -7,15 -19,41 -38,82 -58,123 -4,9 -8,18 -13,27 -19,39 -38,78 -58,116 -5,10 -10,20 -16,31 -19,37 -39,74 -59,111 -6,11 -12,23 -18,34 -20,36 -40,73 -61,108 -6,10 -12,21 -18,31 -19,32 -38,65 -57,97 -7,12 -15,25 -23,37 -19,31 -38,62 -57,92 -7,12 -15,23 -22,35 -21,33 -43,65 -64,98 -9,13 -18,27 -27,40 -21,31 -43,62 -64,93 -10,14 -20,28 -30,42 -22,30 -43,60 -65,90 -10,14 -21,28 -31,42 -18,24 -37,48 -56,72 -14,18 -29,37 -43,55 -17,21 -34,42 -51,63 -16,20 -32,39 -48,58 -18,21 -36,42 -54,63 -13,15 -26,31 -40,46 -22,25 -44,50 -67,75 -14,16 -29,32 -44,48 -22,24 -44,48 -67,72 -15,16 -31,32 -46,48 -16,16 -32,33 -48,49 -22,23 -45,45 -68,68 -14,14 -29,28 -43,42 -25,24 -50,48 -75,72 -14,13 -27,26 -41,38 -26,24 -52,47 -78,71 -14,13 -29,26 -43,38 -19,17 -38,33 -57,49 -22,19 -45,38 -68,57 -20,16 -40,33 -59,49 -11,9 -23,19 -35,28 -32,26 -64,51 -97,76 -10,8 -21,16 -31,24 -34,26 -68,51 -102,76 -10,7 -20,15 -30,22 -36,26 -73,52 -109,77 -1057,734 -2341,1164 -3726,1164 -420,0 -830,-40 -1228,-116 -131,-25 -261,-53 -390,-86l0 0c-35,-9 -69,-18 -103,-28 -15,-4 -29,-8 -44,-12 -31,-9 -62,-18 -94,-27 -17,-5 -35,-10 -52,-15 -30,-9 -60,-19 -90,-28 -18,-6 -35,-11 -53,-17 -30,-10 -59,-20 -89,-30 -18,-6 -35,-12 -53,-19 -29,-10 -58,-21 -87,-32 -18,-7 -35,-13 -53,-20 -29,-11 -59,-22 -88,-34 -15,-6 -30,-12 -45,-18 -109,-45 -217,-92 -323,-142 -10,-5 -20,-9 -30,-14 -29,-14 -57,-28 -86,-42 -16,-8 -32,-16 -48,-24 -27,-14 -54,-28 -81,-42 -17,-9 -35,-18 -52,-27 -26,-14 -51,-28 -77,-42 -18,-10 -36,-20 -54,-30 -25,-14 -50,-28 -75,-43 -18,-10 -35,-21 -53,-31 -25,-15 -49,-30 -74,-45 -18,-11 -35,-22 -53,-33 -24,-15 -48,-30 -72,-46 -17,-11 -34,-22 -51,-33 -24,-16 -49,-32 -73,-49 -7,-5 -14,-10 -21,-15 -54,-37 -107,-75 -160,-113 -18,-13 -35,-25 -53,-38 -21,-16 -42,-32 -63,-48 -18,-14 -37,-28 -55,-42 -21,-16 -41,-32 -61,-49 -18,-15 -36,-29 -55,-44 -20,-16 -40,-33 -60,-49 -18,-15 -37,-31 -55,-46 -19,-17 -39,-33 -58,-50 -18,-16 -36,-32 -54,-48 -19,-17 -37,-33 -56,-50 -18,-17 -37,-34 -55,-51 -18,-17 -36,-33 -53,-50 -20,-19 -39,-38 -59,-57 -16,-15 -31,-31 -47,-46 -34,-34 -67,-68 -100,-102 -13,-14 -26,-28 -39,-42 -21,-22 -42,-44 -62,-67 -15,-16 -29,-33 -44,-49 -18,-21 -37,-41 -55,-62 -15,-17 -29,-34 -44,-51 -18,-21 -35,-42 -53,-62 -14,-17 -29,-35 -43,-52 -17,-21 -34,-42 -51,-64 -14,-17 -28,-35 -41,-53 -17,-22 -35,-45 -52,-67 -13,-17 -26,-34 -38,-51 -18,-25 -36,-49 -54,-74 -11,-15 -22,-31 -33,-46 -22,-31 -43,-62 -65,-93 -7,-10 -14,-19 -20,-29 -28,-41 -55,-83 -82,-125 -7,-10 -13,-21 -20,-32 -20,-32 -40,-64 -60,-96 -9,-15 -18,-30 -27,-45 -17,-28 -34,-56 -50,-85 -10,-17 -19,-33 -28,-50 -15,-27 -31,-54 -46,-82 -9,-17 -19,-34 -28,-51 -15,-28 -30,-56 -44,-84 -9,-17 -17,-33 -26,-50 -15,-29 -30,-59 -44,-89 -8,-16 -15,-31 -23,-47 -16,-33 -31,-66 -46,-99 -6,-13 -12,-25 -17,-38 -42,-93 -82,-187 -120,-283 -3,-8 -6,-16 -9,-23 -15,-40 -31,-79 -45,-119 -5,-13 -10,-27 -15,-40 -13,-35 -25,-69 -37,-104 -5,-15 -10,-31 -15,-46 -11,-33 -22,-67 -33,-100 -5,-16 -10,-32 -15,-49 -10,-34 -20,-67 -30,-101 -5,-16 -9,-32 -14,-48 -10,-35 -19,-71 -29,-107 -4,-14 -8,-28 -11,-42 -10,-40 -20,-81 -30,-122 -2,-10 -5,-19 -7,-28 -24,-103 -45,-207 -64,-311 -1,-7 -2,-14 -3,-20 -8,-44 -15,-89 -22,-134 -2,-13 -4,-27 -6,-40 -6,-38 -11,-77 -16,-115 -2,-16 -4,-32 -6,-48 -5,-37 -9,-73 -13,-110 -2,-17 -3,-33 -5,-50 -4,-37 -7,-74 -10,-111 -1,-16 -3,-32 -4,-49 -3,-39 -5,-78 -7,-117 -1,-14 -2,-28 -2,-43 -2,-45 -4,-91 -5,-136 0,-8 -1,-16 -1,-24 -1,-55 -2,-110 -2,-165 0,-55 1,-109 2,-164 0,-10 1,-19 1,-29 1,-44 3,-87 5,-131 1,-15 2,-30 3,-45 2,-38 4,-76 7,-114 1,-17 3,-34 4,-50 3,-36 6,-72 10,-108 2,-17 3,-35 5,-52 4,-36 8,-73 12,-109 2,-16 4,-32 6,-48 5,-39 11,-78 16,-117 2,-13 4,-25 6,-38 8,-51 16,-102 25,-153l0 0c9,-53 19,-105 30,-157 2,-8 3,-15 5,-22 9,-43 18,-86 28,-128 3,-15 7,-29 10,-44 8,-36 17,-71 26,-107 4,-17 9,-33 13,-49 9,-33 18,-66 27,-99 5,-18 10,-35 15,-53 9,-32 19,-64 29,-96 5,-17 10,-34 16,-51 11,-34 21,-67 33,-100 5,-15 10,-30 15,-45 13,-39 27,-77 41,-116 3,-9 7,-19 10,-28 18,-48 36,-96 55,-144 2,-6 5,-12 7,-18 16,-41 33,-81 50,-121 6,-15 13,-30 19,-45 13,-31 27,-63 41,-94 8,-17 16,-34 23,-51 13,-29 26,-57 40,-86 8,-18 17,-36 26,-53 13,-28 27,-55 41,-82 9,-18 18,-36 27,-53 14,-28 29,-55 44,-83 9,-17 18,-33 27,-50 16,-30 33,-59 50,-89 8,-14 16,-28 24,-42 25,-43 50,-86 76,-128l0 0 2 -3c25,-41 51,-82 77,-123 10,-15 19,-30 29,-45 17,-27 35,-53 52,-79 12,-17 23,-34 35,-52 16,-24 33,-48 49,-71 12,-18 25,-35 37,-52 17,-23 33,-46 50,-69 13,-17 26,-35 39,-52 17,-22 34,-45 51,-67 13,-17 27,-34 40,-51 18,-23 36,-45 55,-68 13,-16 26,-32 39,-47 22,-27 44,-53 67,-79 10,-11 19,-23 29,-34 32,-36 64,-72 96,-108 13,-14 26,-28 38,-42 21,-22 41,-45 63,-67 15,-16 30,-31 45,-46 19,-20 39,-40 58,-60 16,-16 32,-32 48,-48 19,-19 38,-37 57,-56 17,-16 33,-32 50,-48 19,-18 38,-36 58,-54 17,-16 34,-31 51,-47 20,-18 40,-36 61,-54 17,-15 34,-30 51,-44 22,-19 44,-37 66,-56 16,-13 31,-27 47,-40 37,-30 74,-60 111,-90 15,-12 31,-24 46,-36 24,-18 47,-36 71,-54 18,-14 37,-27 56,-41 21,-16 42,-31 64,-47 19,-14 39,-28 58,-41 21,-15 42,-29 63,-44 20,-14 40,-27 60,-40 21,-14 43,-28 64,-42 20,-13 40,-26 60,-39 22,-14 44,-28 66,-41 20,-12 40,-25 61,-37 23,-14 46,-27 69,-41 20,-12 40,-24 60,-35 27,-16 55,-31 83,-46 30,-17 60,-33 90,-49 28,-15 55,-29 83,-44 21,-11 42,-21 63,-31 24,-12 47,-24 71,-35 22,-11 44,-21 65,-31 23,-11 47,-22 70,-33 22,-10 44,-20 67,-30 23,-10 47,-21 71,-31 23,-10 45,-19 68,-29 24,-10 47,-19 71,-29 23,-9 46,-18 69,-27 24,-10 49,-19 74,-28 22,-8 45,-17 67,-25 28,-10 55,-20 83,-29 21,-7 43,-15 64,-22 44,-15 89,-29 134,-43 21,-7 43,-13 64,-19 27,-8 54,-16 82,-24 23,-7 46,-13 69,-19 26,-7 52,-14 78,-21 23,-6 47,-12 71,-18 26,-6 52,-13 78,-19 24,-6 48,-11 72,-17 26,-6 52,-11 78,-17 24,-5 48,-10 72,-15 418,-84 849,-128 1292,-128 963,0 1877,208 2701,581l0 0 2 1c42,19 84,38 125,58 9,4 18,9 26,13 37,18 74,36 111,55l29 15c36,19 72,38 108,57 9,5 18,10 28,15 38,21 76,42 114,64 10,6 19,11 29,17 36,21 72,42 108,64 9,6 18,11 27,17 35,21 69,43 103,64 9,6 18,11 27,17 35,23 70,46 105,69 9,6 18,12 27,18 36,25 72,50 108,75 8,6 17,12 25,18 33,24 66,47 98,72 9,7 18,13 27,20 33,25 65,50 97,75 7,6 15,12 22,17 36,28 72,57 107,86 6,5 13,11 19,16 33,27 65,55 97,82 8,7 15,13 23,20 31,27 62,55 93,83 7,6 14,12 21,19 33,30 65,60 97,90l17 17c33,31 65,63 97,95 6,6 12,12 18,19 30,30 60,61 89,91l18 19c30,32 60,64 90,96 4,5 9,10 13,14 32,36 64,71 96,108 4,5 8,9 12,14 29,34 58,68 87,103l14 17c28,34 56,69 84,104l12 16c30,38 59,76 88,115l6 8c29,38 57,77 85,116l10 15c27,37 53,75 78,113l10 14c27,40 54,80 80,121l4 6c27,43 54,86 81,129l4 7c25,42 50,83 74,125l7 12c24,42 48,85 71,128l4 7c503,927 789,1988 789,3117z"/>
  <path class="fil1" d="M1147 4999c-355,0 -690,85 -986,236 10,-42 20,-85 30,-127 291,-135 615,-210 956,-210 1259,0 2284,1025 2284,2284 0,1259 -1025,2284 -2284,2284 -193,0 -380,-24 -559,-69 -18,-40 -36,-79 -53,-119 194,57 400,87 612,87 1204,0 2183,-979 2183,-2183 0,-1204 -979,-2183 -2183,-2183z"/>
  <path class="fil1" d="M1147 5272c-390,0 -753,118 -1056,319 8,-45 16,-90 24,-135 302,-181 655,-285 1032,-285 1109,0 2011,902 2011,2011 0,1109 -902,2011 -2011,2011 -246,0 -481,-44 -699,-125 -17,-43 -33,-85 -49,-128 230,98 482,152 747,152 1053,0 1910,-857 1910,-1910 0,-1053 -857,-1910 -1910,-1910z"/>
  <path class="fil1" d="M937 8590l373 0 0 -346 50 -1c164,-3 701,-56 701,-602 0,-416 -374,-556 -704,-679 -231,-86 -430,-160 -430,-327 0,-137 129,-222 249,-222 236,0 400,148 422,373l419 0 0 -686 -397 0 -41 288 -73 -124c-36,-60 -92,-109 -167,-145l-29 -14 0 -331 -373 0 0 279 -47 3c-211,15 -569,161 -569,609 0,443 404,587 729,703 204,73 364,130 364,256 0,135 -111,215 -296,215 -265,-14 -430,-133 -455,-323l-430 0 0 710 398 0 46 -248 67 59c54,47 108,86 166,118l26 14 0 420zm-728 -262c-28,-109 -54,-218 -76,-329l0 -583 629 0 0 51c0,221 225,265 359,272 70,0 192,-15 192,-114 0,-55 -151,-109 -297,-161 -317,-113 -796,-284 -796,-798 0,-436 302,-664 616,-705l0 -288 576 0 0 370c39,21 74,46 104,74l17 -118 586 0 0 888 -619 0 0 -51c0,-196 -127,-323 -323,-323 -60,0 -148,38 -148,121 0,96 169,159 364,232 325,121 770,287 770,774 0,485 -379,679 -750,701l0 349 -576 0 0 -462c-31,-18 -61,-38 -90,-60l-29 159 -508 0z"/>
  <path class="fil1" d="M10094 4830l199 0c20,0 37,-1 52,-3 126,-15 176,-88 176,-261 0,-134 -66,-226 -177,-244 -13,-3 -27,-4 -42,-4l-207 0 0 512zm199 101l-300 0 0 -714 308 0c21,0 41,2 60,5 160,26 261,158 261,343 0,142 -27,334 -264,362 -19,3 -40,4 -64,4zm-199 1072l276 0c139,0 281,-103 281,-301 0,-194 -109,-309 -293,-309l-264 0 0 610zm276 101l-377 0 0 -812 365 0c239,0 394,161 394,410 0,261 -197,402 -382,402zm31 937l268 0 0 -510 47 -3c601,-41 858,-272 858,-773 0,-441 -315,-594 -503,-646l-144 -40 139 -56c279,-111 369,-254 369,-587 0,-373 -243,-587 -721,-637l-45 -5 0 -513 -268 0 0 507 -473 0 0 -507 -268 0 0 507 -650 0 0 426 237 0 0 1900 -237 0 0 430 650 0 0 507 268 0 0 -507 473 0 0 507zm369 101l-470 0 0 -507 -271 0 0 507 -470 0 0 -507 -650 0 0 -633 237 0 0 -1698 -237 0 0 -629 650 0 0 -507 470 0 0 507 271 0 0 -507 470 0 0 524c632,82 766,442 766,733 0,326 -85,503 -316,627 291,124 455,374 455,702 0,546 -280,816 -905,870l0 517z"/>
  <path class="fil1" d="M11326 11152c-454,-133 -851,-456 -1068,-877 -160,-312 -226,-671 -290,-1018 -90,-494 -176,-961 -514,-1289 -321,-311 -812,-437 -1546,-397 -92,5 -185,12 -279,18 -472,33 -961,68 -1412,-97 -540,-197 -1006,-688 -1313,-1382 -164,-370 -276,-764 -384,-1146 -64,-226 -130,-459 -206,-684 -250,-738 -581,-1247 -1012,-1557 -510,-366 -1208,-430 -1796,-216 40,-49 82,-97 124,-144 583,-160 1240,-74 1732,278 449,322 793,848 1049,1606 77,227 144,462 208,689 107,378 218,769 379,1132 296,669 742,1141 1256,1328 430,157 908,124 1370,91 94,-7 187,-13 280,-18 480,-26 1172,-10 1622,425 361,350 454,855 543,1343 62,340 127,691 280,990 212,412 607,724 1055,840 -25,28 -51,56 -77,84z"/>
  <path class="fil1" d="M2582 2183c-217,0 -186,336 29,336 217,0 186,-336 -29,-336z"/>
  <path class="fil1" d="M10007 9026c-217,0 -186,336 29,336 217,0 186,-336 -29,-336z"/>
  <path class="fil1" d="M10963 10845c-217,0 -186,336 29,336 217,0 186,-336 -29,-336z"/>
  <path class="fil1" d="M8451 7414c-217,0 -186,336 29,336 217,0 186,-336 -29,-336z"/>
  <path class="fil1" d="M5001 6120c-217,0 -186,336 29,336 217,0 186,-336 -29,-336z"/>
  <path class="fil1" d="M5016 10693c-932,0 -1691,755 -1698,1685 -26,-15 -52,-30 -78,-45 31,-953 816,-1719 1776,-1719 980,0 1777,797 1777,1777 0,866 -622,1589 -1443,1746l0 -80c777,-156 1364,-843 1364,-1665 0,-937 -762,-1699 -1699,-1699z"/>
  <path class="fil1" d="M5016 10905c-819,0 -1486,667 -1486,1486 0,35 1,69 4,104 -27,-14 -54,-28 -81,-43 -1,-20 -1,-41 -1,-61 0,-863 702,-1565 1565,-1565 863,0 1565,702 1565,1565 0,748 -528,1375 -1231,1529l0 -81c659,-152 1152,-744 1152,-1448 0,-819 -667,-1486 -1486,-1486z"/>
  <path class="fil1" d="M5350 13196c168,-39 377,-147 377,-448 0,-324 -291,-432 -548,-528 -179,-67 -334,-125 -334,-255 0,-107 101,-173 194,-173 184,0 312,115 328,291l326 0 0 -534 -309 0 -32 224 -57 -96c-28,-47 -71,-85 -130,-113l-22 -11 0 -258 -290 0 0 217 -37 3c-164,12 -443,125 -443,474 0,345 315,457 567,547 158,56 283,101 283,199 0,105 -86,168 -230,168 -206,-11 -335,-104 -354,-251l-335 0 0 182c-26,-10 -53,-19 -79,-29l0 -232 490 0 0 39c0,172 175,207 279,212 55,0 150,-12 150,-89 0,-43 -117,-85 -231,-125 -247,-88 -620,-221 -620,-621 0,-339 235,-517 479,-549l0 -224 448 0 0 288c31,17 58,36 81,58l13 -91 456 0 0 691 -482 0 0 -39c0,-153 -99,-251 -251,-251 -46,0 -115,30 -115,94 0,75 131,124 283,181 253,94 599,224 599,602 0,322 -213,479 -455,529l0 -81z"/>
  <path class="fil2" d="M14804 5499l-1047 -464 -2170 4555 -1325 -1948 -1305 2669 -6101 0 -969 969c-239,-242 -459,-503 -659,-780l1206 -1206 5888 0 1795 -3673 1314 1931 1395 -2929 -1006 -446 2257 -1131 727 2453z"/>
  <path class="fil3" d="M5026 3127c-67,-9 -144,-31 -229,-69 -363,-159 -639,-91 -639,-91l-290 410c0,0 23,-232 -124,-286 -48,-18 -106,12 -151,69 15,-123 11,-281 -15,-455 -37,-253 272,-276 272,-276 0,0 -115,-126 161,-248 276,-122 571,251 964,391 393,140 532,72 457,300 -58,175 -187,283 -406,254z"/>
  <path class="fil4" d="M4414 4324c-17,6 -33,12 -50,17 -321,89 -563,-193 -576,-208 7,23 114,364 464,431l-158 315 -686 -695 120 -275 104 -238c-176,-164 -132,-392 -40,-509 46,-57 103,-87 151,-69 147,54 124,286 124,286l290 -410c0,0 276,-68 639,91 86,37 162,60 229,69 -32,161 -162,754 -405,1043 0,0 0,0 0,0 0,0 0,0 0,0 -44,53 -93,96 -145,124 -21,11 -41,21 -62,29z"/>
  <path class="fil3" d="M4364 4340l-112 223c-350,-67 -458,-409 -464,-431 13,15 255,297 576,208z"/>
  <path class="fil2" d="M4640 3464c0,0 21,467 -4,524 -26,57 -196,-78 -196,-78l-116 -21 315 -426z"/>
  <path class="fil5" d="M3728 3177c-29,-18 -64,-14 -92,4 -31,20 -47,55 -61,87 -10,22 24,38 34,16 11,-24 22,-51 43,-68 22,-17 47,-18 68,1 45,42 42,106 28,160 -6,24 -14,49 -28,70 -11,17 -32,38 -54,35 -24,-3 -22,-35 -19,-52 2,-11 6,-25 16,-31 5,-3 15,-5 18,1 10,22 45,9 35,-13 -11,-25 -39,-34 -64,-25 -27,10 -40,41 -43,68 -4,26 -1,56 19,74 22,21 55,18 81,4 53,-30 72,-97 82,-153 11,-63 -3,-143 -62,-179z"/>
  <path class="fil3" d="M4286 4068c-81,-21 -152,-78 -189,-153 -4,-9 -14,-15 -24,-11 -9,3 -16,15 -11,24 43,88 123,153 218,177 24,6 30,-31 7,-37z"/>
  <path class="fil3" d="M4541 3209c-75,-35 -158,-50 -241,-42 -29,3 -55,31 -51,61 4,30 30,54 61,51 9,-1 18,-1 27,-2 2,0 26,-1 27,0 -9,0 -10,0 -4,0 1,0 3,0 4,0 5,0 10,1 15,1 8,1 16,2 25,3 8,1 16,3 24,5 5,1 10,2 15,4 3,1 9,1 11,3 -8,-3 -9,-3 -3,-1 1,0 2,1 4,1 5,2 10,3 14,5 8,3 16,7 25,11 27,13 63,1 75,-27 12,-28 2,-62 -27,-75z"/>
  <path class="fil3" d="M5013 3477c-1,-5 -2,-10 -3,-15 -4,-9 -9,-17 -17,-24 -49,-52 -115,-86 -184,-101 -29,-6 -62,16 -66,45 -4,31 14,59 45,66 7,2 15,4 22,6 21,7 40,16 59,28 18,12 35,27 51,43 9,10 28,14 41,13 14,-1 30,-9 38,-20 9,-12 15,-26 13,-41z"/>
  <path class="fil3" d="M4443 3433c0,48 -39,87 -87,87 -48,0 -87,-39 -87,-87 0,-48 39,-87 87,-87 48,0 87,39 87,87z"/>
  <path class="fil3" d="M4897 3606c0,48 -39,87 -87,87 -48,0 -87,-39 -87,-87 0,-48 39,-87 87,-87 48,0 87,39 87,87z"/>
  <path class="fil6" d="M7851 13252c-18,-3 -36,-6 -52,-11 -230,-60 -49,-189 -49,-189l-702 -3200c0,0 301,-414 -80,-714 -420,-332 -1573,-540 -1619,-548 51,16 1354,426 1591,796 28,43 46,124 57,234l0 2c83,860 -287,3473 -287,3473 31,59 -14,119 -14,119 105,143 28,216 28,216 -28,6 -57,12 -87,17 -268,45 -567,38 -710,31 -53,-3 -84,-5 -84,-5 -108,-80 0,-161 0,-161l-171 -3192c-80,-115 0,-175 0,-175 0,0 -1522,-108 -2266,-258 -744,-150 -679,-861 -679,-861l1259 -510c88,28 141,44 141,44l22 -50c0,0 286,116 519,-75 0,0 327,210 414,194 41,-8 -9,-103 -73,-200 11,10 223,216 263,106 9,-26 -1,-60 -24,-98 2,-4 4,-10 6,-17l498 0c0,0 2384,210 2558,1175 83,456 210,3562 210,3562 0,0 122,84 0,126 0,0 140,115 54,161 0,0 -11,1 -30,3 -107,10 -479,42 -692,8z"/>
  <path class="fil3" d="M6969 9139c381,300 80,714 80,714l-51 -230 0 -2c-11,-110 -29,-191 -57,-234 -237,-370 -1540,-780 -1591,-796 46,8 1199,216 1619,548z"/>
  <path class="fil3" d="M6176 9477c-151,107 -291,230 -415,367 -16,18 13,42 29,24 122,-135 259,-255 408,-360 20,-14 -2,-45 -22,-31z"/>
  <path class="fil3" d="M5873 9460c-56,100 -115,198 -178,294 -13,20 16,45 29,24 65,-99 126,-199 183,-303 12,-21 -22,-37 -34,-16z"/>
  <path class="fil3" d="M6016 9936c-3,-9 -15,-16 -24,-11l-168 84c-9,5 -15,14 -11,24 3,9 15,16 24,11 56,-28 112,-56 168,-84 9,-5 15,-14 11,-24z"/>
  <path class="fil3" d="M9160 13772c311,9 610,214 516,387 -94,173 -651,255 -651,255l-1143 -577 -31 -585c213,35 585,3 692,-8l2 12 615 516z"/>
  <path class="fil3" d="M7307 14047c327,9 642,225 543,407 -99,182 -685,268 -685,268l-1203 -608 -34 -637c142,7 441,14 710,-31l22 57 648 543z"/>
  <path class="fil7" d="M7653 14310c-36,-63 -91,-114 -155,-146 -22,-11 -38,23 -16,34 59,29 108,76 140,133 5,9 19,10 26,4 9,-6 10,-17 5,-26z"/>
  <path class="fil7" d="M7659 14391c-11,1 -17,10 -17,20 0,2 0,3 0,5 0,1 0,3 0,3 0,4 -1,7 -1,10 -1,4 -1,8 -2,12 0,1 -1,3 -1,4 0,0 0,2 -1,3 -2,7 -5,14 -9,21 -2,3 -3,6 -5,9 0,1 -1,1 -1,2 0,0 0,0 0,0 -1,2 -2,3 -3,5 -6,8 -6,20 2,27 8,6 20,6 27,-2 22,-30 33,-66 33,-103 0,-10 -11,-18 -20,-17z"/>
  <path class="fil7" d="M9484 14005c-22,-48 -61,-88 -110,-109 -9,-4 -21,-1 -25,9 -4,9 -1,21 9,25 5,2 11,5 16,8 2,1 5,3 7,4 1,0 2,1 2,2 1,0 1,1 2,1 10,7 19,14 27,22 2,2 4,4 6,6 0,0 0,0 0,0 0,0 0,0 0,0 1,1 2,2 3,4 4,4 7,9 10,13 3,5 6,9 9,14 1,1 2,3 2,4 0,1 3,5 1,1 1,3 3,6 4,8 4,9 14,15 24,11 9,-4 16,-15 11,-24z"/>
  <path class="fil7" d="M9492 14099c-2,-4 -5,-9 -10,-10 -9,-4 -21,-1 -25,9 -3,6 -6,12 -9,17 -6,9 -13,17 -20,24l1 -1c-4,3 -6,7 -7,12 -1,5 0,11 3,14 3,4 7,7 12,8 5,1 11,0 14,-3 17,-15 32,-34 41,-55 2,-5 2,-10 1,-15z"/>
  <path class="fil7" d="M9054 14309c-279,-147 -559,-293 -838,-440l-241 -126c-22,-11 -38,23 -16,34 279,147 559,293 838,440l241 126c22,11 38,-23 16,-34z"/>
  <path class="fil7" d="M7231 14583c-310,-154 -618,-311 -925,-470 -87,-45 -173,-91 -260,-136 -22,-11 -38,23 -16,34 306,161 613,320 922,475 87,44 175,88 262,131 22,11 38,-23 16,-34z"/>
  <path class="fil3" d="M6527 13113c-186,38 -373,78 -558,120 -23,5 -20,43 3,38 186,-41 372,-81 558,-120 23,-5 20,-42 -3,-38z"/>
  <path class="fil3" d="M6533 13240c-125,16 -251,32 -376,48 -24,3 -21,41 3,38 125,-16 251,-32 376,-48 24,-3 21,-41 -3,-38z"/>
  <path class="fil3" d="M8391 12886c-173,34 -348,61 -523,83 -24,3 -21,41 3,38 175,-22 350,-49 523,-83 24,-5 21,-42 -3,-38z"/>
  <path class="fil3" d="M8363 13011c-115,21 -232,34 -349,39 -24,1 -21,39 3,38 117,-5 233,-18 349,-39 24,-4 21,-42 -3,-38z"/>
  <path class="fil7" d="M4531 4986l-121 1655 -704 -1592c44,-84 108,-130 171,-153 109,-41 216,-18 216,-18 0,0 128,-37 280,18 50,18 104,47 156,90z"/>
  <path class="fil8" d="M5751 6579l0 1640 -1564 0 -40 91 -22 50c0,0 -52,-15 -141,-44l-1259 510c-167,-31 -103,-210 -103,-210 -55,-107 52,-125 52,-125l50 -651c-336,-157 -610,-329 -647,-480 -105,-422 -14,-2212 -14,-2212 -33,-115 45,-196 45,-196 0,0 -92,-92 -94,-175 -2,-81 1125,-598 1142,-606 -37,173 -126,700 45,1115l304 -28 -193 258 1095 1124 491 -1470 -213 -143 237 -150c-32,-286 -295,-691 -305,-707 0,0 0,0 0,0 0,0 0,0 0,0 18,3 543,86 633,150 92,65 -37,136 -37,136 0,0 108,58 70,117l464 2004z"/>
  <polygon class="fil8" points="3955,7428 3103,6752 3001,5505 2918,6799 "/>
  <polygon class="fil3" points="5452,6902 5673,8219 5552,8219 5552,7523 5227,6908 5238,5256 "/>
  <path class="fil4" d="M5008 8227c64,98 114,193 73,200 -86,16 -414,-194 -414,-194 -233,191 -519,75 -519,75l219 -505c0,0 391,-76 462,-68 71,8 430,317 440,372 6,35 -6,82 -16,110 -2,7 -5,12 -6,17 23,37 34,72 24,98 -40,111 -253,-95 -263,-106z"/>
  <path class="fil9" d="M4926 4878l-237 150 213 143 -491 1470 90 -1235 31 -420c0,0 -39,-476 -118,-663 20,-8 41,-17 62,-29 52,-28 101,-71 145,-124 11,16 273,421 305,707z"/>
  <path class="fil10" d="M4531 4986c-52,-44 -106,-72 -156,-90 -153,-55 -280,-18 -280,-18l158 -315 112 -223c17,-5 33,-10 50,-17 78,187 118,663 118,663z"/>
  <polygon class="fil3" points="4339,5105 4501,5406 4411,6642 3983,5674 4007,5147 "/>
  <path class="fil9" d="M3159 4171c8,-37 14,-58 14,-58l355 -205 0 0 -120 275c-109,361 298,866 298,866l276 625 427 967 -1095 -1125 193 -258 -304 28c-171,-415 -82,-942 -45,-1115l0 0z"/>
  <path class="fil3" d="M4375 4896l-36 209 -332 42 -129 -251c109,-41 216,-18 216,-18 0,0 128,-37 280,18z"/>
  <path class="fil10" d="M4094 4878c0,0 -107,-23 -216,18 -63,24 -127,69 -171,153 0,0 -407,-505 -298,-866l686 695z"/>
  <polygon class="fil3" points="3103,6752 3955,7428 2918,6799 3001,5505 "/>
  <path class="fil3" d="M2419 4961c-74,-36 -148,-74 -220,-115 -21,-12 -37,22 -16,34 72,41 145,79 220,115 22,11 38,-24 16,-34z"/>
  <path class="fil3" d="M2303 5077c-33,-2 -66,-1 -99,2 -10,1 -18,10 -17,20 1,10 10,18 20,17 15,-2 31,-3 46,-3 7,0 15,0 22,0 4,0 7,0 11,0 1,0 2,0 4,0 1,0 1,0 1,0 0,0 0,0 1,0 1,0 2,0 4,0 5,0 10,0 14,-3 4,-3 7,-7 8,-12 1,-9 -5,-21 -15,-22z"/>
  <path class="fil3" d="M5178 4423c-8,-7 -20,-5 -27,2 -36,40 -74,74 -119,105 -8,6 -10,18 -5,26 6,8 18,10 26,5 46,-32 88,-70 126,-112 7,-8 5,-20 -2,-27z"/>
  <path class="fil3" d="M5195 4591c-47,17 -95,33 -142,50 -23,8 -10,43 13,35 47,-17 95,-34 142,-50 23,-8 10,-43 -13,-35z"/>
  <path class="fil3" d="M4529 4953c-72,-44 -147,-90 -232,-103 -72,-12 -134,6 -195,37 -2,-4 -6,-8 -12,-9 -74,-15 -152,-8 -223,19 -61,23 -146,68 -157,139 -4,24 33,31 37,7 5,-31 31,-52 56,-70 27,-19 57,-34 88,-45 55,-19 113,-24 170,-16 -12,14 8,38 26,27 32,-19 65,-38 102,-48 38,-10 79,-9 118,-1 75,16 142,58 207,97 21,13 37,-22 16,-34z"/>
  <path class="fil3" d="M3968 8295c-314,-124 -628,-248 -941,-372 -89,-35 -178,-70 -267,-106 -22,-9 -39,25 -16,34 314,124 628,248 941,372 89,35 178,70 267,105 22,9 39,-25 16,-34z"/>
  <path class="fil3" d="M4418 7731c-354,-241 -709,-481 -1063,-722 -100,-68 -200,-136 -300,-204 -20,-14 -44,15 -24,29 354,241 709,481 1063,722 100,68 200,136 300,204 20,14 44,-15 24,-29z"/>
  <path class="fil2" d="M5027 8228c-76,-67 -153,-134 -229,-201 -18,-16 -42,13 -24,29 76,67 153,134 229,201 18,16 42,-13 24,-29z"/>
  <path class="fil2" d="M5220 8192c-98,-92 -196,-184 -294,-276 -18,-17 -42,12 -24,29 98,92 196,184 294,276 18,17 42,-12 24,-29z"/>
  <polygon class="fil11" points="4616,8625 7608,8625 8287,6467 5886,6467 5254,8489 4573,8489 "/>
  <polygon class="fil1" points="8287,6467 5814,8625 7608,8625 "/>
  <path class="fil12" d="M7639 8459l-2345 0c-26,0 -22,38 4,38l2345 0c26,0 22,-38 -4,-38z"/>
  <path class="fil8" d="M9047 550l0 181 -3355 0 0 -181c0,-219 179,-398 398,-398l2559 0c219,0 398,179 398,398z"/>
  <path class="fil6" d="M8824 440c0,79 -64,143 -143,143 -79,0 -143,-64 -143,-143 0,-79 64,-143 143,-143 79,0 143,64 143,143z"/>
  <path class="fil4" d="M8267 441c0,79 -64,143 -143,143 -79,0 -143,-64 -143,-143 0,-79 64,-143 143,-143 79,0 143,64 143,143z"/>
  <path class="fil13" d="M7680 441c0,79 -64,143 -143,143 -79,0 -143,-64 -143,-143 0,-79 64,-143 143,-143 79,0 143,64 143,143z"/>
  <path class="fil7" d="M9047 731l0 4616c0,228 -179,414 -398,414l-952 0 -709 568 54 -568 -952 0c-219,0 -398,-186 -398,-414l0 -4616 3355 0z"/>
  <polygon class="fil8" points="6274,983 6003,1453 6545,1453 "/>
  <polygon class="fil2" points="6274,2315 6545,1845 6003,1845 "/>
  <polygon class="fil14" points="6704,1155 8049,1155 8049,983 6704,983 "/>
  <polygon class="fil14" points="6704,1453 8789,1453 8789,1261 6704,1261 "/>
  <polygon class="fil14" points="6704,2015 8049,2015 8049,1844 6704,1844 "/>
  <polygon class="fil14" points="6704,2314 8789,2314 8789,2121 6704,2121 "/>
  <polygon class="fil8" points="6272,2533 6001,3003 6544,3003 "/>
  <polygon class="fil8" points="6274,3394 6003,3864 6545,3864 "/>
  <polygon class="fil14" points="6702,2705 8047,2705 8047,2533 6702,2533 "/>
  <polygon class="fil14" points="6702,3003 8787,3003 8787,2810 6702,2810 "/>
  <polygon class="fil14" points="6702,3565 8047,3565 8047,3394 6702,3394 "/>
  <polygon class="fil14" points="6702,3864 8787,3864 8787,3671 6702,3671 "/>
  <polygon class="fil2" points="6249,4651 6520,4181 5977,4181 "/>
  <polygon class="fil14" points="6679,4351 8023,4351 8023,4180 6679,4180 "/>
  <polygon class="fil14" points="6679,4650 8763,4650 8763,4457 6679,4457 "/>
  <polygon class="fil8" points="6247,4869 5976,5339 6518,5339 "/>
  <polygon class="fil14" points="6677,5041 8022,5041 8022,4869 6677,4869 "/>
  <polygon class="fil14" points="6677,5339 8761,5339 8761,5146 6677,5146 "/>
  <path class="fil8" d="M8182 11612c0,48 -39,88 -88,88 -48,0 -88,-39 -88,-88 0,-49 39,-88 88,-88 48,0 88,39 88,88z"/>
  <path class="fil8" d="M8551 11612c0,48 -39,88 -88,88 -49,0 -88,-39 -88,-88 0,-49 39,-88 88,-88 49,0 88,39 88,88z"/>
  <path class="fil8" d="M8920 11612c0,48 -39,88 -88,88 -49,0 -88,-39 -88,-88 0,-49 39,-88 88,-88 48,0 88,39 88,88z"/>
  <path class="fil8" d="M9289 11612c0,48 -39,88 -88,88 -48,0 -88,-39 -88,-88 0,-49 39,-88 88,-88 49,0 88,39 88,88z"/>
  <path class="fil8" d="M9658 11612c0,48 -39,88 -88,88 -49,0 -88,-39 -88,-88 0,-49 39,-88 88,-88 48,0 88,39 88,88z"/>
  <path class="fil8" d="M8182 11987c0,48 -39,88 -88,88 -48,0 -88,-39 -88,-88 0,-49 39,-88 88,-88 48,0 88,39 88,88z"/>
  <path class="fil8" d="M8551 11987c0,48 -39,88 -88,88 -49,0 -88,-39 -88,-88 0,-49 39,-88 88,-88 49,0 88,39 88,88z"/>
  <path class="fil8" d="M8920 11987c0,48 -39,88 -88,88 -49,0 -88,-39 -88,-88 0,-49 39,-88 88,-88 48,0 88,39 88,88z"/>
  <path class="fil8" d="M9289 11987c0,48 -39,88 -88,88 -48,0 -88,-39 -88,-88 0,-49 39,-88 88,-88 49,0 88,39 88,88z"/>
  <path class="fil8" d="M9658 11987c0,48 -39,88 -88,88 -49,0 -88,-39 -88,-88 0,-49 39,-88 88,-88 48,0 88,39 88,88z"/>
  <path class="fil8" d="M8182 10526c0,48 -39,88 -88,88 -48,0 -88,-39 -88,-88 0,-49 39,-88 88,-88 48,0 88,39 88,88z"/>
  <path class="fil8" d="M8551 10526c0,48 -39,88 -88,88 -49,0 -88,-39 -88,-88 0,-49 39,-88 88,-88 49,0 88,39 88,88z"/>
  <path class="fil8" d="M8920 10526c0,48 -39,88 -88,88 -49,0 -88,-39 -88,-88 0,-49 39,-88 88,-88 48,0 88,39 88,88z"/>
  <path class="fil8" d="M9289 10526c0,48 -39,88 -88,88 -48,0 -88,-39 -88,-88 0,-49 39,-88 88,-88 49,0 88,39 88,88z"/>
  <path class="fil8" d="M9658 10526c0,48 -39,88 -88,88 -49,0 -88,-39 -88,-88 0,-49 39,-88 88,-88 48,0 88,39 88,88z"/>
  <path class="fil8" d="M8182 10900c0,49 -39,88 -88,88 -48,0 -88,-39 -88,-88 0,-48 39,-88 88,-88 48,0 88,39 88,88z"/>
  <path class="fil8" d="M8551 10900c0,49 -39,88 -88,88 -49,0 -88,-39 -88,-88 0,-48 39,-88 88,-88 49,0 88,39 88,88z"/>
  <path class="fil8" d="M8920 10900c0,49 -39,88 -88,88 -49,0 -88,-39 -88,-88 0,-48 39,-88 88,-88 48,0 88,39 88,88z"/>
  <path class="fil8" d="M9289 10900c0,49 -39,88 -88,88 -48,0 -88,-39 -88,-88 0,-48 39,-88 88,-88 49,0 88,39 88,88z"/>
  <path class="fil8" d="M9658 10900c0,49 -39,88 -88,88 -49,0 -88,-39 -88,-88 0,-48 39,-88 88,-88 48,0 88,39 88,88z"/>
  <path class="fil8" d="M8182 11275c0,49 -39,88 -88,88 -48,0 -88,-39 -88,-88 0,-48 39,-88 88,-88 48,0 88,39 88,88z"/>
  <path class="fil8" d="M8551 11275c0,49 -39,88 -88,88 -49,0 -88,-39 -88,-88 0,-48 39,-88 88,-88 49,0 88,39 88,88z"/>
  <path class="fil8" d="M8920 11275c0,49 -39,88 -88,88 -49,0 -88,-39 -88,-88 0,-48 39,-88 88,-88 48,0 88,39 88,88z"/>
  <path class="fil8" d="M9289 11275c0,49 -39,88 -88,88 -48,0 -88,-39 -88,-88 0,-48 39,-88 88,-88 49,0 88,39 88,88z"/>
  <path class="fil8" d="M9658 11275c0,49 -39,88 -88,88 -49,0 -88,-39 -88,-88 0,-48 39,-88 88,-88 48,0 88,39 88,88z"/>
  <path class="fil7" d="M1147 6896c0,49 -39,88 -88,88 -48,0 -88,-39 -88,-88 0,-49 39,-88 88,-88 48,0 88,39 88,88z"/>
  <path class="fil7" d="M1516 6896c0,49 -39,88 -88,88 -48,0 -88,-39 -88,-88 0,-49 39,-88 88,-88 48,0 88,39 88,88z"/>
  <path class="fil7" d="M1885 6896c0,49 -39,88 -88,88 -49,0 -88,-39 -88,-88 0,-49 39,-88 88,-88 48,0 88,39 88,88z"/>
  <path class="fil7" d="M2254 6896c0,49 -39,88 -88,88 -48,0 -88,-39 -88,-88 0,-49 39,-88 88,-88 49,0 88,39 88,88z"/>
  <path class="fil7" d="M2623 6896c0,49 -39,88 -88,88 -49,0 -88,-39 -88,-88 0,-49 39,-88 88,-88 49,0 88,39 88,88z"/>
  <path class="fil7" d="M1147 7270c0,49 -39,88 -88,88 -48,0 -88,-39 -88,-88 0,-49 39,-88 88,-88 48,0 88,39 88,88z"/>
  <path class="fil7" d="M1516 7270c0,49 -39,88 -88,88 -48,0 -88,-39 -88,-88 0,-49 39,-88 88,-88 48,0 88,39 88,88z"/>
  <path class="fil7" d="M1885 7270c0,49 -39,88 -88,88 -49,0 -88,-39 -88,-88 0,-49 39,-88 88,-88 48,0 88,39 88,88z"/>
  <path class="fil7" d="M2254 7270c0,49 -39,88 -88,88 -48,0 -88,-39 -88,-88 0,-49 39,-88 88,-88 49,0 88,39 88,88z"/>
  <path class="fil7" d="M2623 7270c0,49 -39,88 -88,88 -49,0 -88,-39 -88,-88 0,-49 39,-88 88,-88 49,0 88,39 88,88z"/>
  <path class="fil7" d="M1147 5809c0,49 -39,88 -88,88 -48,0 -88,-39 -88,-88 0,-49 39,-88 88,-88 48,0 88,39 88,88z"/>
  <path class="fil7" d="M1516 5809c0,49 -39,88 -88,88 -48,0 -88,-39 -88,-88 0,-49 39,-88 88,-88 48,0 88,39 88,88z"/>
  <path class="fil7" d="M1885 5809c0,49 -39,88 -88,88 -49,0 -88,-39 -88,-88 0,-49 39,-88 88,-88 48,0 88,39 88,88z"/>
  <path class="fil7" d="M2254 5809c0,49 -39,88 -88,88 -48,0 -88,-39 -88,-88 0,-49 39,-88 88,-88 49,0 88,39 88,88z"/>
  <path class="fil7" d="M2623 5809c0,49 -39,88 -88,88 -49,0 -88,-39 -88,-88 0,-49 39,-88 88,-88 49,0 88,39 88,88z"/>
  <path class="fil7" d="M1147 6184c0,49 -39,88 -88,88 -48,0 -88,-39 -88,-88 0,-49 39,-88 88,-88 48,0 88,39 88,88z"/>
  <path class="fil7" d="M1516 6184c0,49 -39,88 -88,88 -48,0 -88,-39 -88,-88 0,-49 39,-88 88,-88 48,0 88,39 88,88z"/>
  <path class="fil7" d="M1885 6184c0,49 -39,88 -88,88 -49,0 -88,-39 -88,-88 0,-49 39,-88 88,-88 48,0 88,39 88,88z"/>
  <path class="fil7" d="M2254 6184c0,49 -39,88 -88,88 -48,0 -88,-39 -88,-88 0,-49 39,-88 88,-88 49,0 88,39 88,88z"/>
  <path class="fil7" d="M2623 6184c0,49 -39,88 -88,88 -49,0 -88,-39 -88,-88 0,-49 39,-88 88,-88 49,0 88,39 88,88z"/>
  <path class="fil7" d="M1147 6558c0,48 -39,88 -88,88 -48,0 -88,-39 -88,-88 0,-49 39,-88 88,-88 48,0 88,39 88,88z"/>
  <path class="fil7" d="M1516 6558c0,48 -39,88 -88,88 -48,0 -88,-39 -88,-88 0,-49 39,-88 88,-88 48,0 88,39 88,88z"/>
  <path class="fil7" d="M1885 6558c0,48 -39,88 -88,88 -49,0 -88,-39 -88,-88 0,-49 39,-88 88,-88 48,0 88,39 88,88z"/>
  <path class="fil7" d="M2254 6558c0,48 -39,88 -88,88 -48,0 -88,-39 -88,-88 0,-49 39,-88 88,-88 49,0 88,39 88,88z"/>
  <path class="fil7" d="M2623 6558c0,48 -39,88 -88,88 -49,0 -88,-39 -88,-88 0,-49 39,-88 88,-88 49,0 88,39 88,88z"/>
  <path class="fil7" d="M10303 2759c0,49 -39,88 -88,88 -48,0 -88,-39 -88,-88 0,-49 39,-88 88,-88 49,0 88,39 88,88z"/>
  <path class="fil7" d="M10672 2759c0,49 -39,88 -88,88 -49,0 -88,-39 -88,-88 0,-49 39,-88 88,-88 48,0 88,39 88,88z"/>
  <path class="fil7" d="M11041 2759c0,49 -39,88 -88,88 -48,0 -88,-39 -88,-88 0,-49 39,-88 88,-88 49,0 88,39 88,88z"/>
  <path class="fil7" d="M11410 2759c0,49 -39,88 -88,88 -49,0 -88,-39 -88,-88 0,-49 39,-88 88,-88 49,0 88,39 88,88z"/>
  <path class="fil7" d="M11779 2759c0,49 -39,88 -88,88 -48,0 -88,-39 -88,-88 0,-49 39,-88 88,-88 48,0 88,39 88,88z"/>
  <path class="fil7" d="M10303 3133c0,48 -39,88 -88,88 -48,0 -88,-39 -88,-88 0,-48 39,-88 88,-88 49,0 88,39 88,88z"/>
  <path class="fil7" d="M10672 3133c0,48 -39,88 -88,88 -49,0 -88,-39 -88,-88 0,-48 39,-88 88,-88 48,0 88,39 88,88z"/>
  <path class="fil7" d="M11041 3133c0,48 -39,88 -88,88 -48,0 -88,-39 -88,-88 0,-48 39,-88 88,-88 49,0 88,39 88,88z"/>
  <path class="fil7" d="M11410 3133c0,48 -39,88 -88,88 -49,0 -88,-39 -88,-88 0,-48 39,-88 88,-88 49,0 88,39 88,88z"/>
  <path class="fil7" d="M11779 3133c0,48 -39,88 -88,88 -48,0 -88,-39 -88,-88 0,-48 39,-88 88,-88 48,0 88,39 88,88z"/>
  <path class="fil7" d="M10303 1673c0,48 -39,88 -88,88 -48,0 -88,-39 -88,-88 0,-48 39,-88 88,-88 49,0 88,39 88,88z"/>
  <path class="fil7" d="M10672 1673c0,48 -39,88 -88,88 -49,0 -88,-39 -88,-88 0,-48 39,-88 88,-88 48,0 88,39 88,88z"/>
  <path class="fil7" d="M11041 1673c0,48 -39,88 -88,88 -48,0 -88,-39 -88,-88 0,-48 39,-88 88,-88 49,0 88,39 88,88z"/>
  <path class="fil7" d="M11410 1673c0,48 -39,88 -88,88 -49,0 -88,-39 -88,-88 0,-48 39,-88 88,-88 49,0 88,39 88,88z"/>
  <path class="fil7" d="M11779 1673c0,48 -39,88 -88,88 -48,0 -88,-39 -88,-88 0,-48 39,-88 88,-88 48,0 88,39 88,88z"/>
  <path class="fil7" d="M10303 2047c0,48 -39,88 -88,88 -48,0 -88,-39 -88,-88 0,-49 39,-88 88,-88 49,0 88,39 88,88z"/>
  <path class="fil7" d="M10672 2047c0,48 -39,88 -88,88 -49,0 -88,-39 -88,-88 0,-49 39,-88 88,-88 48,0 88,39 88,88z"/>
  <path class="fil7" d="M11041 2047c0,48 -39,88 -88,88 -48,0 -88,-39 -88,-88 0,-49 39,-88 88,-88 49,0 88,39 88,88z"/>
  <path class="fil7" d="M11410 2047c0,48 -39,88 -88,88 -49,0 -88,-39 -88,-88 0,-49 39,-88 88,-88 49,0 88,39 88,88z"/>
  <path class="fil7" d="M11779 2047c0,48 -39,88 -88,88 -48,0 -88,-39 -88,-88 0,-49 39,-88 88,-88 48,0 88,39 88,88z"/>
  <path class="fil7" d="M10303 2422c0,49 -39,88 -88,88 -48,0 -88,-39 -88,-88 0,-48 39,-88 88,-88 49,0 88,39 88,88z"/>
  <path class="fil7" d="M10672 2422c0,49 -39,88 -88,88 -49,0 -88,-39 -88,-88 0,-48 39,-88 88,-88 48,0 88,39 88,88z"/>
  <path class="fil7" d="M11041 2422c0,49 -39,88 -88,88 -48,0 -88,-39 -88,-88 0,-48 39,-88 88,-88 49,0 88,39 88,88z"/>
  <path class="fil7" d="M11410 2422c0,49 -39,88 -88,88 -49,0 -88,-39 -88,-88 0,-48 39,-88 88,-88 49,0 88,39 88,88z"/>
  <path class="fil7" d="M11779 2422c0,49 -39,88 -88,88 -48,0 -88,-39 -88,-88 0,-48 39,-88 88,-88 48,0 88,39 88,88z"/>
  <path class="fil8" d="M4440 1174c0,48 -39,88 -88,88 -48,0 -88,-39 -88,-88 0,-49 39,-88 88,-88 49,0 88,39 88,88z"/>
  <path class="fil8" d="M4809 1174c0,48 -39,88 -88,88 -48,0 -88,-39 -88,-88 0,-49 39,-88 88,-88 49,0 88,39 88,88z"/>
  <path class="fil8" d="M5178 1174c0,48 -39,88 -88,88 -49,0 -88,-39 -88,-88 0,-49 39,-88 88,-88 49,0 88,39 88,88z"/>
  <path class="fil8" d="M5547 1174c0,48 -39,88 -88,88 -48,0 -88,-39 -88,-88 0,-49 39,-88 88,-88 48,0 88,39 88,88z"/>
  <path class="fil8" d="M5916 1174c0,48 -39,88 -88,88 -48,0 -88,-39 -88,-88 0,-49 39,-88 88,-88 48,0 88,39 88,88z"/>
  <path class="fil8" d="M4440 1548c0,49 -39,88 -88,88 -48,0 -88,-39 -88,-88 0,-48 39,-88 88,-88 49,0 88,39 88,88z"/>
  <path class="fil8" d="M4809 1548c0,49 -39,88 -88,88 -48,0 -88,-39 -88,-88 0,-48 39,-88 88,-88 49,0 88,39 88,88z"/>
  <path class="fil8" d="M5178 1548c0,49 -39,88 -88,88 -49,0 -88,-39 -88,-88 0,-48 39,-88 88,-88 49,0 88,39 88,88z"/>
  <path class="fil8" d="M5547 1548c0,49 -39,88 -88,88 -48,0 -88,-39 -88,-88 0,-48 39,-88 88,-88 48,0 88,39 88,88z"/>
  <path class="fil8" d="M5916 1548c0,49 -39,88 -88,88 -48,0 -88,-39 -88,-88 0,-48 39,-88 88,-88 48,0 88,39 88,88z"/>
  <path class="fil8" d="M4440 88c0,49 -39,88 -88,88 -48,0 -88,-39 -88,-88 0,-48 39,-88 88,-88 49,0 88,39 88,88z"/>
  <path class="fil8" d="M4809 88c0,49 -39,88 -88,88 -48,0 -88,-39 -88,-88 0,-48 39,-88 88,-88 49,0 88,39 88,88z"/>
  <path class="fil8" d="M5178 88c0,49 -39,88 -88,88 -49,0 -88,-39 -88,-88 0,-48 39,-88 88,-88 49,0 88,39 88,88z"/>
  <path class="fil8" d="M5547 88c0,49 -39,88 -88,88 -48,0 -88,-39 -88,-88 0,-48 39,-88 88,-88 48,0 88,39 88,88z"/>
  <path class="fil8" d="M5916 88c0,49 -39,88 -88,88 -48,0 -88,-39 -88,-88 0,-48 39,-88 88,-88 48,0 88,39 88,88z"/>
  <path class="fil8" d="M4440 462c0,49 -39,88 -88,88 -48,0 -88,-39 -88,-88 0,-48 39,-88 88,-88 49,0 88,39 88,88z"/>
  <path class="fil8" d="M4809 462c0,49 -39,88 -88,88 -48,0 -88,-39 -88,-88 0,-48 39,-88 88,-88 49,0 88,39 88,88z"/>
  <path class="fil8" d="M5178 462c0,49 -39,88 -88,88 -49,0 -88,-39 -88,-88 0,-48 39,-88 88,-88 49,0 88,39 88,88z"/>
  <path class="fil8" d="M5547 462c0,49 -39,88 -88,88 -48,0 -88,-39 -88,-88 0,-48 39,-88 88,-88 48,0 88,39 88,88z"/>
  <path class="fil8" d="M5916 462c0,49 -39,88 -88,88 -48,0 -88,-39 -88,-88 0,-48 39,-88 88,-88 48,0 88,39 88,88z"/>
  <path class="fil8" d="M4440 837c0,49 -39,88 -88,88 -48,0 -88,-39 -88,-88 0,-49 39,-88 88,-88 49,0 88,39 88,88z"/>
  <path class="fil8" d="M4809 837c0,49 -39,88 -88,88 -48,0 -88,-39 -88,-88 0,-49 39,-88 88,-88 49,0 88,39 88,88z"/>
  <path class="fil8" d="M5178 837c0,49 -39,88 -88,88 -49,0 -88,-39 -88,-88 0,-49 39,-88 88,-88 49,0 88,39 88,88z"/>
  <path class="fil8" d="M5547 837c0,49 -39,88 -88,88 -48,0 -88,-39 -88,-88 0,-49 39,-88 88,-88 48,0 88,39 88,88z"/>
  <path class="fil8" d="M5916 837c0,49 -39,88 -88,88 -48,0 -88,-39 -88,-88 0,-49 39,-88 88,-88 48,0 88,39 88,88z"/>
 </g>
</svg>
