<?xml version="1.0" encoding="UTF-8"?>
<!DOCTYPE svg PUBLIC "-//W3C//DTD SVG 1.1//EN" "http://www.w3.org/Graphics/SVG/1.1/DTD/svg11.dtd">
<!-- Creator: CorelDRAW X6 -->
<svg xmlns="http://www.w3.org/2000/svg" xml:space="preserve" width="259.526mm" height="77.1017mm" version="1.1" style="shape-rendering:geometricPrecision; text-rendering:geometricPrecision; image-rendering:optimizeQuality; fill-rule:evenodd; clip-rule:evenodd"
viewBox="0 0 24208 7192"
 xmlns:xlink="http://www.w3.org/1999/xlink">
 <defs>
  <style type="text/css">
   <![CDATA[
    .str0 {stroke:#003450;stroke-width:7.85388;stroke-linecap:round;stroke-linejoin:round}
    .str9 {stroke:#1F2C3E;stroke-width:7.85388;stroke-linecap:round;stroke-linejoin:round}
    .str20 {stroke:#232426;stroke-width:7.85388;stroke-linecap:round;stroke-linejoin:round}
    .str2 {stroke:#B4C2C8;stroke-width:7.85388;stroke-linecap:round;stroke-linejoin:round}
    .str10 {stroke:#C27B5B;stroke-width:7.85388;stroke-linecap:round;stroke-linejoin:round}
    .str5 {stroke:white;stroke-width:7.85388}
    .str21 {stroke:white;stroke-width:7.85388;stroke-linecap:round}
    .str1 {stroke:white;stroke-width:7.85388;stroke-linecap:round;stroke-linejoin:round}
    .str14 {stroke:#003450;stroke-width:8.0311;stroke-linecap:round;stroke-linejoin:round}
    .str25 {stroke:#C27B5B;stroke-width:8.0311;stroke-linecap:round;stroke-linejoin:round}
    .str24 {stroke:white;stroke-width:8.0311;stroke-linecap:round;stroke-linejoin:round}
    .str22 {stroke:#FFC900;stroke-width:15.2134;stroke-linecap:round;stroke-linejoin:round}
    .str13 {stroke:white;stroke-width:15.2134;stroke-linecap:round;stroke-linejoin:round}
    .str6 {stroke:#003450;stroke-width:15.7078}
    .str4 {stroke:#003450;stroke-width:15.7078;stroke-linecap:round;stroke-linejoin:round}
    .str17 {stroke:#375A86;stroke-width:15.7078}
    .str12 {stroke:#F2BF24;stroke-width:15.7078}
    .str11 {stroke:#F2BF24;stroke-width:15.7078;stroke-linecap:round;stroke-linejoin:round}
    .str18 {stroke:white;stroke-width:15.7078}
    .str7 {stroke:#003450;stroke-width:31.4062}
    .str8 {stroke:#003450;stroke-width:31.4062;stroke-linecap:round}
    .str16 {stroke:#375A86;stroke-width:31.4062}
    .str19 {stroke:#375A86;stroke-width:31.4062;stroke-linecap:round}
    .str23 {stroke:white;stroke-width:31.4062}
    .str3 {stroke:white;stroke-width:70.4517}
    .str15 {stroke:#003450;stroke-width:8.0311;stroke-linecap:round;stroke-linejoin:round;stroke-dasharray:63.204134 63.204134}
    .fil3 {fill:none;fill-rule:nonzero}
    .fil5 {fill:#003450;fill-rule:nonzero}
    .fil6 {fill:#004869;fill-rule:nonzero}
    .fil12 {fill:#1D1D1B;fill-rule:nonzero}
    .fil17 {fill:#1F2C3E;fill-rule:nonzero}
    .fil26 {fill:#375A86;fill-rule:nonzero}
    .fil7 {fill:#3B9CFD;fill-rule:nonzero}
    .fil25 {fill:#51AEFF;fill-rule:nonzero}
    .fil22 {fill:#8FBED1;fill-rule:nonzero}
    .fil24 {fill:#997900;fill-rule:nonzero}
    .fil31 {fill:#A7BBC9;fill-rule:nonzero}
    .fil4 {fill:#A85B52;fill-rule:nonzero}
    .fil13 {fill:#A8D2E6;fill-rule:nonzero}
    .fil19 {fill:#B0A948;fill-rule:nonzero}
    .fil29 {fill:#B0B322;fill-rule:nonzero}
    .fil23 {fill:#C5C831;fill-rule:nonzero}
    .fil21 {fill:#C87B72;fill-rule:nonzero}
    .fil14 {fill:#D45752;fill-rule:nonzero}
    .fil32 {fill:#D6D3D0;fill-rule:nonzero}
    .fil30 {fill:#D8DB40;fill-rule:nonzero}
    .fil15 {fill:#DB9C1F;fill-rule:nonzero}
    .fil0 {fill:#E0EFFF;fill-rule:nonzero}
    .fil10 {fill:#E75E54;fill-rule:nonzero}
    .fil28 {fill:#E89F48;fill-rule:nonzero}
    .fil20 {fill:#EA5940;fill-rule:nonzero}
    .fil27 {fill:#F2BF24;fill-rule:nonzero}
    .fil2 {fill:#F3B162;fill-rule:nonzero}
    .fil33 {fill:#F5A974;fill-rule:nonzero}
    .fil16 {fill:#F9AE8F;fill-rule:nonzero}
    .fil18 {fill:#FCC53D;fill-rule:nonzero}
    .fil9 {fill:#FF6862;fill-rule:nonzero}
    .fil11 {fill:#FF7B00;fill-rule:nonzero}
    .fil8 {fill:#FFC900;fill-rule:nonzero}
    .fil1 {fill:white;fill-rule:nonzero}
   ]]>
  </style>
 </defs>
 <g id="Layer_x0020_1">
  <metadata id="CorelCorpID_0Corel-Layer"/>
  <g id="_965376496">
   <path class="fil0" d="M368 7084c9,36 15,72 19,108l22968 0c325,-409 576,-892 721,-1368 103,-337 160,-693 117,-1043 -78,-636 -480,-1194 -970,-1606 -490,-412 -1069,-702 -1630,-1012 -893,-493 -1585,-1310 -2580,-1603 -815,-240 -1592,-397 -2406,-35 -742,330 -1309,948 -2055,1276 -297,131 -564,264 -884,138 -409,-161 -794,-487 -1163,-723 -311,-199 -633,-402 -997,-462 -763,-126 -1468,396 -2218,581 -783,193 -1062,82 -1798,-249 -851,-382 -1871,-605 -2694,-167 -609,324 -1014,963 -1643,1246 -384,173 -818,196 -1220,323 -943,297 -1645,1173 -1858,2139 -90,408 -100,830 -44,1243 57,427 234,801 334,1213z"/>
   <path class="fil1" d="M5766 1739c95,-142 48,-360 -98,-449 -225,-137 -597,89 -507,361 84,252 459,309 605,88z"/>
   <path class="fil1" d="M4714 1937c15,30 22,66 24,104 3,83 -106,135 -181,117 -86,-20 -133,-134 -89,-211 28,-49 86,-75 142,-73 53,2 85,27 105,64z"/>
   <path class="fil0" d="M14675 932c51,-116 54,-248 39,-374 -14,-111 -42,-224 -104,-317 -368,-556 -1315,-57 -1200,549 108,569 1029,675 1265,142z"/>
   <path class="fil1" d="M23374 4775c95,-142 48,-360 -98,-449 -225,-137 -597,89 -507,361 84,252 459,309 605,88z"/>
   <polygon class="fil2" points="5943,7180 7087,7180 7087,6752 5943,6752 "/>
   <line class="fil3 str0" x1="5943" y1="6886" x2="7087" y2= "6886" />
   <polygon class="fil4" points="7149,7180 8292,7180 8292,6752 7149,6752 "/>
   <line class="fil3 str0" x1="7149" y1="6886" x2="8292" y2= "6886" />
   <polygon class="fil5" points="7201,7012 7371,7012 7371,6942 7201,6942 "/>
   <path class="fil6" d="M8660 6479c-5,-1 -11,1 -14,5 -11,17 -44,59 -120,114 -99,73 -161,94 -159,129 1,35 101,36 215,0 114,-36 346,-185 346,-185 0,0 18,-34 8,-82 -1,-7 -9,-10 -14,-7 -22,13 -75,39 -130,42 -57,3 -111,-10 -132,-16z"/>
   <polygon class="fil6" points="8928,6542 8939,6753 8806,6753 8840,6596 "/>
   <path class="fil3 str1" d="M8853 6585c22,-13 43,-26 63,-41"/>
   <path class="fil3 str1" d="M8823 6719c21,-3 42,-4 63,-3 15,0 29,2 44,-1"/>
   <path class="fil3 str1" d="M8383 6712c17,10 37,13 57,15 47,4 94,0 139,-10"/>
   <polygon class="fil2" points="8347,7180 9490,7180 9490,6752 8347,6752 "/>
   <line class="fil3 str0" x1="8347" y1="6886" x2="9490" y2= "6886" />
   <polygon class="fil5" points="8399,7012 8569,7012 8569,6942 8399,6942 "/>
   <path class="fil6" d="M9183 6479c-5,-1 -11,1 -14,5 -11,17 -44,59 -120,114 -99,73 -161,94 -159,129 1,35 101,36 215,0 114,-36 346,-185 346,-185 0,0 18,-34 8,-82 -1,-7 -9,-10 -14,-7 -22,13 -75,39 -130,42 -57,3 -111,-10 -132,-16z"/>
   <polygon class="fil6" points="9451,6542 9462,6753 9329,6753 9363,6596 "/>
   <path class="fil3 str1" d="M9376 6585c22,-13 43,-26 63,-41"/>
   <path class="fil3 str1" d="M9346 6719c21,-3 42,-4 63,-3 15,0 29,2 44,-1"/>
   <path class="fil3 str1" d="M8906 6712c17,10 37,13 57,15 47,4 94,0 139,-10"/>
   <path class="fil7" d="M6486 5689l512 0c25,0 46,21 46,46l0 613c0,25 -21,46 -46,46l-512 0c-25,0 -46,-21 -46,-46l0 -613c0,-25 21,-46 46,-46z"/>
   <path class="fil6" d="M6533 6255l0 -427c0,-30 25,-55 55,-55l307 0c30,0 55,25 55,55l0 427c0,30 -25,55 -55,55l-307 0c-30,0 -55,-25 -55,-55z"/>
   <path class="fil8" d="M6296 5846l331 0c25,0 46,21 46,46l0 455c0,25 -21,46 -46,46l-331 0c-25,0 -46,-21 -46,-46l0 -455c0,-25 21,-46 46,-46z"/>
   <path class="fil1" d="M6315 6273l0 -307c0,-30 25,-55 55,-55l182 0c30,0 55,25 55,55l0 307c0,30 -25,55 -55,55l-182 0c-30,0 -55,-25 -55,-55z"/>
   <path class="fil6" d="M6363 5953c0,-243 -145,-440 -324,-440 -179,0 -324,197 -324,440 0,243 145,440 324,440 179,0 324,-197 324,-440z"/>
   <path class="fil7" d="M6039 6328c-140,0 -258,-172 -258,-375 0,-203 118,-375 258,-375 140,0 258,172 258,375 0,203 -118,375 -258,375z"/>
   <line class="fil3 str1" x1="6061" y1="5671" x2="5878" y2= "5864" />
   <line class="fil3 str1" x1="6034" y1="5775" x2="5851" y2= "5968" />
   <line class="fil3 str1" x1="6231" y1="5893" x2="6048" y2= "6086" />
   <line class="fil3 str1" x1="6204" y1="5997" x2="6021" y2= "6190" />
   <path class="fil5" d="M6217 6323c0,0 49,58 27,71 -23,13 -60,-46 -60,-46l33 -25z"/>
   <path class="fil5" d="M5862 6323c0,0 -49,58 -27,71 23,13 60,-46 60,-46l-33 -25z"/>
   <path class="fil1" d="M8639 5945c0,12 5,19 5,19 0,0 467,0 468,0 4,0 6,-9 6,-19 1,-9 0,-19 0,-21 0,-25 -3,-50 -7,-76 -3,-17 -6,-75 -10,-91 -3,-14 -5,-31 -19,-28 -50,49 -113,-39 -154,-2 0,0 -11,16 -50,51 -39,35 -81,41 -137,64 -73,30 -98,72 -102,93 -1,3 -1,6 -1,9z"/>
   <path class="fil5" d="M8639 5945c0,12 5,19 5,19 0,0 467,0 468,0 4,0 6,-9 6,-19l-479 0z"/>
   <path class="fil3 str2" d="M8866 5795c7,9 14,19 22,28"/>
   <path class="fil3 str2" d="M8839 5812c7,9 14,19 22,28"/>
   <path class="fil3 str2" d="M8809 5822c7,9 14,19 22,28"/>
   <path class="fil3 str2" d="M8778 5833c7,9 14,19 22,28"/>
   <path class="fil3 str2" d="M9097 5807c-38,28 -61,76 -59,124"/>
   <path class="fil3 str2" d="M8715 5864c24,16 41,43 44,71"/>
   <path class="fil1" d="M9242 5945c0,12 5,19 5,19 0,0 467,0 468,0 4,0 6,-9 6,-19 1,-9 0,-19 0,-21 0,-25 -3,-50 -7,-76 -3,-17 -6,-75 -10,-91 -3,-14 -5,-31 -19,-28 -50,49 -114,-39 -154,-2 0,0 -11,16 -50,51 -39,35 -81,41 -137,64 -73,30 -98,72 -102,93 -1,3 -1,6 -1,9z"/>
   <path class="fil5" d="M9242 5945c0,12 5,19 5,19 0,0 467,0 468,0 4,0 6,-9 6,-19l-479 0z"/>
   <path class="fil3 str2" d="M9469 5795c7,9 14,19 22,28"/>
   <path class="fil3 str2" d="M9442 5812c7,9 14,19 22,28"/>
   <path class="fil3 str2" d="M9411 5822c7,9 14,19 22,28"/>
   <path class="fil3 str2" d="M9381 5833c7,9 14,19 22,28"/>
   <path class="fil3 str2" d="M9699 5807c-38,28 -61,76 -59,124"/>
   <path class="fil3 str2" d="M9318 5864c24,16 41,43 44,71"/>
   <polygon class="fil8" points="8608,6390 9752,6390 9752,5962 8608,5962 "/>
   <polygon class="fil9" points="8608,6323 9021,6323 9021,6201 8608,6201 "/>
   <polygon class="fil9" points="9316,6325 9745,6325 9745,6199 9316,6199 "/>
   <line class="fil3 str0" x1="8608" y1="6096" x2="9752" y2= "6096" />
   <polyline class="fil3 str3" points="8170,5871 8170,6349 8478,6349 "/>
   <polyline class="fil3 str3" points="7608,5871 7608,6349 7301,6349 "/>
   <polygon class="fil8" points="7890,6386 8122,6386 8122,5522 7890,5522 "/>
   <line class="fil3 str0" x1="8100" y1="5688" x2="7912" y2= "5688" />
   <line class="fil3 str0" x1="8100" y1="5773" x2="7912" y2= "5773" />
   <polygon class="fil10" points="7651,6386 7883,6386 7883,5522 7651,5522 "/>
   <line class="fil3 str0" x1="7867" y1="6269" x2="7667" y2= "6269" />
   <line class="fil3 str0" x1="7867" y1="5721" x2="7667" y2= "5721" />
   <line class="fil3 str0" x1="7867" y1="6208" x2="7667" y2= "6208" />
   <path class="fil7" d="M9587 2961l155 2187 -333 35 -136 -1515c0,-4 -6,-4 -6,0l-185 1489 -325 -38 198 -2158 632 0z"/>
   <path class="fil3 str1" d="M9297 3003c0,-10 -8,-18 -18,-18 -10,0 -18,8 -18,18 0,10 8,18 18,18 10,0 18,-8 18,-18z"/>
   <line class="fil3 str1" x1="9577" y1="3046" x2="8960" y2= "3046" />
   <path class="fil3 str1" d="M9471 3056c2,42 9,85 29,123 20,38 52,70 93,82"/>
   <path class="fil3 str1" d="M9313 2967c8,77 10,154 8,231 -1,20 -2,40 -11,58 -9,18 -30,32 -52,34"/>
   <line class="fil3 str1" x1="9244" y1="2967" x2="9268" y2= "3646" />
   <path class="fil3 str4" d="M9212 2778c0,0 -3,-107 79,-107 59,0 78,51 64,95 -15,48 -87,86 -84,167"/>
   <line class="fil3 str4" x1="9599" y1="2925" x2="8942" y2= "2925" />
   <polygon class="fil5" points="9490,2978 9530,2978 9530,2891 9490,2891 "/>
   <polygon class="fil5" points="8987,2978 9027,2978 9027,2891 8987,2891 "/>
   <path class="fil11" d="M8928 2932l174 742c0,0 -131,111 -477,111 -346,0 -476,-119 -476,-119l192 -734 588 0z"/>
   <line class="fil3 str5" x1="8647" y1="2939" x2="8647" y2= "3777" />
   <path class="fil3 str5" d="M8940 2986c0,0 -67,45 -293,45 -227,0 -319,-54 -319,-54"/>
   <path class="fil3 str5" d="M8885 3094c5,-1 9,1 11,6 12,34 53,174 -36,195 -89,21 -127,-113 -136,-148 -1,-5 2,-9 6,-11l155 -42z"/>
   <line class="fil3 str5" x1="8907" y1="3140" x2="8736" y2= "3188" />
   <path class="fil3 str5" d="M8370 3094c-4,-1 -9,1 -11,6 -12,34 -53,174 36,195 89,21 127,-113 136,-148 1,-5 -2,-9 -6,-11l-155 -42z"/>
   <line class="fil3 str5" x1="8347" y1="3140" x2="8519" y2= "3188" />
   <path class="fil1" d="M8616 2986c0,-7 -6,-14 -14,-14 -8,0 -14,6 -14,14 0,8 6,14 14,14 7,0 14,-6 14,-14z"/>
   <path class="fil1" d="M8616 3144c0,-7 -6,-14 -14,-14 -8,0 -14,6 -14,14 0,8 6,14 14,14 7,0 14,-6 14,-14z"/>
   <path class="fil1" d="M8616 3303c0,-8 -6,-14 -14,-14 -8,0 -14,6 -14,14 0,8 6,14 14,14 7,0 14,-6 14,-14z"/>
   <path class="fil1" d="M8616 3461c0,-8 -6,-14 -14,-14 -8,0 -14,6 -14,14 0,7 6,14 14,14 7,0 14,-6 14,-14z"/>
   <path class="fil1" d="M8616 3619c0,-7 -6,-14 -14,-14 -8,0 -14,6 -14,14 0,8 6,14 14,14 7,0 14,-6 14,-14z"/>
   <path class="fil3 str6" d="M8588 2790c0,0 -3,-107 79,-107 59,0 78,51 64,95 -15,48 -84,75 -84,128"/>
   <line class="fil3 str6" x1="8975" y1="2899" x2="8318" y2= "2899" />
   <polygon class="fil12" points="8865,2952 8906,2952 8906,2865 8865,2865 "/>
   <polygon class="fil12" points="8362,2952 8403,2952 8403,2865 8362,2865 "/>
   <path class="fil13" d="M8138 2985c0,0 -169,60 -327,0l8 149 291 0 28 -149z"/>
   <path class="fil3 str4" d="M7897 2775c0,0 -3,-116 85,-116 64,0 84,55 69,102 -16,51 -85,47 -80,170 0,0 -513,230 -511,297 3,67 1008,80 1008,9 0,-71 -497,-306 -497,-306"/>
   <path class="fil1" d="M8653 3582c0,0 -182,-501 -242,-556 -61,-55 -273,-42 -273,-42 -47,99 -163,82 -163,82 0,0 -116,17 -163,-82 0,0 -213,-13 -273,42 -61,55 -242,556 -242,556l262 99 -34 842c0,0 202,47 451,47 249,0 451,-47 451,-47l-34 -842 262 -99z"/>
   <line class="fil3 str0" x1="7558" y1="3681" x2="7578" y2= "3335" />
   <line class="fil3 str0" x1="8391" y1="3681" x2="8350" y2= "3335" />
   <path class="fil3 str0" d="M8343 3823c-74,141 -214,234 -349,320"/>
   <path class="fil3 str0" d="M7625 3387c61,95 138,180 226,250"/>
   <path class="fil3 str7" d="M9891 7161l0 -4156c0,-301 -244,-544 -544,-544l-3737 0c-301,0 -544,244 -544,544l0 4156"/>
   <line class="fil3 str7" x1="4845" y1="7161" x2="5286" y2= "7161" />
   <line class="fil3 str7" x1="9671" y1="7161" x2="10112" y2= "7161" />
   <line class="fil3 str8" x1="5133" y1="2738" x2="9822" y2= "2738" />
   <path class="fil6" d="M7561 2961l155 2187 -333 35 -136 -1515c0,-4 -6,-4 -6,0l-185 1489 -325 -38 198 -2158 632 0z"/>
   <path class="fil6" d="M6703 5099l-5 88c0,5 3,9 8,10l353 38c5,1 9,-3 10,-8l13 -84c1,-5 -3,-10 -8,-10l-361 -41c-5,-1 -10,3 -10,9z"/>
   <path class="fil3 str5" d="M6703 5099l-5 88c0,5 3,9 8,10l353 38c5,1 9,-3 10,-8l13 -84c1,-5 -3,-10 -8,-10l-361 -41c-5,-1 -10,3 -10,9z"/>
   <path class="fil6" d="M7736 5099l5 88c0,5 -3,9 -8,10l-353 38c-5,1 -9,-3 -10,-8l-13 -84c-1,-5 3,-10 8,-10l361 -41c5,-1 10,3 10,9z"/>
   <path class="fil3 str5" d="M7736 5099l5 88c0,5 -3,9 -8,10l-353 38c-5,1 -9,-3 -10,-8l-13 -84c-1,-5 3,-10 8,-10l361 -41c5,-1 10,3 10,9z"/>
   <path class="fil3 str1" d="M7272 3003c0,-10 -8,-18 -18,-18 -10,0 -18,8 -18,18 0,10 8,18 18,18 10,0 18,-8 18,-18z"/>
   <line class="fil3 str1" x1="7551" y1="3046" x2="6934" y2= "3046" />
   <path class="fil3 str1" d="M7445 3056c2,42 9,85 29,123 20,38 52,70 93,82"/>
   <path class="fil3 str1" d="M7287 2967c8,77 10,154 8,231 -1,20 -2,40 -11,58 -9,18 -30,32 -52,34"/>
   <line class="fil3 str1" x1="7218" y1="2967" x2="7242" y2= "3646" />
   <path class="fil3 str1" d="M7559 4091c9,83 -28,156 -83,162 -55,6 -108,-56 -117,-139 -9,-83 28,-156 83,-162 55,-6 108,56 117,139z"/>
   <path class="fil3 str1" d="M6898 4091c-9,83 28,156 83,162 55,6 108,-56 117,-139 9,-83 -28,-156 -83,-162 -55,-6 -108,56 -117,139z"/>
   <path class="fil3 str4" d="M7186 2778c0,0 -3,-107 79,-107 59,0 78,51 64,95 -15,48 -87,86 -84,167"/>
   <line class="fil3 str4" x1="7573" y1="2925" x2="6917" y2= "2925" />
   <polygon class="fil5" points="7464,2978 7504,2978 7504,2891 7464,2891 "/>
   <polygon class="fil5" points="6961,2978 7001,2978 7001,2891 6961,2891 "/>
   <path class="fil14" d="M5902 2985c0,0 -169,60 -327,0l8 149 291 0 28 -149z"/>
   <path class="fil3 str4" d="M5661 2775c0,0 -3,-116 85,-116 64,0 84,55 69,102 -16,51 -85,47 -80,170 0,0 -513,230 -511,297 3,67 1008,80 1008,9 0,-71 -497,-306 -497,-306"/>
   <path class="fil9" d="M6417 3582c0,0 -182,-501 -242,-556 -61,-55 -273,-42 -273,-42 -47,99 -163,82 -163,82 0,0 -116,17 -163,-82 0,0 -213,-13 -273,42 -61,55 -242,556 -242,556l262 99 -34 842c0,0 202,47 451,47 249,0 451,-47 451,-47l-34 -842 262 -99z"/>
   <line class="fil3 str0" x1="5321" y1="3681" x2="5342" y2= "3335" />
   <line class="fil3 str0" x1="6155" y1="3681" x2="6114" y2= "3335" />
   <path class="fil3 str0" d="M6107 3823c-74,141 -214,234 -349,320"/>
   <path class="fil3 str0" d="M5388 3387c61,95 138,180 226,250"/>
   <path class="fil15" d="M6746 2996c0,0 -144,101 -447,0l223 508 55 0 168 -508z"/>
   <path class="fil3 str4" d="M6470 2775c0,0 -3,-116 85,-116 64,0 84,55 69,102 -16,51 -85,47 -80,170 0,0 -513,230 -511,297 3,67 1008,80 1008,9 0,-71 -497,-306 -497,-306"/>
   <path class="fil8" d="M6299 2996c0,0 161,311 251,479 138,-263 158,-347 196,-479 0,0 132,48 201,124l-161 799c0,0 120,173 254,1228 0,0 -207,117 -554,117 -347,0 -505,-129 -505,-129 0,0 122,-840 331,-1233l-174 -822c0,0 16,-9 162,-85z"/>
   <path class="fil3 str0" d="M6312 3023c0,0 413,773 430,910 17,137 17,1265 17,1265"/>
   <path class="fil3 str0" d="M6551 3475c0,0 130,-242 195,-469"/>
   <path class="fil3 str0" d="M6654 3938c0,0 -144,30 -343,-36"/>
   <path class="fil9" d="M6718 3934c0,-10 -8,-18 -18,-18 -10,0 -18,8 -18,18 0,10 8,18 18,18 10,0 18,-8 18,-18z"/>
   <path class="fil16" d="M9361 3023c-29,10 -59,19 -89,25 -60,12 -122,9 -183,9 -19,0 -36,-4 -55,-3 -25,2 -51,2 -76,0 -31,-3 -61,-12 -88,-28 -8,-5 -22,-13 -11,-23 10,-9 31,-2 42,0 15,2 29,4 44,6 3,0 7,1 10,0 3,-1 6,-5 5,-8 -1,-3 -4,-4 -6,-6 -54,-25 -121,-37 -158,-88 -1,-2 -3,-4 -3,-6 0,-5 7,-6 12,-6 26,1 50,14 73,24 24,10 51,18 75,9 0,-8 -9,-12 -16,-15 -46,-17 -96,-34 -124,-74 -4,-5 -6,-14 0,-17 2,-1 5,0 8,1 48,17 92,48 143,53 3,0 7,0 8,-3 1,-3 -2,-5 -4,-7 -26,-21 -56,-40 -75,-67 -2,-3 -4,-6 -4,-9 -3,-19 27,-1 33,3 40,24 81,48 126,61 16,5 36,9 49,0 -12,-20 -24,-39 -37,-59 -3,-5 -7,-11 -7,-17 0,-6 4,-13 10,-12 3,0 6,2 9,4 46,33 90,70 140,95 50,26 109,40 164,25 5,18 -4,56 -6,75 -2,22 -17,38 -9,59z"/>
   <path class="fil16" d="M10328 3998c-65,48 -157,148 -205,213 -30,40 -79,106 -82,157 28,8 87,-62 107,-79 -22,33 -35,70 -40,109 -1,10 -2,19 -3,29 0,6 -5,21 5,19 11,-2 17,-22 22,-30 9,-14 19,-28 28,-43 9,-14 19,-28 28,-43 9,-13 21,-27 27,-41 -16,36 -28,74 -32,113 -1,9 -6,47 4,51 15,6 24,-36 27,-43 8,-25 21,-48 38,-68 5,-6 10,-12 16,-18 5,-5 13,-9 15,-16 -9,26 -9,56 -11,84 0,6 0,13 5,17 5,3 12,1 16,-4 4,-4 5,-10 7,-16 18,-75 64,-201 110,-264 -16,-54 -35,-98 -82,-128z"/>
   <polygon class="fil16" points="10952,6738 10929,6902 10740,6902 10747,6733 "/>
   <path class="fil6" d="M10290 7152c0,16 7,26 7,26 0,0 678,0 680,0 6,0 8,-13 9,-26 1,-13 1,-26 1,-29 1,-35 -5,-70 -10,-105 -4,-24 -9,-104 -14,-126 -4,-19 -8,-43 -27,-39 -72,68 -165,-54 -224,-3 0,0 -16,22 -73,71 -57,49 -117,56 -199,89 -106,42 -142,100 -148,129 -1,4 -1,8 -1,12z"/>
   <path class="fil17" d="M10290 7152c0,16 7,26 7,26 0,0 678,0 680,0 6,0 8,-13 9,-26l-696 0z"/>
   <path class="fil3 str1" d="M10621 6945c10,13 21,26 31,39"/>
   <path class="fil3 str1" d="M10582 6968c10,13 21,26 31,39"/>
   <path class="fil3 str1" d="M10537 6983c10,13 21,26 31,39"/>
   <path class="fil3 str1" d="M10492 6997c10,13 21,26 31,39"/>
   <polygon class="fil16" points="11858,6619 11884,6782 11703,6834 11660,6670 "/>
   <path class="fil6" d="M11310 7156c4,16 13,24 13,24 0,0 664,-134 665,-134 6,-1 5,-14 3,-27 -2,-13 -5,-25 -6,-29 -7,-35 -20,-67 -33,-100 -9,-23 -31,-100 -41,-121 -8,-18 -17,-40 -35,-33 -56,80 -173,-21 -220,42 0,0 -11,25 -56,84 -45,59 -102,78 -176,126 -94,62 -117,126 -117,156 0,4 1,8 1,12z"/>
   <path class="fil17" d="M11310 7156c4,16 13,24 13,24 0,0 664,-134 665,-134 6,-1 5,-14 3,-27l-681 138z"/>
   <path class="fil3 str1" d="M11588 6888c13,11 26,21 39,32"/>
   <path class="fil3 str1" d="M11555 6918c13,11 26,21 39,32"/>
   <path class="fil3 str1" d="M11514 6941c13,11 26,21 39,32"/>
   <path class="fil3 str1" d="M11474 6965c13,11 26,21 39,32"/>
   <path class="fil6" d="M11642 3689c0,0 134,386 -12,1562l272 1419 -296 69c0,0 -451,-1129 -487,-1363 -36,-235 -77,-1246 -77,-1246l599 -440z"/>
   <path class="fil6" d="M10685 6781l304 9c0,0 105,-398 188,-1576l465 -1525 -818 0c0,0 -130,1129 -159,1686 -28,557 20,1406 20,1406z"/>
   <path class="fil3 str1" d="M11149 5495l-29 -120c0,0 -95,-264 56,-961"/>
   <path class="fil3 str1" d="M11444 3997c0,0 37,203 216,218"/>
   <path class="fil3 str1" d="M11641 4251c0,0 -60,768 -89,1000l303 1407"/>
   <path class="fil3 str1" d="M11105 5476c0,0 -36,649 -151,1289"/>
   <path class="fil5" d="M11376 2101c0,0 39,34 87,0 48,-34 115,-147 79,-329 -36,-182 -176,-160 -176,-160l11 489z"/>
   <path class="fil16" d="M11406 2022c5,16 -17,370 -17,370l-201 141 -122 -84 46 -310 294 -116z"/>
   <path class="fil16" d="M11085 2222c43,15 94,15 144,3 40,-9 78,-24 114,-43 10,-5 36,-28 47,-28l8 -31 43 -162 23 -87c0,0 54,-154 -98,-213 -111,-43 -222,-45 -289,2 -24,17 -43,41 -52,72l-35 144 -3 12 -9 38 -3 13c-13,58 -7,129 15,185 20,49 54,79 95,94z"/>
   <path class="fil16" d="M11405 1945c0,0 55,-60 87,8 26,56 -49,168 -111,110l25 -118z"/>
   <path class="fil17" d="M11230 1871c-3,14 1,27 10,29 8,2 18,-9 21,-23 3,-14 -1,-27 -10,-29 -8,-2 -18,9 -21,23z"/>
   <path class="fil17" d="M11081 1845c-3,14 1,27 10,29 8,2 18,-9 21,-23 3,-14 -1,-27 -10,-29 -8,-2 -18,9 -21,23z"/>
   <path class="fil5" d="M11307 1847c4,4 10,8 16,6 3,-1 5,-5 5,-9 0,-3 -1,-7 -3,-10 -10,-21 -28,-39 -50,-50 -7,-3 -21,-8 -27,0 -7,8 1,12 7,17 17,15 34,31 51,46z"/>
   <path class="fil5" d="M11132 1788c6,-1 13,-2 15,-8 1,-3 -1,-7 -4,-9 -3,-2 -6,-4 -10,-5 -24,-7 -49,-5 -72,5 -7,3 -20,10 -17,20 2,10 10,6 18,5 23,-3 46,-5 69,-8z"/>
   <path class="fil3 str9" d="M11162 1850c-23,48 -43,97 -59,147 -1,3 -2,6 -1,9 4,11 25,3 31,12"/>
   <path class="fil3 str10" d="M11139 2108c44,4 89,-18 111,-54"/>
   <path class="fil3 str10" d="M11425 1996c2,-11 9,-21 18,-28 9,-7 21,-11 32,-12"/>
   <path class="fil3 str10" d="M11445 1971c11,10 19,24 20,39"/>
   <path class="fil5" d="M11465 1914c-14,0 -27,-4 -34,-15 -11,-19 -19,-41 -21,-64 -4,-36 7,-78 0,-113 -9,-45 -54,-57 -93,-60 -76,-8 -145,2 -214,38 -24,12 -49,28 -76,22 -37,-8 -73,-44 -93,-74 -25,-36 -45,-81 -45,-126 0,-25 13,-55 33,-71 12,-9 71,-10 69,-7 27,-34 72,-52 114,-45 43,6 81,36 97,76 53,-30 119,-35 176,-15 39,14 74,41 99,74 10,14 26,34 32,50 2,5 3,54 -4,51 64,30 63,117 56,177 -3,28 -5,63 -31,80 -15,10 -43,21 -66,22z"/>
   <path class="fil3 str10" d="M11102 2227c0,0 87,44 241,-45"/>
   <path class="fil8" d="M9249 2866c31,-17 84,-38 122,-35l656 19 866 -488c85,-48 194,-21 245,60 50,81 22,185 -63,233l-915 516c-28,16 -59,24 -91,24 -5,0 -10,0 -15,-1l-714 -56c-50,-4 -94,-58 -124,-92 53,-77 45,-87 33,-179z"/>
   <path class="fil8" d="M11404 2361c64,2 129,7 192,18 46,8 71,19 104,55 30,32 54,71 68,113 23,67 23,140 21,210 -6,197 -23,394 -53,589 -24,159 -28,321 -40,482 -2,24 -4,47 -6,71 0,0 -269,162 -895,47 0,0 -154,-346 -62,-1148 0,0 123,-427 198,-444 75,-17 112,0 112,0 0,0 21,114 133,120 112,6 228,-114 228,-114z"/>
   <path class="fil8" d="M10291 4029c4,-51 72,-143 120,-174l693 -440c0,0 352,-919 352,-920 30,-78 110,-121 190,-99 15,4 28,15 39,26 77,74 107,188 69,287 -15,40 -31,80 -46,120 -39,102 -78,205 -118,307 -57,148 -113,296 -170,444 0,1 -1,2 -1,3 -13,34 -37,63 -69,83l-764 464c-113,41 -183,19 -197,15 -11,-74 -22,-93 -98,-117z"/>
   <polyline class="fil3 str0" points="10742,3645 11104,3415 11353,2766 "/>
   <path class="fil3 str0" d="M10891 3946l460 -279c0,0 40,-7 93,-147 53,-139 205,-534 205,-534"/>
   <path class="fil3 str0" d="M10729 2845c5,-84 16,-167 33,-250"/>
   <polygon class="fil4" points="3643,5586 5002,5586 5002,4268 3643,4268 "/>
   <polygon class="fil6" points="3709,5520 4935,5520 4935,4334 3709,4334 "/>
   <path class="fil18" d="M4744 4515c0,-14 11,-25 25,-25 14,0 25,11 25,25 0,14 -11,25 -25,25 -14,0 -25,-11 -25,-25z"/>
   <path class="fil18" d="M4678 4515c0,-14 11,-25 25,-25 14,0 25,11 25,25 0,14 -11,25 -25,25 -14,0 -25,-11 -25,-25z"/>
   <path class="fil19" d="M4291 4970c0,-16 13,-30 30,-30 16,0 30,13 30,30 0,16 -13,30 -30,30 -16,0 -30,-13 -30,-30z"/>
   <path class="fil19" d="M4213 4970c0,-16 13,-30 30,-30 16,0 30,13 30,30 0,16 -13,30 -30,30 -16,0 -30,-13 -30,-30z"/>
   <path class="fil7" d="M4273 4530c0,-19 16,-35 35,-35 19,0 35,16 35,35 0,19 -16,35 -35,35 -19,0 -35,-16 -35,-35z"/>
   <path class="fil7" d="M4181 4530c0,-19 16,-35 35,-35 19,0 35,16 35,35 0,19 -16,35 -35,35 -19,0 -35,-16 -35,-35z"/>
   <path class="fil18" d="M4744 4841c0,-14 11,-25 25,-25 14,0 25,11 25,25 0,14 -11,25 -25,25 -14,0 -25,-11 -25,-25z"/>
   <path class="fil18" d="M4678 4841c0,-14 11,-25 25,-25 14,0 25,11 25,25 0,14 -11,25 -25,25 -14,0 -25,-11 -25,-25z"/>
   <path class="fil18" d="M4744 4699c0,-14 11,-91 25,-91 14,0 25,77 25,91 0,14 -11,25 -25,25 -14,0 -25,-11 -25,-25z"/>
   <path class="fil18" d="M4678 4699c0,-14 11,-91 25,-91 14,0 25,77 25,91 0,14 -11,25 -25,25 -14,0 -25,-11 -25,-25z"/>
   <path class="fil18" d="M4744 5007c0,-14 11,-91 25,-91 14,0 25,77 25,91 0,14 -11,91 -25,91 -14,0 -25,-77 -25,-91z"/>
   <path class="fil18" d="M4678 5007c0,-14 11,-91 25,-91 14,0 25,77 25,91 0,14 -11,91 -25,91 -14,0 -25,-77 -25,-91z"/>
   <line class="fil3 str11" x1="4703" y1="4841" x2="4703" y2= "4780" />
   <line class="fil3 str11" x1="4769" y1="4841" x2="4769" y2= "4780" />
   <path class="fil3 str12" d="M4230 5347c0,-38 31,-69 69,-69 38,0 69,31 69,69 0,38 -31,69 -69,69 -38,0 -69,-31 -69,-69z"/>
   <path class="fil3 str12" d="M4161 5347c0,-38 31,-69 69,-69 38,0 69,31 69,69 0,38 -31,69 -69,69 -38,0 -69,-31 -69,-69z"/>
   <line class="fil3 str11" x1="4230" y1="5278" x2="4230" y2= "5217" />
   <line class="fil3 str11" x1="4298" y1="5278" x2="4298" y2= "5217" />
   <path class="fil3 str12" d="M3969 4510c-4,-13 -22,-13 -26,0 -47,170 -194,763 13,763 206,0 59,-592 13,-763z"/>
   <path class="fil3 str12" d="M3970 4556c-2,-15 -24,-15 -26,0 -27,200 -79,656 13,656 92,0 40,-457 13,-656z"/>
   <path class="fil20" d="M4211 4639c18,-14 34,17 34,17 0,0 16,-31 34,-17 0,0 19,17 -34,57 -53,-40 -34,-57 -34,-57z"/>
   <path class="fil20" d="M4300 4639c18,-14 34,17 34,17 0,0 16,-31 34,-17 0,0 19,17 -34,57 -53,-40 -34,-57 -34,-57z"/>
   <path class="fil8" d="M4204 4742c-7,2 -9,26 -10,33 0,2 -1,3 -3,4 -8,1 -31,4 -32,12 -1,8 21,16 29,19 2,1 3,2 3,4 -1,8 -5,33 1,36 7,3 21,-17 26,-23 1,-2 3,-2 5,-1 7,4 29,16 34,11 5,-6 -9,-27 -14,-33 -1,-2 -1,-4 1,-5 6,-5 23,-21 20,-28 -4,-7 -27,0 -35,2 -2,0 -4,0 -4,-2 -4,-7 -13,-29 -20,-27z"/>
   <path class="fil8" d="M4350 4741c-8,-1 -17,21 -20,28 -1,2 -2,3 -4,2 -8,-1 -31,-7 -34,0 -3,7 15,22 21,27 1,1 2,3 1,5 -4,7 -16,29 -11,34 5,5 26,-9 33,-13 2,-1 4,-1 5,1 5,6 22,25 28,22 7,-4 0,-28 -2,-36 0,-2 0,-4 2,-4 7,-3 29,-12 28,-20 -1,-7 -25,-10 -33,-10 -2,0 -3,-2 -4,-3 -1,-8 -2,-31 -10,-32z"/>
   <path class="fil7" d="M4484 4559c-7,-1 -12,-8 -10,-16 1,-7 8,-12 16,-11 7,1 12,8 10,16 -1,7 -8,12 -15,11z"/>
   <path class="fil1" d="M4479 4590c-4,-1 -6,-4 -5,-8 1,-4 4,-6 8,-5 4,1 6,4 5,8 -1,4 -4,6 -8,5z"/>
   <path class="fil7" d="M4470 4638c-7,-1 -12,-8 -11,-15 1,-7 8,-12 15,-11 7,1 12,8 11,15 -1,7 -8,12 -15,11z"/>
   <path class="fil1" d="M4465 4669c-4,-1 -6,-4 -5,-8 1,-4 4,-6 8,-6 4,1 6,4 5,8 -1,4 -4,6 -8,6z"/>
   <path class="fil7" d="M4458 4718c-7,-1 -12,-8 -11,-15 1,-7 8,-12 15,-11 7,1 12,8 11,15 -1,7 -8,12 -15,11z"/>
   <path class="fil1" d="M4454 4748c-4,0 -6,-4 -6,-8 1,-4 4,-6 7,-6 4,1 6,4 6,8 -1,4 -4,6 -7,6z"/>
   <path class="fil7" d="M4447 4797c-7,-1 -12,-8 -11,-15 1,-7 8,-13 15,-12 7,1 12,8 11,15 -1,7 -7,12 -15,12z"/>
   <path class="fil1" d="M4443 4828c-4,0 -6,-4 -6,-7 0,-4 4,-6 7,-6 4,0 6,4 6,7 0,4 -4,6 -7,6z"/>
   <path class="fil7" d="M4438 4877c-7,-1 -13,-7 -12,-15 1,-7 7,-13 15,-12 7,1 12,7 12,15 -1,7 -7,13 -14,12z"/>
   <path class="fil1" d="M4435 4908c-4,0 -6,-4 -6,-7 0,-4 4,-6 7,-6 4,0 6,4 6,7 0,4 -3,6 -7,6z"/>
   <path class="fil7" d="M4432 4957c-7,0 -13,-7 -12,-14 0,-7 7,-13 14,-12 7,1 13,7 12,14 0,7 -7,13 -14,13z"/>
   <path class="fil1" d="M4430 4988c-4,0 -6,-3 -6,-7 0,-4 3,-7 7,-6 4,0 6,3 6,7 0,4 -3,7 -7,6z"/>
   <path class="fil7" d="M4429 5038c-7,0 -13,-6 -13,-14 0,-7 6,-13 13,-13 7,0 13,6 13,14 0,7 -6,13 -13,13z"/>
   <path class="fil1" d="M4430 5069c-4,0 -7,-3 -7,-7 0,-4 3,-7 6,-7 4,0 7,3 7,7 0,4 -3,7 -6,7z"/>
   <path class="fil7" d="M4433 5118c-7,1 -14,-4 -15,-12 -1,-8 5,-14 12,-15 7,0 14,5 14,12 1,7 -4,14 -12,15z"/>
   <path class="fil1" d="M4438 5148c-4,1 -7,-2 -8,-5 -1,-4 2,-7 5,-8 4,-1 7,2 8,5 1,4 -2,7 -5,8z"/>
   <path class="fil7" d="M4456 5194c-6,4 -15,2 -19,-6 -3,-8 0,-16 7,-18 7,-2 15,1 17,7 3,6 1,13 -5,17z"/>
   <path class="fil1" d="M4480 5213c-1,4 -5,6 -9,3 -4,-2 -5,-6 -3,-9 2,-3 6,-4 9,-3 2,2 4,5 3,8z"/>
   <path class="fil7" d="M4522 5196c6,4 7,13 0,20 -8,6 -18,4 -20,-3 -2,-7 -1,-14 3,-17 4,-4 12,-4 17,0z"/>
   <path class="fil1" d="M4536 5168c4,1 5,5 4,9 -2,4 -5,5 -9,4 -3,-2 -5,-5 -3,-9 1,-3 5,-5 9,-4z"/>
   <path class="fil7" d="M4548 5120c7,1 12,8 11,16 -2,8 -9,12 -16,10 -7,-2 -12,-9 -10,-16 2,-7 8,-12 15,-11z"/>
   <path class="fil1" d="M4552 5090c4,0 6,4 6,7 0,4 -4,6 -7,6 -4,0 -6,-4 -6,-7 0,-4 4,-6 7,-6z"/>
   <path class="fil7" d="M4555 5040c7,0 13,7 13,14 -1,8 -7,13 -14,13 -7,-1 -13,-7 -12,-14 0,-7 6,-13 14,-13z"/>
   <path class="fil1" d="M4556 5009c4,0 7,3 6,7 0,4 -3,7 -7,7 -4,0 -7,-3 -6,-7 0,-4 3,-7 7,-7z"/>
   <path class="fil7" d="M4556 4960c7,0 13,6 13,13 0,7 -6,13 -13,13 -7,0 -13,-6 -13,-13 0,-7 6,-13 13,-13z"/>
   <path class="fil1" d="M4556 4929c4,0 7,3 7,7 0,4 -3,7 -6,7 -4,0 -7,-3 -7,-7 0,-4 3,-7 6,-7z"/>
   <path class="fil7" d="M4554 4880c7,0 13,5 14,13 0,7 -5,14 -13,14 -7,0 -13,-5 -14,-13 0,-7 5,-14 12,-14z"/>
   <path class="fil1" d="M4552 4849c4,0 7,3 7,6 0,4 -2,7 -6,7 -4,0 -7,-3 -7,-6 0,-4 2,-7 6,-7z"/>
   <path class="fil7" d="M4548 4799c7,-1 14,5 14,12 1,7 -5,14 -12,14 -7,1 -14,-5 -14,-12 -1,-7 5,-14 12,-14z"/>
   <path class="fil1" d="M4546 4769c4,0 7,2 7,6 0,4 -2,7 -6,7 -4,0 -7,-2 -7,-6 0,-4 2,-7 6,-7z"/>
   <path class="fil7" d="M4541 4719c7,-1 14,5 14,12 1,7 -5,14 -12,15 -7,1 -14,-5 -14,-12 -1,-7 5,-14 12,-15z"/>
   <path class="fil1" d="M4538 4689c4,0 7,2 7,6 0,4 -2,7 -6,7 -4,0 -7,-2 -7,-6 0,-4 2,-7 6,-7z"/>
   <path class="fil7" d="M4533 4639c7,-1 14,4 15,12 1,7 -4,14 -12,15 -7,1 -14,-4 -15,-12 -1,-7 4,-14 12,-15z"/>
   <path class="fil1" d="M4529 4609c4,0 7,2 7,6 0,4 -2,7 -6,7 -4,0 -7,-2 -7,-6 0,-4 2,-7 6,-7z"/>
   <path class="fil7" d="M4523 4560c7,-1 14,4 15,12 1,7 -4,14 -11,15 -7,1 -14,-4 -15,-12 -1,-7 4,-14 11,-15z"/>
   <path class="fil1" d="M4519 4529c4,-1 7,2 7,6 1,4 -2,7 -6,8 -4,0 -7,-2 -7,-6 -1,-4 2,-7 6,-8z"/>
   <polygon class="fil21" points="3696,6584 5009,6584 5009,6443 3696,6443 "/>
   <polygon class="fil21" points="3626,5779 5082,5779 5082,5638 3626,5638 "/>
   <polygon class="fil21" points="5125,7180 5260,7180 4843,5683 4677,5659 "/>
   <polygon class="fil21" points="3571,7180 3436,7180 3852,5683 4019,5659 "/>
   <polygon class="fil8" points="3516,5708 5180,5708 5180,5580 3516,5580 "/>
   <line class="fil3 str7" x1="5069" y1="6408" x2="9896" y2= "6408" />
   <path class="fil1" d="M5837 6386c0,0 181,562 408,562 13,0 26,-2 38,-5 24,-6 48,-17 71,-33 18,-12 37,-26 55,-42 23,-21 46,-44 68,-70 143,-167 259,-411 259,-411l-899 0z"/>
   <path class="fil7" d="M5938 6386c18,73 58,171 114,268 66,113 156,226 231,289 24,-6 48,-17 71,-33 -48,-73 -136,-184 -202,-297 -48,-81 -82,-162 -111,-227l-104 0z"/>
   <path class="fil7" d="M6140 6386c18,73 58,171 114,268 44,76 100,153 155,214 23,-21 46,-44 68,-70 -40,-56 -85,-120 -123,-185 -48,-81 -82,-162 -111,-227l-104 0z"/>
   <path class="fil9" d="M6293 6386c0,0 180,562 408,562 227,0 491,-562 491,-562l-899 0z"/>
   <path class="fil3 str13" d="M6372 6404c34,87 192,470 340,470 148,0 353,-383 398,-470"/>
   <path class="fil16" d="M3201 5181c7,20 114,1093 215,1748 0,0 -59,192 -119,145 -60,-47 -494,-1335 -523,-1813 -16,-263 427,-80 427,-80z"/>
   <path class="fil16" d="M3536 2709c0,0 395,90 647,-28 50,-24 101,-46 153,-66 38,-15 77,-29 116,-40 25,-7 51,-14 78,-16 10,-1 31,-3 38,7 5,7 -6,16 -11,19 -10,5 -18,12 -28,19 -20,14 -41,28 -63,38 -6,3 -12,5 -18,8 7,2 15,4 21,9 6,5 9,17 7,25 -1,6 -5,11 -10,14 5,1 10,3 14,6 10,7 11,17 10,29 0,3 -3,24 -9,22 8,2 14,9 17,16 6,15 0,32 -13,41 -11,7 -24,9 -37,11 -24,5 -44,9 -69,7 -32,-2 -85,-20 -111,9 -37,41 -523,233 -842,146 -319,-87 110,-274 110,-274z"/>
   <path class="fil1" d="M2439 2430c0,0 -388,76 -507,648 -8,39 -22,86 -20,118l192 105c0,0 -25,236 -35,655 240,0 772,71 1049,55 3,-398 17,-708 61,-880 145,-8 435,-45 435,-45l19 -378c0,0 -480,-167 -590,-191 -157,-34 -273,-64 -273,-64l-332 -23z"/>
   <path class="fil1" d="M3722 7160c0,12 -5,20 -5,20 0,0 -492,0 -493,0 -4,0 -6,-10 -7,-20 -1,-10 0,-20 0,-22 -1,-27 3,-54 7,-80 3,-18 7,-79 10,-97 3,-14 6,-33 20,-30 52,52 120,-42 163,-2 0,0 12,17 53,55 41,37 85,43 145,68 77,32 103,77 108,99 1,3 1,6 1,9z"/>
   <path class="fil5" d="M3722 7152c0,12 -5,20 -5,20 0,0 -492,0 -493,0 -4,0 -6,-10 -7,-20l505 0z"/>
   <path class="fil3 str14" d="M3482 6994c-8,10 -15,20 -23,30"/>
   <path class="fil3 str14" d="M3510 7012c-8,10 -15,20 -23,30"/>
   <path class="fil3 str14" d="M3543 7023c-8,10 -15,20 -23,30"/>
   <path class="fil3 str14" d="M3575 7034c-8,10 -15,20 -23,30"/>
   <path class="fil3 str14" d="M3239 7006c40,30 64,81 62,131"/>
   <path class="fil3 str14" d="M3641 7067c-26,17 -43,45 -46,75"/>
   <polygon class="fil9" points="2070,3956 2006,5297 3332,5297 3119,4011 "/>
   <line class="fil3 str15" x1="3030" y1="4122" x2="3206" y2= "5199" />
   <line class="fil3 str14" x1="3211" y1="5230" x2="3217" y2= "5261" />
   <path class="fil11" d="M18782 6007c0,316 -41,545 -118,746 -2,7 -5,14 -8,21 -5,15 -11,30 -18,44 -3,8 -6,16 -10,23 -6,14 -13,28 -19,42 -3,7 -7,14 -10,21 -11,23 -23,46 -36,69 -10,19 -20,37 -31,56 -28,49 -58,98 -90,149l-366 0c-33,-52 -64,-103 -93,-153 -10,-18 -21,-37 -30,-55 -12,-21 -23,-43 -33,-64 -4,-7 -7,-14 -10,-21 -6,-13 -13,-26 -19,-40l-10 -23c-7,-15 -13,-31 -19,-46 -3,-7 -6,-15 -9,-22 -77,-202 -118,-431 -118,-747 0,-329 98,-522 177,-623 47,-61 54,-142 21,-211 -75,-159 -92,-351 -92,-351l836 0c0,0 -17,192 -93,351 -33,69 -26,150 21,211 78,101 176,293 176,623z"/>
   <path class="fil1" d="M18664 6753c-2,7 -5,14 -8,21 -15,-5 -24,-15 -32,-24 -10,-10 -17,-19 -33,-19 -16,0 -23,9 -32,19 -11,12 -24,26 -50,26 -26,0 -39,-15 -50,-26 -10,-10 -17,-19 -33,-19 -16,0 -23,9 -33,19 -11,12 -24,26 -49,26 -26,0 -39,-15 -50,-26 -10,-10 -17,-19 -33,-19 -15,0 -23,9 -33,19 -11,12 -24,26 -50,26 -26,0 -39,-15 -50,-26 -10,-10 -17,-19 -33,-19 -15,0 -23,9 -33,19 -11,12 -24,26 -50,26 -26,0 -39,-15 -50,-26 -10,-10 -17,-19 -33,-19 -16,0 -23,9 -33,19 -9,10 -19,21 -36,25 -3,-7 -6,-15 -9,-22 13,-1 20,-9 28,-19 11,-12 24,-26 50,-26 26,0 39,15 50,26 10,11 17,19 33,19 15,0 23,-8 33,-19 10,-12 24,-26 50,-26 26,0 39,15 50,26 10,11 17,19 33,19 16,0 23,-8 33,-19 11,-12 24,-26 50,-26 26,0 39,15 50,26 10,11 17,19 33,19 16,0 23,-8 32,-19 11,-12 24,-26 50,-26 26,0 39,15 50,26 10,11 17,19 33,19 15,0 23,-8 33,-19 10,-12 24,-26 49,-26 26,0 39,15 50,26 7,9 14,16 24,18z"/>
   <path class="fil1" d="M17881 6822l0 0c11,-12 24,-27 50,-27 26,0 39,15 50,27 10,10 17,19 33,19 15,0 23,-8 33,-19 10,-12 24,-27 50,-27 26,0 39,15 50,27 10,10 17,19 33,19 16,0 23,-8 33,-19 11,-12 24,-27 50,-27 26,0 39,15 50,27 10,10 17,19 33,19 16,0 23,-8 32,-19 11,-12 24,-27 50,-27 26,0 39,15 50,27 10,10 17,19 33,19 15,0 23,-8 33,-19 10,-12 24,-27 49,-27 24,0 37,13 47,24 -3,8 -6,16 -10,23 -1,-2 -3,-3 -5,-5 -10,-10 -17,-19 -33,-19 -16,0 -23,9 -32,19 -11,12 -24,26 -50,26 -26,0 -39,-15 -50,-26 -10,-10 -17,-19 -33,-19 -16,0 -23,9 -33,19 -10,12 -24,26 -49,26 -26,0 -39,-15 -50,-26 -10,-10 -17,-19 -33,-19 -15,0 -23,9 -33,19 -11,12 -24,26 -50,26 -26,0 -39,-15 -50,-26 -10,-10 -17,-19 -33,-19 -15,0 -23,9 -33,19 -11,12 -24,26 -50,26 -26,0 -39,-15 -50,-26 -10,-10 -17,-19 -33,-19 -16,0 -23,9 -33,19 -2,3 -5,5 -8,8l-10 -23z"/>
   <path class="fil1" d="M18609 6883c-3,7 -7,14 -10,21 -2,0 -5,-1 -8,-1 -16,0 -23,8 -32,19 -11,12 -24,27 -50,27 -26,0 -39,-15 -50,-27 -10,-10 -17,-19 -33,-19 -16,0 -23,8 -33,19 -11,12 -24,27 -49,27 -26,0 -39,-15 -50,-27 -10,-10 -17,-19 -33,-19 -15,0 -23,8 -33,19 -11,12 -24,27 -50,27 -26,0 -39,-15 -50,-27 -10,-10 -17,-19 -33,-19 -15,0 -23,8 -33,19 -11,12 -24,27 -50,27 -26,0 -39,-15 -50,-27 -10,-10 -17,-19 -33,-19 -5,0 -8,1 -12,2 -4,-7 -7,-14 -10,-21 6,-2 13,-4 22,-4 26,0 39,15 50,26 10,10 17,19 33,19 15,0 23,-9 33,-19 10,-12 24,-26 50,-26 26,0 39,15 50,26 10,10 17,19 33,19 16,0 23,-9 33,-19 11,-12 24,-26 50,-26 26,0 39,15 50,26 10,10 17,19 33,19 16,0 23,-9 32,-19 11,-12 24,-26 50,-26 26,0 39,15 50,26 10,10 17,19 33,19 15,0 23,-9 33,-19 10,-12 24,-26 49,-26 7,0 13,1 18,3z"/>
   <path class="fil1" d="M18563 6974c-10,19 -20,37 -31,56 -6,3 -14,5 -23,5 -26,0 -39,-15 -50,-27 -10,-10 -17,-19 -33,-19 -16,0 -23,8 -33,19 -11,12 -24,27 -49,27 -26,0 -39,-15 -50,-27 -10,-10 -17,-19 -33,-19 -15,0 -23,8 -33,19 -11,12 -24,27 -50,27 -26,0 -39,-15 -50,-27 -10,-10 -17,-19 -33,-19 -15,0 -23,8 -33,19 -11,12 -24,27 -50,27 -14,0 -24,-4 -31,-10 -10,-18 -21,-37 -30,-55 13,5 21,15 29,23 10,10 17,19 33,19 15,0 23,-9 33,-19 10,-12 24,-26 50,-26 26,0 39,15 50,26 10,10 17,19 33,19 16,0 23,-9 33,-19 11,-12 24,-26 50,-26 26,0 39,15 50,26 10,10 17,19 33,19 16,0 23,-9 32,-19 11,-12 24,-26 50,-26 26,0 39,15 50,26 10,10 17,19 33,19 15,0 23,-9 33,-19 6,-6 12,-14 21,-19z"/>
   <polygon class="fil6" points="19211,7178 19370,7178 19370,4544 19211,4544 "/>
   <polygon class="fil6" points="15372,7178 15531,7178 15531,4544 15372,4544 "/>
   <polygon class="fil6" points="15157,4586 19633,4586 19633,4428 15157,4428 "/>
   <line class="fil3 str16" x1="19442" y1="640" x2="19442" y2= "4428" />
   <path class="fil8" d="M15757 1333c0,42 -34,77 -77,77 -42,0 -77,-34 -77,-77 0,-42 34,-77 77,-77 42,0 77,34 77,77z"/>
   <path class="fil3 str5" d="M15724 1274c-19,13 -39,26 -55,42 -7,7 -15,16 -16,26 -2,10 4,22 14,24 2,0 5,0 7,-1 2,-1 3,-2 5,-4 8,-11 11,-25 13,-38 3,-21 4,-42 3,-62"/>
   <polygon class="fil5" points="15771,1229 15743,1289 15671,1256 15695,1195 "/>
   <path class="fil8" d="M16660 1617c8,42 -19,82 -60,90 -42,8 -82,-19 -90,-60 -8,-42 19,-82 60,-90 42,-8 82,19 90,60z"/>
   <path class="fil3 str5" d="M16615 1565c-16,16 -33,33 -46,52 -6,9 -11,18 -11,29 0,10 8,21 19,21 2,0 5,-1 6,-2 2,-1 3,-3 4,-5 6,-12 6,-26 5,-40 -1,-21 -4,-41 -9,-62"/>
   <polygon class="fil5" points="16653,1511 16637,1576 16560,1558 16572,1493 "/>
   <path class="fil8" d="M17619 1670c20,37 6,84 -31,104 -37,20 -84,6 -104,-31 -20,-37 -6,-84 31,-104 37,-20 84,-6 104,31z"/>
   <path class="fil3 str5" d="M17561 1634c-11,20 -22,41 -29,63 -3,10 -5,21 -2,31 3,10 14,18 24,15 2,-1 4,-2 6,-4 1,-2 2,-4 2,-6 2,-13 -2,-27 -7,-40 -7,-19 -16,-38 -27,-57"/>
   <polygon class="fil5" points="17581,1572 17585,1639 17507,1643 17499,1578 "/>
   <path class="fil8" d="M18466 1498c26,33 20,82 -13,108 -33,26 -81,20 -108,-13 -26,-33 -20,-81 13,-108 33,-26 81,-20 108,13z"/>
   <path class="fil3 str5" d="M18403 1472c-7,22 -14,44 -17,67 -1,10 -2,21 3,30 5,9 17,15 26,10 2,-1 4,-3 5,-5 1,-2 1,-4 1,-6 0,-14 -6,-26 -13,-38 -11,-18 -23,-35 -36,-51"/>
   <polygon class="fil5" points="18412,1407 18427,1473 18351,1491 18332,1428 "/>
   <path class="fil8" d="M19175 1195c32,27 36,76 9,108 -27,32 -76,36 -108,9 -32,-27 -36,-76 -9,-108 27,-32 76,-36 108,-9z"/>
   <path class="fil3 str5" d="M19108 1183c-3,23 -5,46 -4,69 1,10 2,21 9,29 7,8 20,11 28,5 2,-1 3,-3 4,-6 1,-2 0,-4 0,-6 -3,-13 -12,-24 -21,-34 -14,-15 -29,-30 -45,-43"/>
   <polygon class="fil5" points="19104,1117 19132,1178 19060,1211 19029,1153 "/>
   <path class="fil3 str17" d="M19454 922c0,0 -966,664 -2140,654 -1174,-10 -2126,-654 -2126,-654"/>
   <line class="fil3 str16" x1="15196" y1="640" x2="15196" y2= "4428" />
   <path class="fil3 str17" d="M15201 945c-119,153 -147,372 -71,551 38,89 99,168 131,260 22,63 29,131 21,198 -16,128 -88,243 -124,367 -37,127 -36,263 -6,391 43,186 146,375 86,557 -28,85 -64,168 -102,249 -22,48 -45,97 -48,149 -2,37 5,73 12,109 16,82 33,166 71,241 17,34 38,66 47,102 9,36 4,80 -25,104 -83,70 -84,196 -89,304 -1,31 0,64 16,90 20,33 60,50 99,52 39,2 77,-9 114,-19 19,-5 42,-15 44,-34"/>
   <polygon class="fil1" points="16120,5103 18523,5103 18523,4507 16120,4507 "/>
   <path class="fil9" d="M16570 4912c-2,68 74,93 125,93 60,0 126,-26 126,-101 0,-70 -66,-103 -117,-129 -28,-14 -63,-31 -63,-65 0,-28 29,-39 56,-39 19,0 42,4 51,19 1,11 8,25 29,25 13,0 27,-10 26,-27 -5,-49 -52,-65 -103,-65 -57,0 -113,27 -113,87 0,81 68,98 122,126 26,13 58,36 58,66 0,45 -38,55 -72,55 -34,0 -67,-15 -69,-37 -1,-9 2,-17 2,-25 0,-14 -12,-23 -26,-23 -23,0 -30,14 -32,40zm391 67c0,16 13,25 30,25 25,0 29,-14 33,-28l0 0c5,-16 20,-52 37,-95 3,0 7,0 10,0 45,-2 82,0 118,0 11,0 21,1 26,1 14,30 26,59 44,97 2,14 14,25 31,25 15,0 28,-7 28,-26 0,-13 -10,-26 -15,-33l-5 -7c-44,-94 -80,-183 -123,-268 -2,-4 -4,-11 -7,-18 -6,-17 -10,-30 -33,-30 -18,0 -27,15 -29,29 -27,55 -114,260 -137,297 -8,10 -10,21 -10,31zm122 -150c19,-45 38,-90 53,-123 25,53 43,92 57,124 -70,0 -97,-1 -110,-1zm388 142c0,22 11,26 27,26l126 0c20,0 41,-4 41,-28 0,-18 -11,-28 -32,-28 -10,0 -19,2 -28,3 -16,1 -42,1 -78,1 0,-63 0,-196 0,-255l0 -36c0,-23 -6,-30 -28,-30 -19,0 -27,11 -27,35l4 284c0,10 -4,19 -4,28zm359 0c0,19 12,27 28,27l160 0c22,0 43,-1 43,-29 0,-19 -15,-24 -34,-24 -8,0 -15,1 -21,2 -7,1 -15,2 -24,2 -35,0 -66,-1 -97,-1l0 -143 149 0c18,0 30,-8 30,-25 0,-11 -10,-26 -27,-26 -9,0 -17,1 -22,1 -4,0 -9,1 -13,1 -106,0 -112,0 -118,0l0 -75 22 0c9,0 19,0 80,0 6,1 12,1 16,1 16,0 29,-3 29,-28 0,-17 -5,-26 -29,-26 -3,0 -11,2 -17,2l-125 0c-15,0 -31,0 -31,32l5 285 -2 8c-1,5 -3,11 -3,17z"/>
   <line class="fil3 str17" x1="18472" y1="4576" x2="18472" y2= "4428" />
   <line class="fil3 str17" x1="16177" y1="4576" x2="16177" y2= "4428" />
   <path class="fil22" d="M19228 1943c0,0 -2,13 -6,37 -4,23 -9,57 -12,98 -3,41 -6,88 1,138 4,25 10,50 24,71l5 8 7 7c4,5 10,8 15,11 5,3 11,4 17,7 6,1 14,2 20,2 26,0 49,-13 62,-35 13,-22 19,-47 22,-72 6,-50 2,-98 -2,-138 -4,-41 -10,-74 -14,-98 -4,-23 -7,-37 -7,-37 -16,-78 -34,-149 -48,-200 -14,-51 -22,-83 -21,-83 2,-1 14,30 30,81 16,51 35,121 51,200 0,0 3,13 7,37 4,24 10,57 15,99 4,41 8,89 2,141 -4,26 -9,53 -24,77 -4,6 -8,12 -13,17 -5,6 -11,10 -18,13 -6,4 -14,5 -21,8 -7,2 -15,2 -22,3 -8,-1 -14,-1 -21,-2 -7,-3 -15,-4 -21,-8 -6,-4 -13,-7 -18,-13l-8 -8 -6 -9c-16,-24 -22,-51 -26,-77 -7,-52 -5,-100 -1,-141 4,-41 9,-75 13,-99 4,-24 6,-37 6,-37 15,-79 33,-150 48,-201 15,-51 26,-82 28,-81 2,1 -7,32 -19,84 -13,51 -29,122 -44,201z"/>
   <path class="fil22" d="M19254 1872c0,0 -1,10 -4,28 -2,18 -6,43 -8,73 -2,30 -4,66 0,103 2,19 5,38 13,55 4,9 9,16 16,22 4,2 7,6 11,7 3,2 8,3 13,3 17,2 31,-13 37,-30 6,-18 9,-37 10,-56 3,-38 0,-73 -2,-103 -5,-61 -12,-101 -12,-101 -9,-59 -19,-112 -26,-151 -7,-39 -11,-63 -10,-63 2,0 9,23 19,61 9,38 21,92 30,151 0,0 7,40 13,102 2,31 5,67 2,105 -1,19 -4,40 -11,60 -4,10 -9,20 -18,28 -8,9 -21,12 -33,11 -9,0 -23,-5 -31,-13 -9,-8 -15,-17 -19,-27 -9,-20 -12,-40 -14,-59 -4,-39 -2,-75 0,-105 2,-31 5,-56 8,-74 3,-18 4,-28 4,-28 9,-59 21,-113 31,-151 10,-38 18,-62 20,-61 2,0 -3,24 -10,63 -8,39 -18,92 -27,151z"/>
   <polygon class="fil1" points="15993,6378 16311,6378 16311,6017 15993,6017 "/>
   <path class="fil23" d="M16329 6009c21,-16 33,-34 50,-54 12,-15 23,-32 28,-51 5,-19 2,-41 -11,-55 -19,-21 -54,-20 -79,-6 -25,15 -41,39 -57,63 19,-53 39,-115 35,-170 -2,-24 -10,-50 -31,-61 -18,-10 -42,-4 -58,9 -16,13 -25,33 -31,52 -11,36 -13,75 -5,111 -3,-25 -11,-54 -27,-74 -16,-20 -44,-32 -68,-23 -22,8 -36,34 -35,57 1,24 13,46 30,64 -44,-39 -110,-48 -162,-22 -16,8 -31,20 -39,36 -8,16 -8,37 3,51 15,19 43,20 67,20 17,0 34,-1 51,-1 -34,10 -69,41 -79,74 -3,11 -5,22 -2,33 3,11 11,21 21,23 14,4 28,-5 40,-13 32,-22 64,-45 96,-67 -7,17 -11,34 -14,52 -3,18 -1,37 9,53 9,16 27,27 46,25 15,-2 28,-11 38,-22 25,-26 43,-59 50,-95 -9,18 -5,37 4,55 9,18 26,31 44,41 28,14 75,15 99,-9 12,-12 17,-30 14,-47 -3,-21 -15,-33 -27,-48z"/>
   <path class="fil4" d="M18723 5253c-10,0 -17,8 -17,17 2,76 3,381 -64,576 -78,225 -202,404 -236,618 -29,180 -42,559 -45,675 -1,19 15,35 34,35l862 0c19,0 34,-16 34,-35 -3,-116 -16,-495 -45,-675 -35,-214 -158,-394 -236,-618 -68,-195 -66,-500 -64,-576 0,-10 -8,-17 -17,-17l-203 0z"/>
   <path class="fil3 str18" d="M18434 6333c13,46 66,71 114,66 47,-5 88,-35 121,-70 26,-27 48,-59 60,-94 12,-36 12,-76 -4,-110 -4,-8 -9,-15 -16,-19 -10,-5 -23,-2 -32,5 -9,7 -15,17 -19,28 -14,33 -19,69 -19,105 0,30 2,60 12,88 13,38 38,72 72,93 34,21 77,28 115,16 56,-17 95,-69 122,-122 23,-46 41,-96 38,-147 -1,-14 -4,-29 -12,-41 -8,-12 -21,-21 -35,-20 -23,1 -38,24 -43,47 -8,35 -1,71 8,106 6,21 13,43 25,62 27,45 78,73 131,73 52,0 103,-30 130,-75"/>
   <polygon class="fil2" points="16504,6194 17647,6194 17647,5324 16504,5324 "/>
   <line class="fil3 str0" x1="17425" y1="5324" x2="17425" y2= "6194" />
   <polygon class="fil1" points="16581,5701 16766,5701 16766,5388 16581,5388 "/>
   <line class="fil3 str0" x1="16742" y1="5430" x2="16605" y2= "5430" />
   <line class="fil3 str0" x1="16742" y1="5470" x2="16605" y2= "5470" />
   <line class="fil3 str0" x1="16742" y1="5509" x2="16605" y2= "5509" />
   <line class="fil3 str0" x1="16742" y1="5549" x2="16605" y2= "5549" />
   <line class="fil3 str0" x1="16742" y1="5589" x2="16605" y2= "5589" />
   <line class="fil3 str0" x1="16742" y1="5629" x2="16605" y2= "5629" />
   <polygon class="fil8" points="16671,7178 17972,7178 17972,6194 16671,6194 "/>
   <line class="fil3 str0" x1="17719" y1="6293" x2="17719" y2= "7178" />
   <path class="fil24" d="M17087 6327l116 0c30,0 54,24 54,54l0 0c0,30 -24,54 -54,54l-116 0c-30,0 -54,-24 -54,-54l0 0c0,-30 24,-54 54,-54z"/>
   <line class="fil3 str0" x1="17972" y1="6277" x2="16671" y2= "6277" />
   <path class="fil8" d="M19320 5991c24,-18 99,38 124,57 6,4 14,4 19,0 24,-20 93,-83 118,-66 24,17 -8,105 -19,134 -3,7 0,15 6,19 27,17 112,68 103,97 -9,28 -105,20 -137,18 -8,0 -14,5 -16,12 -7,31 -26,128 -56,128 -30,1 -55,-96 -64,-127 -2,-7 -9,-12 -16,-11 -31,3 -123,15 -133,-13 -10,-28 68,-82 94,-100 6,-4 8,-12 5,-19 -12,-28 -52,-111 -28,-129z"/>
   <path class="fil25" d="M20006 6259c0,-117 -95,-211 -211,-211 -117,0 -211,95 -211,211 0,117 95,211 211,211 117,0 211,-95 211,-211z"/>
   <path class="fil9" d="M20295 6322c0,-110 -90,-200 -200,-200 -110,0 -200,90 -200,200 0,110 90,200 200,200 111,0 200,-90 200,-200z"/>
   <polygon class="fil2" points="19134,7178 20427,7178 20427,6259 19134,6259 "/>
   <polygon class="fil1" points="19936,6239 20213,6239 20213,6617 20075,6514 19936,6617 "/>
   <polygon class="fil9" points="19182,6225 19494,6225 19494,6688 19338,6585 19182,6688 "/>
   <line class="fil3 str0" x1="20255" y1="6259" x2="20255" y2= "7178" />
   <path class="fil16" d="M12902 5416c5,2 -1,60 -2,65 -2,61 -4,123 -6,184 -8,215 -20,431 -34,646 -8,121 -17,243 -28,364 -5,64 -9,128 -17,191 -6,46 -47,66 -93,65 -30,0 -59,-11 -84,-27 -30,-18 -27,-76 -31,-107 -7,-59 -14,-117 -21,-176 -19,-165 -35,-330 -45,-495 -10,-154 -19,-312 -5,-466 4,-44 9,-91 27,-133 100,-237 339,-111 339,-111z"/>
   <path class="fil16" d="M13399 2588c4,-4 367,367 537,392 171,26 737,-135 737,-135 0,0 114,-127 134,-116 21,12 -17,69 -26,81 6,-6 21,-8 29,-12 13,-7 26,-13 40,-19 28,-12 56,-22 84,-31 9,-3 20,-6 29,-1 1,1 3,2 3,3 0,2 -1,4 -2,5 -11,12 -25,20 -39,28 -7,4 -15,8 -22,12 -5,3 -12,5 -16,11 -1,2 16,-4 16,-4 9,-4 19,-7 29,-11 23,-8 49,-20 73,-19 2,0 5,1 6,2 2,3 0,7 -2,9 -16,22 -48,33 -72,43 -3,1 -41,17 -38,20 4,4 13,2 18,0 10,-3 19,-6 29,-8 10,-3 67,-21 69,-3 1,9 -15,21 -22,25 -14,7 -31,11 -46,15 -8,2 -16,5 -24,7 -4,1 -10,1 -13,3 -4,2 -5,7 -2,9 4,3 21,-1 25,-1 19,-2 37,-7 56,-7 12,0 9,10 2,16 -11,9 -28,13 -40,17 -56,20 -111,39 -170,42 -33,2 -59,4 -91,18 -28,12 -54,27 -82,41 -123,62 -248,120 -377,169 -116,44 -250,96 -376,85 -257,-22 -402,-199 -402,-199l-55 -490z"/>
   <path class="fil1" d="M13133 2409c125,-116 466,122 738,522 0,0 -114,223 -268,282 0,0 -701,-589 -470,-804z"/>
   <path class="fil16" d="M13470 5415c5,2 2,60 2,65 2,61 4,123 5,184 5,215 6,431 5,646 -1,122 -3,243 -6,365 -2,64 -1,128 -5,192 -3,46 -43,69 -88,71 -30,1 -59,-7 -86,-22 -31,-17 -31,-74 -37,-105 -11,-58 -22,-116 -32,-175 -29,-163 -54,-327 -75,-492 -19,-154 -38,-310 -33,-465 1,-45 4,-92 19,-134 85,-243 331,-131 331,-131z"/>
   <path class="fil7" d="M13475 4082c0,0 159,1074 114,1451 0,0 -344,176 -577,62 -233,-114 -167,-1492 -167,-1492l630 -21z"/>
   <path class="fil7" d="M12624 4140c0,0 -219,1112 -163,1488 0,0 406,44 703,-23 253,-57 3,-1486 3,-1486l-543 21z"/>
   <path class="fil16" d="M13339 1807c4,13 143,459 -53,526 -196,67 -307,-111 -307,-111 0,0 -128,-271 36,-414 88,-78 325,0 325,0z"/>
   <path class="fil5" d="M13344 1806c36,-16 73,-32 104,-57 30,-26 53,-63 52,-103 -2,-58 -59,-105 -117,-108 -58,-2 -114,32 -148,79 18,-20 18,-54 7,-77 -12,-23 -39,-38 -65,-36 -26,2 -49,20 -68,38 -35,34 -66,73 -90,116 5,-14 -2,-33 -14,-41 -13,-8 -29,-8 -43,-4 -14,5 -26,14 -38,23 -43,39 -72,94 -78,151 -21,-9 -40,-12 -59,0 -19,12 -34,31 -45,51 -38,67 -47,151 -24,224 23,74 78,137 148,170 29,14 64,22 92,6 26,-15 37,-46 41,-75 7,-46 3,-92 3,-139 0,-46 6,-94 31,-133 30,-46 84,-73 138,-82 54,-9 117,-11 172,-5z"/>
   <path class="fil16" d="M12970 2042c-16,-14 -42,-19 -59,-6 -12,10 -16,26 -17,42 -2,45 21,91 59,116 11,7 24,13 38,11 21,-4 34,-28 33,-49 -2,-33 -30,-92 -55,-114z"/>
   <path class="fil16" d="M13193 2280c0,0 -79,88 -33,324 46,236 -230,64 -230,64l24 -515 239 127z"/>
   <path class="fil1" d="M13146 2190c0,0 41,34 92,32 0,0 -24,49 -65,30 -41,-19 -27,-61 -27,-61z"/>
   <path class="fil5" d="M13346 1978c4,6 4,14 4,21 0,4 0,8 -2,12 -2,4 -6,7 -10,7 -4,0 -8,-3 -9,-7 -2,-4 -2,-7 -2,-11 0,-6 -3,-20 2,-25 5,-5 15,-2 18,4z"/>
   <path class="fil5" d="M13175 1985c4,6 4,14 4,21 0,4 0,8 -2,12 -2,4 -6,7 -10,7 -4,0 -8,-3 -9,-7 -2,-4 -2,-7 -2,-11 0,-6 -4,-20 1,-25 5,-5 15,-2 18,4z"/>
   <path class="fil5" d="M13345 1945c5,2 11,3 14,0 3,-4 1,-9 -2,-12 -7,-8 -16,-13 -26,-16 -6,-2 -23,-6 -27,0 -10,14 34,26 41,29z"/>
   <path class="fil5" d="M13149 1958c-3,2 -6,3 -9,4 -3,1 -7,0 -9,-2 -2,-2 -2,-6 -1,-9 1,-3 4,-5 6,-7 8,-7 18,-11 29,-14 4,-1 8,-2 11,0 16,7 -23,25 -28,28z"/>
   <path class="fil1" d="M13525 4075c-7,23 -23,46 -53,68 -198,148 -645,98 -848,-4 -17,-9 -26,-97 -30,-120 -11,-60 -14,-123 -15,-184 -3,-118 7,-237 11,-355 7,-215 46,-429 98,-638 30,-122 56,-273 131,-374 20,-27 56,-81 108,-80 20,0 195,109 252,10 7,-11 105,19 110,25 108,96 146,222 186,356 52,173 43,376 47,555 3,137 4,274 4,411 0,100 23,233 -1,330z"/>
   <path class="fil3 str0" d="M13103 5581c38,-319 63,-640 75,-961"/>
   <path class="fil3 str0" d="M12946 4779c-18,161 -37,322 -55,483 -113,-7 -227,-15 -340,-22 22,-157 35,-315 37,-473"/>
   <polygon class="fil3 str0" points="12978,4779 12563,4767 12575,4687 12978,4701 "/>
   <path class="fil3 str0" d="M12847 4223c-20,55 -43,112 -87,149 -41,34 -95,48 -148,58 -2,0 -3,0 -4,-1 -1,-1 2,-3 2,-1"/>
   <path class="fil16" d="M12890 4244c47,22 180,67 156,91 -10,10 -38,4 -50,2 -22,-3 -64,-19 -79,4 -8,12 1,28 10,40 22,29 43,55 68,80 19,19 41,36 51,62 14,34 -29,10 -42,4 -9,-4 -18,-9 -27,-15 -15,-11 -28,-29 -47,-31 0,10 7,18 14,25 17,17 34,34 54,48 9,7 17,16 24,25 5,6 9,15 4,21 -5,6 -15,3 -22,0 -30,-15 -57,-35 -80,-59 -4,-4 -16,-19 -22,-16 -8,3 -2,16 1,20 16,17 37,31 55,47 6,5 12,10 13,18 1,4 0,9 -4,11 -1,1 -3,0 -5,0 -14,-1 -26,-10 -37,-18 -18,-13 -36,-27 -49,-45 -6,-9 -11,-19 -20,-24 -1,-1 -3,-1 -4,-1 -2,1 -2,4 -2,6 1,9 6,17 10,24 9,14 19,27 28,40 4,5 13,23 1,22 -10,-1 -23,-13 -30,-19 -7,-6 -15,-12 -22,-19 -20,-19 -39,-39 -54,-62 -13,-21 -18,-47 -23,-71 -6,-26 -11,-53 -23,-77 -71,-137 -162,-263 -229,-403 -67,-140 -121,-287 -175,-433 -16,-44 -32,-89 -32,-136 1,-53 23,-103 45,-152 33,-73 61,-207 156,-217 71,-8 127,61 176,102 6,5 12,11 13,18 1,6 -3,12 -6,18 -30,53 -67,103 -83,162 -33,125 6,235 41,356 36,127 80,252 130,374 24,59 46,133 101,171 3,2 7,4 13,7z"/>
   <path class="fil1" d="M12926 2388c156,70 69,477 -195,883 0,0 -249,-19 -364,-138 0,0 270,-875 559,-745z"/>
   <path class="fil3 str9" d="M13258 1980c8,45 16,90 24,135 1,5 1,9 -1,13 -2,3 -5,5 -8,6 -11,5 -23,9 -36,11"/>
   <path class="fil3 str10" d="M12927 2056c24,7 43,27 48,52"/>
   <path class="fil3 str10" d="M12951 2071c-12,2 -22,10 -28,20"/>
   <path class="fil1" d="M13889 7149c0,16 -7,26 -7,26 0,0 -650,3 -651,3 -5,0 -8,-13 -9,-26 -1,-13 -1,-26 -1,-29 -1,-35 4,-70 9,-105 4,-24 8,-104 13,-127 4,-19 7,-43 26,-39 69,68 158,-55 215,-4 0,0 15,23 70,71 54,49 112,56 191,88 102,42 137,100 143,129 1,4 1,8 1,12z"/>
   <path class="fil5" d="M13889 7149c0,16 -7,26 -7,26 0,0 -650,3 -651,3 -5,0 -8,-13 -9,-26l667 -3z"/>
   <path class="fil3 str0" d="M13572 6943c-10,13 -20,26 -30,39"/>
   <path class="fil3 str0" d="M13609 6966c-10,13 -20,26 -30,39"/>
   <path class="fil3 str0" d="M13652 6980c-10,13 -20,26 -30,39"/>
   <path class="fil3 str0" d="M13695 6995c-10,13 -20,26 -30,39"/>
   <path class="fil1" d="M13238 7149c0,16 -7,26 -7,26 0,0 -650,3 -651,3 -5,0 -8,-13 -9,-26 -1,-13 -1,-26 -1,-29 -1,-35 4,-70 9,-105 4,-24 8,-104 13,-127 4,-19 7,-43 26,-39 69,68 158,-55 215,-4 0,0 15,23 70,71 55,49 112,56 191,88 102,42 137,100 142,129 1,4 1,8 1,12z"/>
   <path class="fil5" d="M13238 7149c0,16 -7,26 -7,26 0,0 -650,3 -651,3 -5,0 -8,-13 -9,-26l667 -3z"/>
   <path class="fil3 str0" d="M12920 6943c-10,13 -20,26 -30,39"/>
   <path class="fil3 str0" d="M12958 6966c-10,13 -20,26 -30,39"/>
   <path class="fil3 str0" d="M13001 6980c-10,13 -20,26 -30,39"/>
   <path class="fil3 str0" d="M13043 6995c-10,13 -20,26 -30,39"/>
   <path class="fil3 str0" d="M13516 3122c-13,-169 -46,-336 -99,-497"/>
   <path class="fil3 str0" d="M12645 3259c36,10 73,17 110,21 72,-149 140,-310 184,-470"/>
   <path class="fil3 str10" d="M13148 2343c0,0 -78,-13 -123,-64"/>
   <path class="fil16" d="M21055 5539c0,20 21,1014 30,1436 1,44 -149,117 -187,114 -44,-3 191,89 191,89l183 0c0,0 176,-691 146,-1716l-363 77z"/>
   <path class="fil16" d="M21436 5571c4,20 238,1029 319,1428 5,26 -92,54 -88,74 11,54 94,105 94,105l217 -145c0,0 13,-600 -199,-1603l-343 140z"/>
   <path class="fil5" d="M21835 3018c115,-27 216,-107 270,-212 54,-105 58,-234 13,-343 -39,-92 -111,-170 -133,-268 -19,-84 2,-172 -14,-256 -17,-92 -80,-175 -165,-215 -44,-21 -93,-31 -142,-29 -26,1 -52,5 -77,13 -38,12 -64,-4 -98,-19 -36,-16 -72,-20 -111,-15 -69,10 -135,46 -181,99 -39,45 -64,102 -71,162 -8,61 37,113 64,166 36,70 62,155 28,226 -22,46 -66,77 -98,116 -83,101 -82,256 -15,368 67,112 191,183 319,208 129,24 282,30 410,0z"/>
   <path class="fil16" d="M21339 2514c-6,13 -13,26 -19,39 -6,11 -92,156 -99,149 69,73 187,86 282,51 95,-35 207,-185 266,-267 -51,-14 -139,-31 -166,-81 -10,-19 -14,-41 -17,-62 -7,-53 -5,-107 5,-159 -53,67 -110,137 -189,167 -4,1 -7,3 -10,5 -6,5 -7,13 -8,20 -7,48 -23,94 -44,138z"/>
   <path class="fil16" d="M21201 2171c13,57 30,114 67,160 43,54 125,86 193,66 73,-21 120,-119 137,-186 13,-49 22,-115 7,-164 -12,-37 -35,-76 -52,-111 -26,-53 -71,-81 -130,-90 -69,-11 -132,22 -175,75 -57,70 -69,143 -51,231 1,7 3,14 4,21z"/>
   <path class="fil16" d="M21560 2109c2,-21 9,-42 18,-56 11,-16 31,-28 51,-24 26,6 38,37 38,64 0,24 -6,49 -22,67 -17,19 -70,37 -81,3 -5,-15 -6,-35 -4,-54z"/>
   <path class="fil9" d="M21330 2510c-88,26 -153,102 -191,185 -38,83 -54,174 -79,262 -71,258 -224,488 -271,753 -25,143 -8,291 32,430 38,131 121,248 156,377 87,324 -33,566 -37,901 -1,82 101,81 177,111 269,106 583,89 839,-44 32,-16 58,-165 68,-200 21,-72 38,-146 51,-220 27,-149 49,-311 38,-463 -10,-138 5,-280 -7,-420 -14,-154 -7,-176 -57,-322 204,-134 371,-417 371,-554 0,-204 -383,-761 -775,-863 -28,37 -43,66 -78,94 -36,29 -80,49 -126,48 -46,-2 -97,-32 -111,-75z"/>
   <path class="fil16" d="M21811 3984c-4,13 -8,25 -10,38 -2,11 -16,72 7,62 9,-4 39,-100 50,-89 2,2 2,5 3,8 2,27 6,58 2,85 -3,20 -8,39 -13,59 -4,16 -12,35 -4,51 1,2 3,4 5,5 16,6 37,-93 42,-106 4,-10 11,-9 11,2 1,39 2,79 4,118 0,4 0,8 3,11 16,18 24,-25 25,-32 2,-10 2,-21 3,-32 1,-14 3,-29 2,-44 -1,-12 -3,-21 3,-33 0,-1 1,-1 1,-2 1,0 2,1 3,3 6,19 3,39 9,57 2,11 3,21 8,31 1,2 3,5 6,4 10,-3 12,-31 13,-40 1,-20 1,-39 -1,-59 2,13 6,25 11,37 1,1 1,3 3,3 1,0 2,-1 3,-3 5,-10 3,-23 0,-34 -8,-38 -15,-76 -21,-115 -3,-20 -6,-39 -9,-59 -1,-4 1,-49 7,-47 -19,-7 -89,-28 -85,-57 -8,48 -36,89 -62,130 -9,14 -15,29 -21,44z"/>
   <path class="fil3 str0" d="M20966 4338c0,0 295,248 612,-30"/>
   <path class="fil16" d="M20881 3417c-8,62 27,120 41,180 1,3 1,7 -1,9 -4,5 -12,-1 -16,-6 -12,-16 -23,-33 -35,-49 -8,45 16,90 17,135 0,2 0,4 -1,6 -4,5 -11,-1 -13,-6 -16,-30 -28,-64 -33,-98 2,-1 -6,-4 -8,-4 -2,1 -2,3 -2,5 -4,27 -8,53 -12,80 -6,2 -10,-6 -12,-12 -9,-44 -4,-90 11,-132 15,-42 36,-74 64,-109z"/>
   <path class="fil3 str0" d="M21819 2876c138,122 258,268 335,436 -87,155 -189,300 -306,433 4,13 8,29 16,41 32,52 91,82 151,92"/>
   <path class="fil3 str10" d="M21597 2110c5,-23 20,-44 41,-56"/>
   <path class="fil3 str10" d="M21613 2073c17,7 28,24 29,42"/>
   <path class="fil3 str10" d="M21370 2078c-2,35 -8,70 -17,104 -1,4 -2,8 -2,13 0,4 3,9 7,10 3,1 6,1 10,0 5,-1 11,-2 16,-3"/>
   <path class="fil5" d="M21291 2044c6,-2 11,-5 16,-9 4,-4 7,-11 5,-17 0,-1 -1,-2 -2,-3 -2,-2 -5,-1 -7,0 -21,5 -42,14 -59,28 -11,9 -5,18 7,15 13,-4 27,-8 40,-13z"/>
   <path class="fil5" d="M21435 2031c8,3 16,5 25,6 9,1 17,0 25,-5 0,0 1,-1 1,-1 2,-2 -1,-5 -3,-6 -16,-11 -35,-18 -54,-19 -7,0 -24,2 -21,12 2,8 20,11 27,13z"/>
   <path class="fil5" d="M21287 2119c0,1 1,1 2,2 1,1 3,1 4,0 1,-1 3,-2 3,-3 3,-4 4,-9 5,-13 1,-5 1,-11 0,-16 0,-3 -1,-5 -2,-8 -1,-2 -4,-4 -7,-4 -16,2 -11,34 -6,42z"/>
   <path class="fil5" d="M21432 2110c0,1 1,1 2,2 1,1 3,1 4,0 1,-1 2,-2 3,-3 3,-4 4,-9 5,-13 1,-5 1,-11 0,-16 0,-3 -1,-5 -2,-8 -1,-2 -4,-4 -7,-4 -16,1 -11,34 -6,42z"/>
   <path class="fil3 str10" d="M21320 2258c10,18 29,30 49,32 20,2 41,-8 53,-24"/>
   <path class="fil5" d="M21612 2026c-2,6 -6,10 -12,13 -18,8 -46,3 -63,-3 -55,-17 -106,-46 -147,-86 -9,-8 -20,-27 -30,-32 -13,-6 -22,11 -31,21 -21,21 -44,41 -69,59 -23,17 -51,33 -80,29 -5,-1 -2,-12 -1,-17 9,-31 19,-62 30,-92 11,-29 23,-57 41,-82 37,-49 100,-76 162,-73 61,3 120,36 158,85 30,40 44,91 45,140 0,11 2,27 -2,38z"/>
   <path class="fil3 str10" d="M21378 2398c0,0 85,8 150,-54"/>
   <path class="fil8" d="M20728 7151c0,15 6,24 6,24 0,0 585,3 586,3 5,0 7,-12 8,-24 1,-12 1,-24 1,-27 1,-33 -12,-172 -16,-193 -3,-18 -144,68 -196,116 0,0 -39,-156 -88,-111 -49,45 -101,52 -172,82 -92,39 -123,93 -128,120 -1,4 -1,8 -1,11z"/>
   <path class="fil5" d="M20728 7151c0,15 6,24 6,24 0,0 585,3 586,3 5,0 7,-12 8,-24l-600 -3z"/>
   <path class="fil3 str0" d="M21027 6948c38,34 57,85 70,135"/>
   <path class="fil3 str0" d="M21314 7030c-44,24 -78,64 -95,112 1,-1 2,-2 2,-4"/>
   <path class="fil8" d="M21393 7151c0,15 6,24 6,24 0,0 585,3 586,3 5,0 7,-12 8,-24 1,-12 1,-24 1,-27 1,-33 -12,-172 -16,-193 -3,-18 -144,68 -196,116 0,0 -39,-156 -88,-111 -49,45 -101,52 -172,82 -92,39 -123,93 -128,120 -1,4 -1,8 -1,11z"/>
   <path class="fil5" d="M21393 7151c0,15 6,24 6,24 0,0 585,3 586,3 5,0 7,-12 8,-24l-600 -3z"/>
   <path class="fil3 str0" d="M21693 6948c38,34 57,85 70,135"/>
   <path class="fil3 str0" d="M21980 7030c-44,24 -78,64 -95,112 1,-1 2,-2 2,-4"/>
   <path class="fil22" d="M19229 1984c0,0 -2,15 -6,42 -4,27 -9,65 -13,112 -3,46 -7,101 0,158 3,28 9,58 22,85 7,13 15,25 27,33 5,5 12,7 18,9 6,3 16,2 22,3 29,0 54,-20 66,-47 12,-27 17,-57 20,-85 5,-57 1,-112 -3,-158 -5,-46 -10,-85 -14,-111 -4,-27 -7,-42 -7,-42 -16,-90 -34,-171 -47,-229 -7,-29 -12,-53 -16,-70 -4,-16 -5,-26 -5,-26 1,0 4,9 9,25 5,16 12,39 20,69 16,58 35,139 51,229 0,0 3,15 7,42 4,27 10,66 15,112 4,47 8,102 3,161 -3,29 -7,60 -21,89 -8,14 -16,29 -30,38 -13,11 -31,15 -47,16 -10,-1 -16,-1 -24,-4 -8,-3 -17,-6 -23,-12 -14,-9 -23,-24 -31,-38 -14,-29 -19,-60 -23,-89 -7,-59 -3,-114 0,-161 4,-47 9,-86 13,-113 4,-27 6,-42 6,-42 14,-90 33,-172 48,-230 7,-29 14,-53 19,-69 5,-16 8,-25 9,-25 1,0 -1,9 -4,26 -4,17 -9,40 -15,70 -12,59 -29,140 -44,230z"/>
   <line class="fil3 str17" x1="19606" y1="2952" x2="19606" y2= "1705" />
   <path class="fil26" d="M19499 2841l-19 -66c-9,-32 15,-63 48,-63l157 0c31,0 55,29 48,60l-14 70 -220 0z"/>
   <path class="fil26" d="M19748 3082l-284 0c0,0 -5,62 71,150 29,34 47,64 57,86 6,14 22,14 28,0 10,-23 27,-52 57,-86 76,-88 71,-150 71,-150z"/>
   <path class="fil8" d="M19606 2780c-234,0 -310,70 -310,166 0,96 46,168 310,168 264,0 310,-72 310,-168 0,-96 -76,-166 -310,-166z"/>
   <polyline class="fil3 str0" points="19373,2822 19478,3107 19606,2780 19737,3107 19827,2815 "/>
   <path class="fil3 str19" d="M19681 1590l0 45c0,30 -24,53 -53,53l-472 0c-28,0 -52,-22 -53,-50l-1 -48"/>
   <path class="fil27" d="M19262 2448c-2,35 -6,71 -17,106 -6,17 -13,34 -24,47 -6,6 -13,12 -20,16 -8,3 -16,5 -25,5 -18,0 -33,-8 -45,-21 -12,-13 -19,-30 -25,-47 -11,-34 -16,-71 -19,-106 0,-3 0,-6 0,-9 3,9 5,18 9,27 3,8 8,16 12,23 6,7 10,15 18,20l11 9c4,2 9,4 13,6 5,2 9,3 13,3l14 2c18,-1 38,-6 51,-20 7,-6 12,-14 17,-21 4,-8 9,-16 11,-24 3,-7 5,-14 7,-22 0,1 0,2 0,4zm-1 -79c-2,31 -7,62 -18,92 -10,31 -35,56 -67,56 -6,-1 -18,-1 -23,-5l-10 -4 -9 -7c-6,-4 -10,-12 -15,-18 -4,-7 -8,-14 -11,-21 -12,-30 -18,-62 -20,-94 0,-2 0,-3 0,-4 3,10 6,19 11,29 8,14 17,28 31,37 6,6 15,8 23,11 8,3 15,2 24,4 16,-1 34,-4 47,-15 14,-10 23,-24 30,-38 3,-7 6,-14 9,-22zm-173 -113c1,-13 2,-26 3,-38 0,6 1,13 1,19 2,26 7,53 17,79 5,13 12,26 23,37 10,11 28,18 40,18 16,1 32,-5 43,-17 10,-11 17,-25 21,-38 9,-27 12,-54 13,-80 1,-22 1,-42 1,-63 3,24 5,51 8,81 1,16 2,32 3,49 -3,27 -7,56 -20,81 -12,26 -36,46 -66,46 -6,-1 -16,-1 -22,-3 -6,-3 -13,-4 -18,-9 -12,-8 -20,-20 -27,-33 -13,-26 -18,-56 -22,-84 -1,-5 -1,-9 -1,-14 1,-11 1,-22 2,-33zm17 -144c0,8 1,16 1,23 2,21 5,44 13,66 4,11 10,22 18,31 5,4 9,9 16,11 3,1 7,3 10,4l8 1c14,1 28,-4 36,-15 8,-10 13,-21 16,-32 7,-22 9,-45 10,-66 0,-8 0,-15 1,-23 3,37 5,79 2,124 -2,25 -5,52 -13,77 -4,12 -10,24 -18,33 -8,9 -21,13 -31,13 -15,-1 -23,-6 -33,-15 -9,-9 -15,-20 -20,-32 -9,-24 -14,-51 -16,-76 -4,-45 -3,-87 0,-124zm171 227c1,-25 1,-49 0,-71 2,-45 -2,-88 -5,-125 -5,-46 -10,-85 -15,-111 -4,-27 -7,-42 -7,-42 -16,-89 -35,-170 -51,-227 -8,-29 -15,-52 -20,-68 -4,-12 -7,-20 -8,-23 0,-1 -1,-1 -1,-1l0 7c0,0 0,0 0,0 1,11 5,33 10,63 7,43 17,102 26,168 0,0 7,45 12,112 3,34 5,73 3,115 -1,21 -4,42 -10,63 -5,20 -19,40 -38,38l-8 -1c-2,-1 -4,-2 -6,-3 -4,-1 -8,-6 -11,-8 -6,-8 -12,-17 -15,-27 -7,-20 -11,-41 -12,-62 -3,-42 -2,-81 1,-115 5,-67 12,-112 12,-112 9,-65 19,-125 27,-168 1,-8 3,-15 4,-22l-9 -2c-4,13 -8,28 -12,46 -15,58 -33,139 -47,228 0,0 -2,15 -6,42 -4,27 -9,65 -13,112 -2,34 -5,72 -3,113 -1,22 -1,46 0,70 -1,38 -1,79 2,122 3,36 8,73 20,109 6,18 15,36 28,51 7,8 15,14 24,19 10,4 21,6 30,7 10,0 21,-2 30,-7 9,-5 17,-11 24,-19 13,-16 21,-34 27,-52 12,-37 16,-74 18,-109 2,-38 2,-75 1,-109z"/>
   <polygon class="fil2" points="17466,3756 17827,4430 17309,4430 "/>
   <polygon class="fil28" points="17466,3756 17119,4430 17309,4430 "/>
   <path class="fil29" d="M18701 3902c47,-53 91,-108 133,-166 31,-43 60,-89 82,-137 49,-112 53,-239 47,-362 -1,-27 -3,-54 -18,-76 -2,-4 -5,-7 -9,-9 -14,-6 -25,13 -30,27 -19,60 -49,116 -88,164 -125,153 -204,335 -244,528 41,11 87,19 128,31z"/>
   <path class="fil29" d="M17943 3457c-52,-163 -63,-337 -56,-508 1,-21 6,-46 26,-51 13,-3 26,6 33,17 7,11 10,24 14,37 16,50 54,89 83,132 63,92 91,203 146,300 22,38 48,73 67,112 52,103 55,223 55,339 0,8 0,16 -3,23 -4,8 -12,13 -20,18 -32,17 -98,37 -131,14 -33,-24 -59,-100 -79,-135 -53,-95 -102,-193 -135,-297z"/>
   <path class="fil23" d="M18276 3864c14,-105 -26,-210 -77,-302 -51,-93 -113,-180 -149,-280 -62,-170 -40,-357 -15,-536 15,-105 27,-212 50,-316 7,-32 18,-69 48,-82 27,-12 59,1 78,23 20,22 29,50 38,78 17,51 34,102 50,152 34,102 74,212 69,322 -3,80 17,159 44,234 24,69 65,117 81,191 35,167 19,343 -31,505 -2,6 -4,13 -9,17 -6,5 -14,5 -22,5 -47,1 -95,3 -142,4 -4,0 -8,0 -10,-3 -2,-3 -3,-14 -2,-10z"/>
   <path class="fil23" d="M18502 3398c14,-172 30,-353 128,-496 53,-77 129,-146 140,-239 2,-16 2,-34 8,-49 12,-26 34,-8 44,10 30,53 41,115 49,175 19,131 18,253 -2,384 -16,102 -37,207 -71,304 -37,106 -87,209 -148,303 -13,21 -28,42 -49,55 -30,18 -80,5 -114,2 -36,-3 -6,-170 -3,-204 7,-82 13,-164 20,-245z"/>
   <path class="fil23" d="M17827 3357c-1,-17 2,-38 18,-45 13,-5 27,3 37,13 21,20 26,48 43,71 32,45 84,66 126,101 28,24 51,54 70,86 49,82 77,176 81,271 -28,3 -55,5 -83,6 -88,3 -165,-129 -203,-197 -52,-93 -83,-199 -87,-306z"/>
   <path class="fil30" d="M18424 3844c3,-6 144,3 156,3 5,0 10,0 15,-3 4,-3 6,-7 8,-11 49,-106 89,-212 101,-329 2,-20 4,-39 5,-58 11,-165 -21,-333 -91,-483 -51,-110 -119,-233 -128,-356 -4,-60 -8,-113 0,-173 8,-59 18,-119 9,-178 -4,-24 -27,-109 -59,-65 -34,46 -47,109 -65,162 -22,65 -44,130 -66,195 -67,196 -94,401 -21,600 79,213 197,465 136,697z"/>
   <path class="fil4" d="M18779 3797c23,2 42,21 45,44 3,31 0,64 -4,95 -18,136 -57,269 -115,394 -13,27 -27,56 -52,72 -25,17 -57,20 -87,21 -64,4 -128,5 -192,4 -32,-1 -65,-2 -97,-4 -30,-2 -61,-1 -91,-7 -40,-8 -64,-37 -79,-74 -42,-102 -73,-208 -93,-316 -12,-65 -37,-140 -6,-195 5,-10 15,-16 26,-18 170,-32 608,-30 746,-17z"/>
   <path class="fil11" d="M18298 4060c0,0 61,-84 79,-136l72 0c0,0 -21,166 -92,211 -70,45 -130,17 -130,17l72 -92z"/>
   <path class="fil11" d="M17908 4157c-101,-2 -125,-76 -125,-87 0,-31 11,-93 37,-93 0,0 0,0 0,0 31,0 40,54 40,55l1 9 6 7c32,40 59,92 57,108 -2,1 -6,2 -16,2zm15 -144c-8,-40 -38,-102 -103,-102 0,0 0,0 0,0 -80,0 -102,100 -102,158 0,50 57,149 188,152 1,0 3,0 4,0 44,0 63,-20 72,-37 26,-52 -29,-133 -59,-172z"/>
   <path class="fil11" d="M18232 3887c0,0 -13,-140 -131,-140 -118,0 -131,140 -131,140 0,0 109,47 262,0z"/>
   <path class="fil11" d="M18135 3723c0,-21 -17,-38 -38,-38 -21,0 -38,17 -38,38 0,21 17,38 38,38 21,0 38,-17 38,-38z"/>
   <path class="fil8" d="M17952 4274l278 0c16,0 32,-7 43,-19 37,-42 59,-97 59,-157 0,-133 -108,-284 -241,-284 -133,0 -241,151 -241,284 0,60 22,115 59,157 11,12 27,19 43,19z"/>
   <path class="fil9" d="M18126 4067c0,-16 -13,-30 -30,-30 -16,0 -30,13 -30,30 0,16 13,30 30,30 16,0 30,-13 30,-30z"/>
   <polygon class="fil1" points="18096,3937 18056,3978 18096,4018 18137,3978 "/>
   <polygon class="fil1" points="17967,4067 18007,4107 18047,4067 18007,4027 "/>
   <polygon class="fil1" points="18096,4197 18137,4156 18096,4116 18056,4156 "/>
   <polygon class="fil1" points="18226,4067 18186,4027 18145,4067 18186,4107 "/>
   <polygon class="fil1" points="18005,4032 18062,4032 18062,3975 18005,3975 "/>
   <polygon class="fil1" points="18005,4159 18062,4159 18062,4102 18005,4102 "/>
   <polygon class="fil1" points="18131,4159 18188,4159 18188,4102 18131,4102 "/>
   <polygon class="fil1" points="18131,4032 18188,4032 18188,3975 18131,3975 "/>
   <line class="fil3 str20" x1="15547" y1="3170" x2="15547" y2= "3302" />
   <path class="fil8" d="M15576 3322c0,23 -13,41 -30,41 -16,0 -30,-18 -30,-41 0,-23 13,-41 30,-41 16,0 30,18 30,41z"/>
   <path class="fil4" d="M15885 4428l-475 0c0,0 28,-768 72,-916 36,-120 173,-157 224,-167 11,-2 19,-12 19,-23l0 -119 321 0 0 119c0,11 8,21 19,23 51,10 188,47 224,167 44,148 72,916 72,916l-475 0z"/>
   <polygon class="fil9" points="16360,3225 15388,3225 15542,2171 16206,2171 "/>
   <line class="fil3 str21" x1="16144" y1="2242" x2="16280" y2= "3170" />
   <line class="fil3 str21" x1="16063" y1="2249" x2="16144" y2= "3170" />
   <line class="fil3 str21" x1="15967" y1="2249" x2="15998" y2= "3170" />
   <line class="fil3 str21" x1="15604" y1="2242" x2="15468" y2= "3170" />
   <line class="fil3 str21" x1="15685" y1="2249" x2="15604" y2= "3170" />
   <line class="fil3 str21" x1="15781" y1="2249" x2="15750" y2= "3170" />
   <line class="fil3 str21" x1="15874" y1="2249" x2="15874" y2= "3178" />
   <path class="fil8" d="M16808 3557c-11,0 -19,-9 -19,-19l0 -116c0,-11 9,-19 19,-19 11,0 19,9 19,19l0 116c0,11 -9,19 -19,19z"/>
   <path class="fil2" d="M16988 3568c0,22 -24,39 -55,39l-327 0c-30,0 -55,-17 -55,-39 0,-22 24,-39 55,-39l327 0c30,0 55,17 55,39z"/>
   <path class="fil8" d="M16668 3460c-244,0 -443,-199 -443,-443 0,-211 150,-394 357,-434 8,-1 15,4 17,11 2,8 -4,15 -11,17 -194,38 -334,208 -334,406 0,228 186,414 414,414 92,0 180,-30 252,-86 6,-5 15,-4 20,3 5,6 4,15 -3,20 -78,60 -171,92 -270,92z"/>
   <path class="fil8" d="M16808 3436c-6,0 -11,-4 -13,-9l-307 -798c-3,-7 1,-16 8,-19 7,-3 16,1 19,8l307 798c3,7 -1,16 -8,19 -2,1 -3,1 -5,1z"/>
   <path class="fil31" d="M17047 3017c0,209 -169,379 -379,379 -131,0 -247,-67 -315,-169 -40,-60 -64,-132 -64,-210 0,-209 170,-379 379,-379 27,0 52,3 78,8 172,36 301,188 301,371z"/>
   <path class="fil25" d="M17047 3017c0,-209 -170,-379 -379,-379 -209,0 -379,170 -379,379 0,209 170,379 379,379 209,0 379,-170 379,-379z"/>
   <path class="fil23" d="M16544 2791c33,-1 69,-11 99,4 22,11 37,34 43,57 16,61 -21,130 -81,150 -23,8 -48,9 -69,21 -21,12 -35,42 -19,61 7,8 17,12 26,17 9,5 17,15 15,25 -3,12 -18,16 -30,16 -41,0 -80,-26 -97,-63 -12,-26 -13,-56 -13,-85 0,-29 1,-59 -7,-86 -9,-28 -29,-54 -57,-60 -7,-2 -14,-2 -21,-2 21,-40 48,-76 81,-106 11,9 21,19 31,25 30,19 65,29 100,28z"/>
   <path class="fil23" d="M16586 3132c-3,2 -6,5 -9,7 -13,12 -27,28 -23,47 4,23 13,43 21,64 17,44 24,92 21,139 23,5 47,7 72,7l3 0 0 -2c5,-51 25,-101 57,-142 8,-10 17,-21 23,-33 5,-12 7,-27 0,-38 -12,-19 -39,-18 -60,-23 -18,-5 -34,-15 -51,-23 -13,-6 -31,-13 -45,-7 -3,1 -6,3 -9,5z"/>
   <path class="fil23" d="M16914 2845c-16,21 -13,51 -25,75 -9,16 -24,28 -36,41 -13,13 -24,31 -21,49 11,6 26,4 37,-2 12,-5 22,-13 34,-19 36,-16 85,-1 99,35 5,14 5,28 8,43 3,14 10,29 23,35 1,1 3,1 4,1 6,-28 10,-57 10,-86 0,-72 -20,-138 -54,-195 -27,-9 -59,-4 -79,24z"/>
   <path class="fil23" d="M16964 3043c-20,2 -35,-17 -54,-23 -25,-8 -51,8 -71,25 -12,10 -24,22 -29,37 -5,15 -2,34 12,42 20,13 49,-2 67,12 18,14 12,42 14,65 3,33 26,54 54,60 32,-37 56,-80 71,-128 -2,-5 -4,-10 -6,-15 -7,-18 -13,-36 -21,-53 -9,-22 -14,-26 -38,-24z"/>
   <path class="fil1" d="M18091 4246l-384 0c29,65 100,118 134,140 12,8 26,12 42,12l416 0c15,0 30,-4 42,-12 34,-23 106,-75 134,-140l-384 0z"/>
   <path class="fil25" d="M18904 3997l-349 15c32,124 101,222 134,264 11,14 25,22 39,21l189 -8 189 -8c14,-1 27,-9 37,-24 29,-45 90,-149 110,-275l-349 16z"/>
   <line class="fil3 str22" x1="19210" y1="4043" x2="18619" y2= "4069" />
   <path class="fil23" d="M18912 4128l-380 56c40,73 119,125 157,146 13,7 28,10 43,8l206 -30 206 -30c15,-2 29,-9 39,-20 30,-32 92,-104 109,-185l-380 56z"/>
   <path class="fil1" d="M18908 4246l-384 0c29,78 100,141 134,168 12,9 26,14 42,14l416 0c15,0 30,-5 41,-14 34,-27 106,-90 134,-168l-384 0z"/>
   <path class="fil25" d="M18083 4311l-384 0c29,50 100,91 134,108 12,6 26,9 41,9l416 0c15,0 30,-3 41,-9 34,-17 106,-58 134,-108l-384 0z"/>
   <path class="fil3 str22" d="M19241 4307c-32,0 -32,-36 -65,-36 -32,0 -32,36 -65,36 -32,0 -32,-36 -65,-36 -32,0 -32,36 -65,36 -32,0 -32,-36 -65,-36 -32,0 -32,36 -65,36 -32,0 -32,-36 -65,-36 -33,0 -33,36 -65,36 -33,0 -33,-36 -65,-36 -33,0 -33,36 -65,36"/>
   <line class="fil3 str13" x1="18429" y1="4335" x2="17753" y2= "4335" />
   <polygon class="fil9" points="15687,3636 15643,3644 15725,4109 15770,4101 "/>
   <polygon class="fil23" points="15803,3581 15773,3582 15789,4077 15819,4076 "/>
   <polygon class="fil23" points="16007,3637 15928,4066 15957,4071 16037,3643 "/>
   <polygon class="fil11" points="16041,3767 15936,4118 15964,4127 16070,3775 "/>
   <polygon class="fil8" points="15938,3706 15876,4130 15921,4136 15982,3713 "/>
   <polygon class="fil9" points="15891,3655 15873,4083 15904,4085 15921,3656 "/>
   <polygon class="fil11" points="15868,3669 15823,3670 15830,4044 15875,4043 "/>
   <polygon class="fil8" points="15798,4093 15752,3692 15722,3696 15768,4096 "/>
   <polygon class="fil1" points="15670,4428 16032,4428 16032,4016 15670,4016 "/>
   <polygon class="fil32" points="15670,4136 16032,4136 16032,4016 15670,4016 "/>
   <polygon class="fil32" points="15670,4306 16032,4306 16032,4222 15670,4222 "/>
   <path class="fil9" d="M16344 4314l935 0 0 114 -935 0c-11,0 -19,-9 -19,-19l0 -76c0,-11 8,-19 19,-19z"/>
   <polygon class="fil1" points="16377,4407 17279,4407 17279,4335 16377,4335 "/>
   <path class="fil25" d="M17249 4004l-924 0 0 178 924 0c16,0 30,-13 30,-30l0 -119c0,-16 -13,-30 -30,-30z"/>
   <polygon class="fil1" points="16325,4157 17226,4157 17226,4029 16325,4029 "/>
   <path class="fil23" d="M16344 4190l935 0 0 114 -935 0c-11,0 -19,-8 -19,-19l0 -76c0,-10 8,-19 19,-19z"/>
   <polygon class="fil1" points="16373,4283 17279,4283 17279,4211 16373,4211 "/>
   <polygon class="fil9" points="16377,3995 17265,3995 17265,3881 16377,3881 "/>
   <polygon class="fil9" points="16377,3721 17265,3721 17265,3607 16377,3607 "/>
   <polygon class="fil8" points="16338,3872 17225,3872 17225,3730 16338,3730 "/>
   <line class="fil3 str0" x1="17194" y1="4061" x2="16667" y2= "4061" />
   <line class="fil3 str0" x1="16916" y1="4107" x2="16388" y2= "4107" />
   <line class="fil3 str0" x1="16388" y1="3741" x2="16388" y2= "3862" />
   <line class="fil3 str0" x1="16428" y1="3741" x2="16428" y2= "3862" />
   <line class="fil3 str0" x1="17125" y1="3741" x2="17125" y2= "3862" />
   <line class="fil3 str0" x1="17164" y1="3741" x2="17164" y2= "3862" />
   <polygon class="fil21" points="14504,6582 16321,6582 16321,6442 14504,6442 "/>
   <polygon class="fil21" points="14431,5777 15887,5777 15887,5637 14431,5637 "/>
   <polygon class="fil21" points="14388,7178 14253,7178 14670,5682 14836,5658 "/>
   <path class="fil21" d="M15661 5682l-167 -24 247 836c49,0 98,0 146,0l-226 -812z"/>
   <path class="fil21" d="M16552 7178l-204 -737c-49,0 -96,0 -145,0l213 737 135 0z"/>
   <polygon class="fil8" points="14333,5707 15997,5707 15997,5579 14333,5579 "/>
   <polygon class="fil8" points="15887,6506 16398,6506 16398,6378 15887,6378 "/>
   <path class="fil29" d="M15989 4920c-15,-25 -62,-24 -104,2 -10,7 -26,18 -44,35 -17,17 -33,38 -43,60 -3,7 -6,14 -9,21 -3,-7 -7,-15 -12,-22 -23,-43 -58,-87 -79,-108 -21,-21 -45,-34 -65,-40 -21,-6 -38,-3 -48,8 -19,23 0,69 38,107 20,19 60,52 96,80 21,16 41,31 57,39l6 84c2,24 4,49 7,73 3,20 6,40 10,60 1,6 7,11 13,11 1,0 2,0 3,0 7,-2 12,-9 10,-16 -4,-19 -7,-38 -10,-57 -3,-24 -5,-48 -7,-72l-6 -80c1,-1 1,-2 2,-3 4,-2 9,-5 13,-9 11,-9 24,-20 38,-31 14,-11 30,-21 44,-28 14,-7 29,-15 39,-21 42,-26 64,-67 48,-92z"/>
   <path class="fil33" d="M15905 5579l-228 0 -49 -323c-5,-31 19,-59 51,-59l226 0c31,0 55,28 51,59l-49 323z"/>
   <path class="fil29" d="M15443 6551c0,0 18,22 37,60 19,37 39,90 42,149 3,59 -11,114 -26,153 -15,39 -31,63 -31,63 0,0 -16,-24 -33,-62 -17,-38 -35,-90 -38,-148 -3,-58 9,-111 22,-151 13,-39 26,-65 26,-65z"/>
   <path class="fil23" d="M14617 6663c0,0 33,4 74,14 41,11 90,27 128,60 38,33 61,79 78,118 16,39 25,71 25,71 0,0 -31,10 -77,9 -45,0 -105,-14 -151,-54 -47,-40 -68,-98 -75,-142 -7,-45 -2,-77 -2,-77z"/>
   <path class="fil23" d="M15632 6665c0,0 29,95 -14,172 -22,39 -62,68 -95,80 -17,6 -32,9 -42,10 -11,1 -17,0 -17,0 0,0 3,-26 5,-55 3,-31 6,-67 26,-104 41,-74 136,-103 136,-103z"/>
   <path class="fil23" d="M15261 6658c0,0 6,3 15,8 9,5 22,13 36,21 28,17 62,36 89,68 27,31 44,72 53,105 10,33 12,59 12,59 0,0 -26,1 -60,-8 -34,-8 -79,-26 -112,-65 -34,-39 -46,-90 -45,-128 0,-19 3,-34 6,-45 3,-11 6,-16 6,-16z"/>
   <path class="fil29" d="M14834 6495c0,0 23,23 49,61 26,38 53,90 62,151 9,61 -3,119 -17,163 -14,43 -30,72 -30,72 0,0 -25,-21 -52,-58 -27,-37 -56,-90 -65,-153 -9,-62 5,-121 20,-165 16,-43 34,-71 34,-71z"/>
   <path class="fil23" d="M15033 6639c0,0 18,24 30,62 12,37 17,89 -6,134 -23,45 -68,71 -106,82 -38,12 -68,11 -68,11 0,0 -7,-29 -11,-66 -3,-37 -4,-80 14,-116 18,-36 55,-60 87,-78 32,-18 60,-29 60,-29z"/>
   <path class="fil29" d="M14952 6500c0,0 122,57 181,174 59,117 32,249 32,249 0,0 -122,-57 -181,-174 -59,-117 -32,-249 -32,-249z"/>
   <path class="fil23" d="M15148 6410c0,0 29,26 59,72 30,45 62,110 69,185 6,75 -15,144 -37,194 -22,50 -46,81 -46,81 0,0 -26,-29 -54,-75 -28,-47 -57,-110 -63,-183 -6,-72 12,-140 32,-191 20,-50 41,-83 41,-83z"/>
   <path class="fil29" d="M15348 6504c0,0 4,7 9,20 5,13 11,32 15,55 9,46 9,111 -18,173 -28,62 -76,104 -117,129 -20,12 -38,20 -51,25 -13,5 -21,7 -21,7 0,0 -1,-33 2,-77 4,-44 11,-100 35,-152 23,-52 59,-95 90,-127 31,-32 56,-53 56,-53z"/>
   <polygon class="fil4" points="14622,6880 14687,7180 15610,7180 15675,6880 "/>
   <path class="fil23" d="M14724 4968c0,0 -48,-377 -281,-616 -232,-240 -457,-304 -528,-185 -72,119 11,203 405,470 393,268 346,348 346,348l59 -17z"/>
   <path class="fil23" d="M14982 3534c174,28 197,269 150,436 -48,167 -259,476 -275,704 -17,228 -17,312 -17,312l-75 9c0,0 -150,-362 -136,-716 14,-354 94,-786 354,-745z"/>
   <path class="fil23" d="M14844 4985c-3,-306 127,-609 241,-797 114,-188 404,-242 459,-145 55,97 -62,356 -147,451 -85,95 -274,173 -368,292 -93,119 -116,208 -116,208l-70 -9z"/>
   <path class="fil3 str20" d="M14889 4925c50,-309 222,-596 471,-786"/>
   <path class="fil3 str20" d="M14691 4930c-76,-236 -246,-432 -444,-581 -59,-45 -122,-86 -186,-123"/>
   <path class="fil3 str20" d="M14957 3698c-21,36 -31,77 -41,118 -61,244 -121,490 -137,741 -7,119 -5,238 -2,357"/>
   <path class="fil11" d="M14792 5579l161 0c121,-104 168,-520 169,-640 0,-18 -12,-32 -27,-32l-607 0c-15,0 -27,15 -27,32 1,120 48,536 169,640l161 0 0 0z"/>
   <line class="fil3 str23" x1="15115" y1="5050" x2="14469" y2= "5050" />
   <line class="fil3 str5" x1="15110" y1="5099" x2="14474" y2= "5099" />
   <line class="fil3 str5" x1="15120" y1="4997" x2="14464" y2= "4997" />
   <path class="fil3 str20" d="M16030 5964c0,0 -108,26 -84,73 24,47 106,-53 106,-53"/>
   <path class="fil3 str20" d="M16096 6017c0,0 -43,61 -6,80 36,19 73,-64 73,-64"/>
   <path class="fil3 str20" d="M16191 5849c0,0 -6,-157 54,-142 60,16 0,169 0,169"/>
   <path class="fil0" d="M1979 1653c44,137 157,252 295,292 111,32 232,14 340,-29 154,-61 290,-179 347,-334 38,-104 40,-218 21,-327 -25,-144 -95,-292 -226,-358 -153,-77 -337,-21 -491,53 -260,125 -378,420 -286,704z"/>
   <path class="fil1" d="M1221 5416c0,-174 -141,-314 -314,-314 -174,0 -314,141 -314,314 0,174 141,314 314,314 174,0 314,-141 314,-314z"/>
   <path class="fil1" d="M23515 5546c15,30 22,66 24,104 3,83 -106,135 -181,117 -86,-20 -133,-134 -89,-211 28,-49 86,-75 142,-73 53,2 85,27 105,64z"/>
   <path class="fil16" d="M3006 1999c2,18 5,35 10,49 5,17 13,35 6,51 -5,12 -17,21 -26,30 -17,18 -14,52 -21,75 -9,28 -22,56 -41,78 -34,39 -91,62 -139,42 -43,-18 -67,-65 -81,-110 -31,-96 -17,-202 16,-296 24,-68 86,-171 174,-148 101,25 92,141 102,229z"/>
   <path class="fil3 str14" d="M1535 5848c0,0 54,-925 96,-1143 41,-218 213,86 213,86l56 1057"/>
   <path class="fil6" d="M1984 5848l-532 0c-28,0 -50,22 -50,50l0 370c0,28 22,50 50,50l532 0c28,0 50,-22 50,-50l0 -370c0,-28 -22,-50 -50,-50z"/>
   <line class="fil3 str24" x1="1426" y1="6067" x2="2000" y2= "6067" />
   <path class="fil8" d="M1644 6067c0,20 33,37 74,37 41,0 74,-16 74,-37 0,-20 -33,-37 -74,-37 -41,0 -74,16 -74,37z"/>
   <path class="fil16" d="M2804 2256c-4,95 -51,185 -28,280 -13,6 -31,1 -45,-2 -54,-12 -109,-16 -164,-14 5,-79 -6,-182 -6,-261 15,3 243,-15 243,-3z"/>
   <path class="fil16" d="M2509 5103c3,21 0,1018 -43,1826 0,0 -112,59 -163,2 -51,-57 -237,-1493 -185,-1752 52,-259 391,-76 391,-76z"/>
   <path class="fil16" d="M1926 3103c0,0 -133,910 -178,1349 0,0 -126,151 -116,255 10,104 190,141 213,86 23,-55 25,-291 25,-291 0,0 298,-933 298,-1264 0,-330 -241,-135 -241,-135z"/>
   <path class="fil5" d="M2486 2276c-105,-100 -135,-270 -72,-400 63,-130 215,-212 358,-192 78,11 176,56 216,128 1,1 2,3 1,5 -5,18 -31,22 -45,27 -21,8 -38,18 -53,36 -31,35 -46,81 -55,126 -13,68 -14,140 -47,200 -29,52 -79,90 -134,115 -10,5 -18,22 -25,24 -13,5 -40,-8 -53,-13 -33,-13 -66,-31 -92,-56z"/>
   <path class="fil5" d="M2535 2230c-38,20 -69,69 -90,95 -46,56 -87,116 -116,182 -47,107 -57,235 -1,338 30,56 78,100 120,147 42,47 81,102 89,165 35,18 71,-1 98,-29 53,-55 56,-119 71,-189 13,-61 17,-110 3,-173 -30,-128 -103,-244 -102,-378 0,-44 38,-150 -27,-164 -15,-3 -30,0 -44,7z"/>
   <path class="fil8" d="M2604 2270c-21,-21 -48,-36 -77,-44 -16,-4 -35,-6 -47,6 -14,14 -9,37 1,54 22,37 63,52 104,53 47,1 51,-38 19,-69z"/>
   <path class="fil1" d="M2772 7160c0,12 -5,20 -5,20 0,0 -492,0 -493,0 -4,0 -6,-10 -7,-20 -1,-10 -1,-20 -1,-22 0,-27 3,-54 7,-80 3,-18 7,-79 10,-97 3,-14 6,-33 20,-30 52,52 120,-42 163,-2 0,0 12,17 53,55 41,37 85,43 145,68 77,32 103,77 108,99 1,3 1,6 1,9z"/>
   <path class="fil5" d="M2772 7152c0,12 -5,20 -5,20 0,0 -492,0 -493,0 -4,0 -6,-10 -7,-20l505 0z"/>
   <path class="fil3 str14" d="M2532 6994c-8,10 -15,20 -23,30"/>
   <path class="fil3 str14" d="M2560 7012c-8,10 -15,20 -23,30"/>
   <path class="fil3 str14" d="M2592 7023c-8,10 -15,20 -23,30"/>
   <path class="fil3 str14" d="M2625 7034c-8,10 -15,20 -23,30"/>
   <path class="fil3 str14" d="M2289 7006c40,30 65,81 62,131"/>
   <path class="fil3 str14" d="M2691 7067c-26,17 -43,45 -46,75"/>
   <path class="fil3 str14" d="M2165 2848c-35,136 -55,275 -60,415"/>
   <path class="fil3 str14" d="M3100 3233c-43,186 -100,368 -170,545"/>
   <path class="fil3 str14" d="M2154 3508c27,106 65,210 112,309"/>
   <line class="fil3 str14" x1="3015" y1="4029" x2="3020" y2= "4061" />
   <path class="fil5" d="M2925 1942c-13,6 -25,14 -37,23 -7,6 -22,22 -3,21 16,0 36,-7 50,-15 7,-3 13,-8 15,-16 5,-16 -15,-19 -25,-14z"/>
   <path class="fil5" d="M2944 2036c-10,5 -15,-11 -15,-19 0,-8 8,-26 18,-22 9,4 7,21 5,28 -1,4 -3,8 -6,11 -1,1 -2,1 -2,2z"/>
   <path class="fil3 str25" d="M2880 2180c15,18 33,34 53,46"/>
  </g>
 </g>
</svg>
