<?xml version="1.0" encoding="UTF-8"?>
<!DOCTYPE svg PUBLIC "-//W3C//DTD SVG 1.1//EN" "http://www.w3.org/Graphics/SVG/1.1/DTD/svg11.dtd">
<!-- Creator: CorelDRAW X6 -->
<svg xmlns="http://www.w3.org/2000/svg" xml:space="preserve" width="329.929mm" height="183.348mm" version="1.1" style="shape-rendering:geometricPrecision; text-rendering:geometricPrecision; image-rendering:optimizeQuality; fill-rule:evenodd; clip-rule:evenodd"
viewBox="0 0 30789 17110"
 xmlns:xlink="http://www.w3.org/1999/xlink">
 <defs>
  <style type="text/css">
   <![CDATA[
    .fil7 {fill:#102048;fill-rule:nonzero}
    .fil11 {fill:#162B62;fill-rule:nonzero}
    .fil9 {fill:#1F3C88;fill-rule:nonzero}
    .fil12 {fill:#213E89;fill-rule:nonzero}
    .fil3 {fill:#2A4FAF;fill-rule:nonzero}
    .fil2 {fill:#3A6BEA;fill-rule:nonzero}
    .fil20 {fill:#5B4DAD;fill-rule:nonzero}
    .fil17 {fill:#652B14;fill-rule:nonzero}
    .fil10 {fill:#677391;fill-rule:nonzero}
    .fil21 {fill:#6F5ED3;fill-rule:nonzero}
    .fil19 {fill:#7D69ED;fill-rule:nonzero}
    .fil8 {fill:#86A7FF;fill-rule:nonzero}
    .fil16 {fill:#AB4446;fill-rule:nonzero}
    .fil0 {fill:#D3DFFF;fill-rule:nonzero}
    .fil6 {fill:#DADADA;fill-rule:nonzero}
    .fil5 {fill:#DAE4FF;fill-rule:nonzero}
    .fil14 {fill:#E28B6D;fill-rule:nonzero}
    .fil1 {fill:#EAF0FF;fill-rule:nonzero}
    .fil15 {fill:#EB5D60;fill-rule:nonzero}
    .fil18 {fill:#F39176;fill-rule:nonzero}
    .fil13 {fill:#F9B384;fill-rule:nonzero}
    .fil22 {fill:#FBC343;fill-rule:nonzero}
    .fil4 {fill:white;fill-rule:nonzero}
   ]]>
  </style>
 </defs>
 <g id="Layer_x0020_1">
  <metadata id="CorelCorpID_0Corel-Layer"/>
  <g id="_827013536">
   <path class="fil0" d="M5499 17048l22559 0c595,-634 1113,-1385 1541,-2232 431,-852 745,-1753 936,-2678 198,-961 251,-1902 158,-2797 -99,-954 -362,-1828 -783,-2597 -367,-672 -790,-1170 -1292,-1523 -447,-314 -948,-506 -1532,-586 -1087,-149 -2304,123 -3481,387 -770,172 -1566,351 -2320,410 -873,69 -1811,-40 -2786,-322 -829,-240 -1692,-602 -2639,-1108 -783,-418 -1555,-894 -2301,-1354 -859,-529 -1747,-1077 -2656,-1539 -820,-416 -1539,-690 -2200,-835 -835,-184 -1588,-173 -2302,34 -1355,392 -2415,1283 -3152,2648 -1515,2805 -1312,6977 -484,9667 269,872 642,1673 1142,2450 425,661 947,1308 1594,1977zm22581 52l-22603 0 -8 -8c-653,-675 -1179,-1327 -1608,-1993 -502,-781 -878,-1586 -1148,-2463 -452,-1466 -678,-3189 -638,-4853 45,-1895 435,-3573 1126,-4854 744,-1378 1815,-2277 3183,-2673 722,-209 1484,-220 2328,-34 665,147 1389,421 2213,840 911,463 1800,1011 2660,1541 746,460 1516,935 2298,1353 944,504 1804,865 2629,1104 969,280 1900,388 2768,320 750,-59 1545,-237 2313,-409 1182,-265 2403,-538 3500,-388 592,81 1100,276 1554,595 509,358 937,862 1308,1541 423,775 689,1656 789,2617 94,900 40,1847 -159,2813 -191,930 -508,1836 -940,2692 -432,855 -956,1613 -1558,2252l-7 8z"/>
   <path class="fil1" d="M28500 13192c1654,-4975 1547,-12699 -5208,-13173 -2209,-155 -4457,652 -6507,1388 -1697,609 -3873,1505 -4403,3426 -208,754 -268,2130 -1353,2051 -2882,-210 -6231,-2095 -8150,1158 -1649,2796 -513,6796 1756,9031l21274 0c1112,-1065 2055,-2273 2590,-3882z"/>
   <polygon class="fil2" points="12658,17071 18204,17071 18204,12354 12658,12354 "/>
   <polygon class="fil3" points="18204,15459 12658,14962 12658,14036 18204,14036 "/>
   <path class="fil2" d="M23938 14036l-17013 0c-243,0 -441,-197 -441,-441l0 -11749c0,-243 197,-441 441,-441l17013 0c244,0 441,197 441,441l0 11749c0,243 -197,441 -441,441z"/>
   <polygon class="fil4" points="7331,13152 23532,13152 23532,2000 7331,2000 "/>
   <path class="fil5" d="M14406 13152l-7075 0 0 -8379 6764 0c172,0 311,139 311,311l0 8068z"/>
   <path class="fil5" d="M23532 13152l-7430 0 0 -8068c0,-172 139,-311 311,-311l337 0 0 7119c0,243 198,441 441,441l6342 0 0 819z"/>
   <path class="fil4" d="M4837 11892c0,229 186,415 415,415l8048 0c229,0 415,-186 415,-415l0 -8225 -8878 0 0 8225z"/>
   <path class="fil2" d="M4863 3693l0 8199c0,214 174,389 389,389l8048 0c214,0 389,-174 389,-389l0 -8199 -8826 0zm8437 8639l-8048 0c-243,0 -441,-198 -441,-441l0 -8251 8930 0 0 8251c0,243 -198,441 -441,441z"/>
   <path class="fil2" d="M13301 2759l-8048 0c-229,0 -415,186 -415,415l0 494 8878 0 0 -494c0,-229 -186,-415 -415,-415z"/>
   <path class="fil2" d="M4863 3642l8826 0 0 -468c0,-214 -174,-389 -389,-389l-8048 0c-214,0 -389,174 -389,389l0 468zm8878 52l-8930 0 0 -520c0,-243 198,-441 441,-441l8048 0c243,0 441,198 441,441l0 520z"/>
   <path class="fil4" d="M5684 3210c0,100 -81,181 -181,181 -100,0 -181,-81 -181,-181 0,-100 81,-181 181,-181 100,0 181,81 181,181z"/>
   <path class="fil6" d="M5674 6803l7204 0 0 -2358 -7204 0 0 2358zm7256 52l-7308 0 0 -2462 7308 0 0 2462z"/>
   <polygon class="fil6" points="5648,6253 12904,6253 12904,6201 5648,6201 "/>
   <polygon class="fil6" points="5648,5650 12904,5650 12904,5598 5648,5598 "/>
   <polygon class="fil6" points="5648,5047 12904,5047 12904,4996 5648,4996 "/>
   <polygon class="fil6" points="12153,6829 12205,6829 12205,4419 12153,4419 "/>
   <polygon class="fil6" points="11427,6829 11479,6829 11479,4419 11427,4419 "/>
   <polygon class="fil6" points="10702,6829 10753,6829 10753,4419 10702,4419 "/>
   <polygon class="fil6" points="9976,6829 10028,6829 10028,4419 9976,4419 "/>
   <polygon class="fil6" points="9250,6829 9302,6829 9302,4419 9250,4419 "/>
   <polygon class="fil6" points="8525,6829 8577,6829 8577,4419 8525,4419 "/>
   <polygon class="fil6" points="7799,6829 7851,6829 7851,4419 7799,4419 "/>
   <polygon class="fil6" points="7074,6829 7125,6829 7125,4419 7074,4419 "/>
   <polygon class="fil6" points="6348,6829 6400,6829 6400,4419 6348,4419 "/>
   <path class="fil2" d="M12872 6854c-50,-101 -107,-216 -196,-294 -105,-91 -235,-108 -332,-43 -20,14 -42,34 -64,56 -62,60 -138,134 -236,94 -71,-29 -112,-83 -152,-136 -25,-33 -49,-65 -80,-90 -73,-60 -165,-55 -287,15l-8 5c-74,42 -165,95 -251,-5 -41,-47 -51,-106 -61,-163 -8,-48 -17,-94 -42,-130 -74,-105 -178,-142 -283,-101 -53,21 -115,93 -181,169 -95,111 -201,234 -315,234 -27,0 -55,-7 -84,-23 -90,-51 -84,-163 -78,-262 5,-92 11,-178 -50,-216 -77,-49 -178,38 -226,108 -73,105 -194,206 -300,194 -45,-5 -108,-33 -149,-138 -33,-83 -28,-174 -23,-261 3,-60 7,-117 -2,-170 -13,-81 -78,-189 -181,-176 -73,9 -110,75 -148,146 -21,39 -43,80 -73,110 -45,47 -88,65 -129,54 -48,-13 -84,-64 -105,-148 -1,-4 -2,-9 -4,-16 -26,-116 -46,-133 -54,-135 -1,0 -7,1 -17,13 -26,30 -26,74 -26,122 0,40 0,82 -16,119 -22,50 -68,85 -129,95 -75,13 -159,-15 -208,-68 -71,-77 -97,-195 -80,-351 14,-126 12,-463 -79,-515 -23,-13 -53,-5 -91,23 -55,41 -89,152 -98,243 -19,194 -80,386 -177,555 -30,52 -74,114 -143,126 -37,6 -74,-4 -107,-28 -45,-34 -77,-93 -84,-154 -6,-50 0,-99 6,-146 5,-38 9,-73 8,-109 -2,-75 -44,-157 -111,-163 -35,-3 -102,57 -155,105 -79,70 -146,131 -203,110 -32,-12 -51,-45 -58,-103 -1,-10 -2,-21 -3,-32 -3,-50 -8,-89 -37,-95 -27,-6 -40,2 -48,8 -48,40 -46,185 -44,272 1,43 1,78 -3,98 -12,59 -54,115 -104,141 -37,19 -76,20 -110,4 -76,-35 -89,-127 -93,-203l-23 -517c-3,-61 -13,-146 -69,-170 -19,-8 -40,-8 -62,1 -37,15 -73,52 -91,95 -12,29 -20,61 -29,94 -12,46 -24,94 -50,138 -29,50 -86,87 -141,93 -40,4 -76,-8 -101,-35 -44,-47 -37,-111 -31,-168 3,-28 7,-57 4,-83 -7,-57 -43,-88 -73,-104 -64,-35 -158,-38 -225,-6l-22 -47c82,-39 194,-36 272,7 58,32 92,82 99,144 4,31 0,64 -4,95 -6,52 -11,97 17,126 14,15 34,21 58,19 39,-4 81,-32 103,-68 22,-37 33,-79 44,-124 9,-33 17,-68 31,-101 24,-56 69,-103 119,-123 35,-14 70,-14 102,-1 83,36 97,140 100,215l23 517c3,62 12,135 63,159 20,9 42,8 65,-3 37,-19 68,-62 77,-105 3,-15 2,-50 2,-87 -2,-108 -5,-257 63,-313 25,-20 56,-27 92,-19 70,15 75,92 78,143 1,11 1,20 2,28 5,34 14,57 25,61 28,10 99,-53 151,-100 71,-63 138,-123 195,-118 99,9 155,117 158,214 1,40 -4,79 -8,116 -6,47 -11,90 -6,134 5,46 31,93 64,118 21,16 44,22 67,19 48,-8 82,-58 107,-100 93,-163 152,-347 170,-534 9,-95 46,-225 118,-280 56,-42 106,-51 148,-27 149,85 105,561 104,565 -16,140 7,245 67,311 38,41 102,62 161,52 25,-4 70,-18 90,-64 12,-27 12,-62 12,-98 0,-52 0,-111 38,-156 27,-32 53,-33 69,-29 51,13 74,96 92,174 1,6 2,11 3,14 15,62 41,103 68,110 27,7 58,-18 79,-40 25,-26 44,-62 65,-99 41,-75 88,-161 187,-173 125,-15 219,100 238,219 10,59 6,121 2,181 -5,82 -10,166 19,239 26,65 62,101 107,106 85,10 190,-82 252,-172 72,-104 195,-186 296,-123 87,54 80,165 74,263 -6,92 -11,178 52,214 109,62 224,-71 334,-199 70,-81 136,-158 201,-184 128,-50 256,-6 345,119 32,46 42,99 51,151 9,52 18,102 50,139 55,64 104,41 186,-6l8 -5c142,-81 254,-84 345,-10 36,29 63,65 89,99 37,49 72,96 130,119 62,25 112,-17 181,-83 24,-24 47,-46 71,-62 117,-79 272,-60 395,47 97,85 156,205 208,310l-47 23z"/>
   <path class="fil7" d="M7563 5266c0,64 -52,117 -117,117 -64,0 -117,-52 -117,-117 0,-64 52,-117 117,-117 64,0 117,52 117,117z"/>
   <path class="fil7" d="M10837 6190c0,64 -52,117 -117,117 -64,0 -117,-52 -117,-117 0,-64 52,-117 117,-117 64,0 117,52 117,117z"/>
   <polygon class="fil8" points="5655,11559 6190,11559 6190,7637 5655,7637 "/>
   <polygon class="fil0" points="6773,11563 7308,11563 7308,8177 6773,8177 "/>
   <polygon class="fil8" points="7891,11568 8426,11568 8426,8858 7891,8858 "/>
   <polygon class="fil0" points="9009,11570 9544,11570 9544,9277 9009,9277 "/>
   <polygon class="fil8" points="10126,11565 10662,11565 10662,8623 10126,8623 "/>
   <polygon class="fil0" points="11244,11568 11780,11568 11780,9696 11244,9696 "/>
   <polygon class="fil8" points="12362,11586 12898,11586 12898,10759 12362,10759 "/>
   <path class="fil4" d="M16776 3667l0 8225c0,229 186,415 415,415l8048 0c229,0 415,-186 415,-415l0 -8225 -8878 0z"/>
   <path class="fil2" d="M16802 3693l0 8199c0,214 174,389 389,389l8048 0c214,0 389,-174 389,-389l0 -8199 -8826 0zm8437 8639l-8048 0c-243,0 -441,-198 -441,-441l0 -8251 8930 0 0 8251c0,243 -198,441 -441,441z"/>
   <path class="fil2" d="M25654 3174c0,-229 -186,-415 -415,-415l-8048 0c-229,0 -415,186 -415,415l0 494 8878 0 0 -494z"/>
   <path class="fil2" d="M16802 3642l8826 0 0 -468c0,-214 -174,-389 -389,-389l-8048 0c-214,0 -389,174 -389,389l0 468zm8878 52l-8930 0 0 -520c0,-243 198,-441 441,-441l8048 0c243,0 441,198 441,441l0 520z"/>
   <path class="fil4" d="M17666 3210c0,100 -81,181 -181,181 -100,0 -181,-81 -181,-181 0,-100 81,-181 181,-181 100,0 181,81 181,181z"/>
   <polygon class="fil8" points="24301,11559 24836,11559 24836,7637 24301,7637 "/>
   <polygon class="fil0" points="23183,11560 23718,11560 23718,7791 23183,7791 "/>
   <polygon class="fil8" points="22065,11564 22600,11564 22600,8427 22065,8427 "/>
   <polygon class="fil0" points="20947,11565 21482,11565 21482,8870 20947,8870 "/>
   <polygon class="fil8" points="19829,11575 20365,11575 20365,9685 19829,9685 "/>
   <polygon class="fil0" points="18711,11579 19247,11579 19247,10360 18711,10360 "/>
   <polygon class="fil8" points="17593,11586 18129,11586 18129,10759 17593,10759 "/>
   <path class="fil8" d="M19052 8245l-1000 0c-86,0 -155,69 -155,155l0 611c0,86 69,155 155,155l629 0 189 297 189 -298c83,-3 149,-71 149,-154l0 -611c0,-86 -70,-155 -155,-155z"/>
   <polygon class="fil4" points="18552,8452 18631,8612 18808,8638 18680,8763 18710,8939 18552,8855 18394,8939 18424,8763 18296,8638 18473,8612 "/>
   <path class="fil6" d="M17613 6803l7204 0 0 -2358 -7204 0 0 2358zm7256 52l-7308 0 0 -2462 7308 0 0 2462z"/>
   <polygon class="fil6" points="17587,6253 24843,6253 24843,6201 17587,6201 "/>
   <polygon class="fil6" points="17587,5650 24843,5650 24843,5598 17587,5598 "/>
   <polygon class="fil6" points="17587,5047 24843,5047 24843,4996 17587,4996 "/>
   <polygon class="fil6" points="24091,6829 24143,6829 24143,4419 24091,4419 "/>
   <polygon class="fil6" points="23365,6829 23417,6829 23417,4419 23365,4419 "/>
   <polygon class="fil6" points="22640,6829 22692,6829 22692,4419 22640,4419 "/>
   <polygon class="fil6" points="21914,6829 21966,6829 21966,4419 21914,4419 "/>
   <polygon class="fil6" points="21189,6829 21241,6829 21241,4419 21189,4419 "/>
   <polygon class="fil6" points="20463,6829 20515,6829 20515,4419 20463,4419 "/>
   <polygon class="fil6" points="19738,6829 19789,6829 19789,4419 19738,4419 "/>
   <polygon class="fil6" points="19012,6829 19064,6829 19064,4419 19012,4419 "/>
   <polygon class="fil6" points="18286,6829 18338,6829 18338,4419 18286,4419 "/>
   <path class="fil2" d="M18180 6452c-13,0 -28,-1 -43,-4 -115,-23 -136,-127 -153,-210 -17,-86 -32,-140 -98,-145 -76,-6 -207,91 -271,159l-38 -36c49,-52 201,-184 313,-175 109,9 128,103 144,187 19,95 37,154 113,170 126,26 178,-103 224,-249l160 -508c25,-79 53,-168 116,-234 61,-65 174,-106 260,-54 65,39 98,114 98,224 0,20 -1,41 -1,63 -2,81 -5,172 24,236 14,30 40,53 68,62 21,6 42,3 61,-9 60,-39 68,-112 75,-190 5,-49 10,-99 29,-142 35,-80 119,-114 203,-83 173,63 165,272 160,411l-1 15c-4,99 7,237 81,337 29,40 68,62 105,60 32,-2 61,-22 83,-58 37,-63 42,-149 46,-233 1,-25 3,-49 5,-73l35 -367c14,-152 67,-243 153,-263 38,-9 72,-3 100,16 44,31 70,95 81,194 3,27 1,57 0,89 -5,105 -3,175 73,195 47,12 101,-21 126,-61 33,-52 42,-117 50,-180 2,-18 5,-36 8,-54 20,-123 46,-268 80,-409l0 -2c20,-79 46,-188 129,-236 63,-36 112,-26 143,-11 74,36 120,139 133,225 8,57 7,117 6,176 -2,78 -3,159 18,227 21,68 89,153 175,130 91,-25 110,-103 132,-195 4,-18 9,-36 14,-54 40,-143 95,-338 219,-464 76,-78 196,-95 292,-42 144,79 143,253 141,406 -1,79 -1,155 17,211 24,75 65,121 121,138 47,14 90,10 127,-13 70,-41 111,-137 127,-212l7 -33c33,-157 77,-372 179,-491 68,-80 160,-112 251,-87 98,27 174,115 193,224 2,13 5,26 7,40 6,42 12,82 27,119 21,52 57,83 101,89 48,7 100,-19 138,-67 28,-37 48,-80 69,-125 12,-27 25,-55 40,-82 136,-244 423,-339 645,-348 259,-9 510,72 731,144l-16 49c-217,-71 -463,-151 -713,-141 -209,8 -476,96 -602,321 -14,25 -26,52 -38,78 -21,46 -43,94 -75,135 -49,64 -119,96 -186,87 -62,-8 -114,-52 -142,-121 -17,-42 -24,-87 -31,-130 -2,-13 -4,-26 -6,-39 -16,-90 -77,-161 -156,-183 -71,-19 -143,6 -198,70 -93,109 -136,316 -168,468l-7 33c-24,112 -80,204 -152,246 -51,30 -108,36 -169,18 -73,-22 -127,-81 -156,-172 -21,-65 -20,-144 -20,-228 1,-145 2,-296 -115,-360 -75,-42 -170,-28 -230,33 -114,117 -167,305 -206,442 -5,17 -9,35 -13,52 -22,94 -48,200 -169,233 -108,29 -205,-61 -238,-165 -24,-77 -22,-162 -20,-244 1,-59 2,-115 -5,-167 -10,-73 -50,-160 -104,-186 -29,-14 -59,-11 -95,10 -64,37 -87,129 -105,203l-1 2c-34,140 -60,283 -80,405 -3,17 -5,34 -8,52 -9,69 -19,140 -58,201 -36,56 -110,102 -183,83 -123,-32 -116,-157 -112,-248 2,-30 3,-58 1,-81 -11,-103 -39,-143 -60,-158 -16,-11 -34,-14 -58,-8 -82,19 -106,144 -113,217l-34 367c-2,22 -3,46 -5,70 -4,86 -10,183 -54,257 -31,51 -75,81 -125,83 -55,3 -109,-27 -149,-82 -82,-112 -95,-263 -91,-370l1 -15c5,-131 12,-310 -126,-360 -59,-21 -114,1 -138,55 -16,35 -20,79 -25,126 -8,82 -17,176 -98,228 -32,21 -68,26 -104,16 -43,-12 -80,-46 -101,-90 -34,-75 -32,-173 -29,-260 1,-22 1,-42 1,-61 0,-90 -24,-150 -73,-179 -63,-38 -148,-5 -196,45 -55,58 -81,141 -104,214l-160 507c-35,111 -91,290 -242,290z"/>
   <path class="fil7" d="M19916 6337c0,64 -52,117 -117,117 -64,0 -117,-52 -117,-117 0,-64 52,-117 117,-117 64,0 117,52 117,117z"/>
   <path class="fil7" d="M24231 4678c0,64 -52,117 -117,117 -64,0 -117,-52 -117,-117 0,-64 52,-117 117,-117 64,0 117,52 117,117z"/>
   <path class="fil7" d="M28550 13947c-22,49 -48,87 -75,116 -170,181 -419,-19 -590,-548l-337 -691 130 -592c0,0 105,-213 280,-291 81,-36 175,-44 282,10 337,173 484,1624 311,1995z"/>
   <path class="fil8" d="M28550 13947c-22,49 -48,87 -75,116 6,-1599 -290,-2049 -518,-2122 81,-36 175,-44 282,10 337,173 484,1624 311,1995z"/>
   <path class="fil7" d="M26478 15288c-32,43 -65,75 -98,97 -206,139 -405,-111 -455,-664l-177 -748 256 -549c0,0 149,-184 337,-223 86,-18 180,-5 272,72 290,243 116,1691 -135,2015z"/>
   <path class="fil8" d="M26478 15288c-32,43 -65,75 -98,97 357,-1559 167,-2062 -39,-2184 86,-18 180,-5 272,72 290,243 116,1691 -135,2015z"/>
   <path class="fil9" d="M26226 14072c0,0 -187,206 -450,397 -147,107 -318,208 -494,266 -319,106 -656,69 -895,-339 -446,-759 -350,-2492 -267,-3364 31,-319 60,-523 60,-523l1490 -402 17 126 49 348 274 1953 216 1537z"/>
   <path class="fil10" d="M25574 14601c71,-41 139,-86 202,-132l0 0c0,0 0,0 0,0 -64,46 -131,91 -202,132z"/>
   <path class="fil11" d="M25282 14735c-407,-827 -264,-2223 -171,-2846 65,953 235,2112 666,2580 -63,46 -131,91 -202,132 -93,54 -192,101 -292,134l0 0z"/>
   <path class="fil9" d="M27885 13515c0,0 -862,1503 -1857,1131 -93,-35 -176,-95 -252,-178 -623,-676 -700,-2800 -705,-3653 -2,-223 2,-359 2,-359 0,0 299,-110 614,-224 331,-120 679,-245 712,-251 71,-14 132,60 184,192 246,619 300,2512 300,2512l794 -454c389,441 207,1283 207,1283z"/>
   <path class="fil2" d="M25164 12672c-59,-422 -92,-983 -97,-1074l-385 -271 30 -42 406 286 1 13c0,6 33,626 97,1082l-51 7z"/>
   <path class="fil2" d="M26562 13926c-81,0 -162,-19 -237,-56 -164,-82 -272,-239 -290,-421l-352 -3507 52 -5 352 3507c16,164 115,306 262,380 158,79 345,65 489,-37l1101 -776 30 42 -1101 776c-91,64 -198,97 -306,97z"/>
   <path class="fil11" d="M24119 11032c31,-319 60,-523 60,-523l1490 -402 17 126c-315,114 -614,224 -614,224 0,0 -3,136 -2,359l0 0c-291,87 -611,164 -952,216z"/>
   <path class="fil11" d="M25071 10816l0 0c-2,-223 2,-359 2,-359 0,0 299,-110 614,-224l0 0c8,-3 16,-6 24,-9l36 353c-3,1 -7,3 -10,4 -198,81 -422,162 -665,235zm725 -259l-35 -350c307,-111 607,-218 638,-225 6,-1 11,-2 17,-2 64,0 119,72 167,194 -160,91 -431,235 -787,383z"/>
   <path class="fil12" d="M25746 10578l-36 -353c17,-6 34,-12 50,-18l35 350c-16,7 -33,14 -50,20z"/>
   <path class="fil13" d="M23311 5611l-289 488 -372 -61c-17,-83 -35,-171 -52,-259 -77,-395 -139,-797 -68,-842 50,-33 77,35 91,97 -12,-106 -21,-276 47,-308 71,-34 109,144 125,250 -10,-103 -18,-282 52,-328 79,-51 108,210 118,322 -4,-90 -4,-271 64,-288 81,-19 97,386 99,472 0,-47 6,-177 73,-169 82,8 113,626 113,626z"/>
   <path class="fil14" d="M23311 5611l-289 488 -372 -61c-17,-83 -35,-171 -52,-259l713 -168z"/>
   <path class="fil15" d="M25578 7879l-1000 1151 -114 132c-330,-89 -610,-336 -843,-654 -683,-929 -971,-2469 -971,-2469l661 -428c751,2928 2267,2268 2267,2268z"/>
   <path class="fil16" d="M24602 8894l-24 136 -114 132c-330,-89 -610,-336 -843,-654 191,144 675,474 982,386z"/>
   <path class="fil15" d="M26628 10171c-515,344 -1156,443 -1759,477 -176,10 -352,13 -527,6 -85,-4 -184,0 -266,-27 -156,-52 -52,-181 78,-298 130,-117 182,-1892 182,-1892l1244 -557 959 285 20 726 11 388 13 475c3,81 39,157 102,210 93,80 26,155 -54,209z"/>
   <path class="fil16" d="M26568 9277c-190,-56 -316,-206 -316,-206l305 -181 11 388z"/>
   <path class="fil13" d="M28525 6143l137 551 373 48c40,-75 83,-154 125,-233 187,-356 362,-723 307,-787 -39,-46 -84,12 -115,67 42,-98 99,-259 44,-309 -58,-53 -145,107 -191,204 39,-96 98,-265 44,-329 -61,-72 -164,170 -205,275 30,-85 82,-258 21,-294 -72,-42 -204,342 -230,424 13,-45 45,-171 -22,-184 -81,-16 -287,568 -287,568z"/>
   <path class="fil14" d="M28525 6143l137 551 373 48c40,-75 83,-154 125,-233l-635 -366z"/>
   <path class="fil15" d="M25669 7840c0,0 1736,350 2856,-1697l510 599c0,0 -1442,2365 -2783,2329l-583 -1231z"/>
   <path class="fil16" d="M25466 8563c-233,0 -384,-159 -386,-161l38 -35c12,13 301,315 704,10l32 41c-143,109 -275,145 -387,145z"/>
   <polygon class="fil16" points="24291,9777 24240,9773 24317,8521 24369,8524 "/>
   <path class="fil16" d="M28739 7141c-216,-216 -428,-637 -437,-655l46 -23c2,4 216,431 427,641l-37 37z"/>
   <polygon class="fil16" points="22767,6471 22740,6427 23414,6021 23441,6065 "/>
   <path class="fil17" d="M25475 8825c0,48 -39,86 -86,86 -48,0 -86,-39 -86,-86 0,-48 39,-86 86,-86 48,0 86,39 86,86z"/>
   <path class="fil13" d="M25929 7279l-95 730c-22,167 -175,285 -342,264l0 0c-167,-22 -285,-175 -263,-342l94 -730 606 78z"/>
   <path class="fil7" d="M25588 7520c0,0 -83,314 -359,408l65 -504 293 95z"/>
   <path class="fil13" d="M25145 6685c0,0 -100,433 -118,741 -10,177 226,453 646,70l259 -246 20 -426 -388 -173 -419 33z"/>
   <path class="fil17" d="M25844 7226c0,0 39,-235 -68,-319 0,0 -618,187 -901,-361 0,0 184,67 390,-72 188,-127 511,-205 689,111 0,0 444,-21 114,640l-223 2z"/>
   <path class="fil13" d="M26092 7370c-70,101 -197,134 -282,75 -85,-60 -97,-190 -27,-291 70,-101 197,-134 282,-75 85,60 97,190 27,291z"/>
   <path class="fil7" d="M25185 7097c0,19 -15,35 -34,35 -19,0 -35,-15 -35,-35 0,-19 16,-35 35,-35 19,0 34,15 34,35z"/>
   <path class="fil7" d="M25447 7116c0,19 -15,35 -34,35 -19,0 -35,-15 -35,-35 0,-19 16,-35 35,-35 19,0 34,15 34,35z"/>
   <path class="fil7" d="M25192 7371c-3,0 -7,-1 -9,-4 -30,-29 -43,-58 -38,-86 7,-39 48,-63 64,-71l20 -82c2,-7 8,-11 16,-10 7,2 11,9 9,16l-23 95 -6 3c-1,0 -48,20 -54,54 -4,19 7,40 30,63 5,5 6,13 1,18 -3,3 -6,4 -9,4z"/>
   <path class="fil7" d="M25239 7000c-4,0 -7,-1 -10,-4 -53,-59 -131,-19 -131,-19 -6,3 -14,1 -17,-5 -3,-6 -1,-14 6,-17 1,-1 96,-49 162,24 5,5 4,14 -1,18 -2,2 -6,3 -8,3z"/>
   <path class="fil7" d="M25522 7052c-4,0 -7,-1 -10,-4 -65,-73 -151,-29 -155,-27 -6,3 -14,1 -17,-5 -3,-6 -1,-14 5,-17 1,-1 107,-56 186,33 5,5 4,14 -1,18 -2,2 -6,3 -8,3z"/>
   <path class="fil7" d="M25225 7455c-19,0 -31,-2 -33,-2 -7,-1 -12,-8 -11,-15 1,-7 8,-12 15,-11 1,0 108,17 176,-58 5,-5 13,-6 18,-1 5,5 6,13 1,18 -53,59 -125,69 -167,69z"/>
   <path class="fil18" d="M25616 7397c-69,0 -126,-56 -126,-126 0,-69 56,-126 126,-126 64,0 117,48 125,111 -3,16 -4,32 -3,47 -14,54 -63,94 -122,94z"/>
   <path class="fil18" d="M25737 7303c-1,-16 1,-31 3,-47 1,5 1,10 1,15 0,11 -2,22 -4,32z"/>
   <path class="fil7" d="M25874 7302l-3 0c-7,-2 -11,-9 -10,-16 1,-2 16,-58 66,-85 34,-18 75,-18 122,-2 7,2 10,10 8,17 -3,7 -10,10 -17,8 -40,-14 -74,-14 -101,0 -41,22 -53,68 -53,69 -1,6 -7,10 -12,10z"/>
   <polygon class="fil14" points="5790,10587 5589,11138 6250,11300 6412,10613 "/>
   <path class="fil7" d="M6796 10314c-58,341 -340,563 -741,476 -317,-69 -535,-306 -407,-718 108,-351 400,-574 723,-550 401,30 489,415 425,793z"/>
   <polygon class="fil9" points="2073,16106 1019,17074 2447,17074 2721,16167 "/>
   <path class="fil14" d="M3628 16046l-907 121 -274 907 1319 0c0,0 -117,-1050 -138,-1028z"/>
   <path class="fil19" d="M6323 15735l-944 1331 -6 8 -2462 0 0 -1 63 -565 42 -381 24 -219 1391 -199 -104 -708c-112,-239 -140,-479 -130,-688 18,-370 156,-643 156,-643l1287 -43 60 186 161 497 462 1425z"/>
   <polygon class="fil9" points="3412,16106 2358,17074 3786,17074 4060,16167 "/>
   <path class="fil14" d="M4967 16046l-907 121 -274 907 1319 0c0,0 -117,-1050 -138,-1028z"/>
   <path class="fil19" d="M7377 16530c-87,165 -207,279 -352,357 -322,176 -763,175 -1207,174 -147,0 -295,-1 -439,5 -90,4 -177,6 -260,8 -213,4 -397,3 -530,0 -20,0 -38,-1 -55,-1 -103,-3 -163,-5 -163,-5l31 -947 8 -264 1542 -130 -537 -1362 -214 -543 501 -9 871 -15 145 -3c0,0 27,62 70,167 6,14 11,28 18,44 181,443 558,1467 615,2099 17,182 7,331 -42,424z"/>
   <path class="fil20" d="M6804 14007c0,0 -406,209 -943,303 -135,24 -285,44 -447,55 -346,26 -753,19 -1216,-51 18,-370 156,-643 156,-643l1287 -43 60 186 871 -15 215 165 18 44z"/>
   <path class="fil21" d="M7025 16887c-29,-68 -45,-144 -45,-223 0,-271 187,-498 439,-558 5,54 8,105 8,153 0,113 -15,206 -50,272 -87,165 -207,279 -352,357l0 0z"/>
   <path class="fil20" d="M4397 17069l-52 -2 40 -1234 22 -2c15,-2 1551,-164 2117,-130l-3 52c-524,-32 -1893,107 -2086,127l-38 1189z"/>
   <path class="fil20" d="M5643 15753l-334 -881c-36,-22 -182,-115 -283,-224l38 -35c109,117 278,219 279,220l8 5 340 898 -48 18z"/>
   <polygon class="fil4" points="3379,17110 3333,17086 3527,16704 3574,16728 "/>
   <polygon class="fil4" points="1928,17084 1882,17060 2076,16678 2122,16702 "/>
   <path class="fil22" d="M4786 11442c-363,663 -588,1377 -725,2125 -22,121 46,241 162,283 838,301 1707,333 2604,144 118,-25 202,-131 199,-252 -9,-422 -18,-1401 75,-2024l-2315 -276z"/>
   <path class="fil14" d="M5377 9641c0,0 419,-376 390,-421 -33,-52 -98,-38 -130,-27 -11,5 -19,7 -19,7 0,0 7,-4 19,-7 54,-22 203,-88 164,-142 -33,-45 -140,-29 -140,-29 0,0 184,-144 84,-152 -99,-9 -217,45 -217,45 0,0 118,-110 62,-123 -29,-7 -379,131 -798,382 118,181 305,455 421,625l165 -159z"/>
   <path class="fil22" d="M8245 10809l-347 -1012 -668 317c92,389 199,790 199,790 -1380,492 -2851,-447 -2851,-447l634 -658c-116,-170 -303,-444 -421,-625 -298,179 -631,414 -910,697 -144,146 -239,334 -270,537l0 0c-39,250 22,506 168,713l817 1030 2419 192 892 -567c95,-61 177,-140 241,-234 146,-215 182,-487 98,-733z"/>
   <path class="fil4" d="M3768 10010c47,81 78,173 86,269 16,199 -59,414 -203,591 5,14 11,27 16,41 159,-187 243,-420 226,-635 -9,-108 -45,-211 -101,-300 -8,11 -16,23 -24,34z"/>
   <path class="fil4" d="M8273 10915c-121,66 -225,161 -296,280 -105,176 -131,392 -84,589l13 -8c7,-5 14,-10 21,-15 -40,-184 -14,-383 83,-546 65,-109 160,-198 269,-260 -2,-13 -4,-27 -6,-40z"/>
   <path class="fil4" d="M7022 13460c-340,102 -693,165 -1052,145 -262,-15 -522,-75 -775,-132 -141,-32 -287,-66 -432,-91 -245,-43 -464,-55 -659,-36 -3,13 -6,26 -8,40 195,-20 414,-9 661,34 144,25 289,58 430,91 254,58 516,118 781,133 46,3 93,4 139,4 312,0 619,-58 915,-147 0,-13 0,-27 0,-41z"/>
   <path class="fil4" d="M5183 10934c17,-52 33,-106 41,-162 -12,-5 -25,-10 -37,-15 -7,56 -24,109 -41,165 -16,49 -32,99 -40,151 -47,283 159,596 459,698 83,28 172,42 264,42 196,0 405,-63 593,-184 255,-163 445,-403 599,-620 -18,3 -36,5 -54,8 -148,205 -329,427 -566,579 -266,171 -574,222 -824,137 -283,-96 -477,-390 -433,-655 8,-49 24,-98 39,-145z"/>
   <path class="fil14" d="M7891 9775c-81,-237 -189,-464 -325,-674 -57,-87 -109,-158 -137,-167 -58,-19 -23,172 -1,272 9,34 14,58 14,58 0,0 -6,-24 -14,-58 -20,-75 -62,-196 -129,-214 -83,-22 -11,245 12,326 5,14 7,23 7,23 0,0 -3,-9 -7,-23 -12,-36 -41,-102 -97,-126 -78,-32 32,350 32,350 0,0 -60,-173 -138,-153 -37,9 35,362 121,724l668 -317 -8 -22z"/>
   <path class="fil7" d="M2889 7609c-91,0 -178,98 -216,146 -213,272 -377,591 -474,922 -6,20 -12,41 -17,63 305,-191 565,-450 756,-755 36,-58 76,-126 82,-200 5,-62 -22,-139 -83,-166 -16,-7 -32,-10 -48,-10zm78 1009c-50,0 -101,35 -135,72 -103,111 -139,282 -93,426 64,-38 124,-84 181,-132 62,-52 124,-108 148,-183 13,-40 9,-88 -11,-125 -10,-19 -28,-43 -60,-53 -10,-3 -20,-5 -30,-5zm162 844c-176,-6 -340,-115 -416,-273 -45,22 -91,39 -141,50 -164,36 -332,-23 -409,-142 -50,-78 -59,-167 -50,-255 -163,86 -378,129 -489,-14 -83,-107 -52,-255 -22,-357 120,-403 363,-773 685,-1043l33 40c-314,263 -552,625 -669,1018 -43,145 -39,244 13,311 61,78 215,121 451,-15 2,-1 5,-3 7,-4 8,-40 18,-78 28,-114 100,-337 267,-662 483,-939 108,-138 226,-194 324,-152 88,38 121,139 115,217 -7,85 -50,160 -89,223 -204,325 -485,600 -814,797 -14,90 -11,183 38,259 76,118 237,145 355,120 46,-10 90,-27 132,-48 -57,-165 -18,-357 101,-486 67,-73 149,-103 218,-81 39,12 70,39 90,79 26,49 31,111 14,164 -28,88 -99,153 -164,207 -61,51 -125,101 -195,141 67,140 217,240 372,246l-2 52z"/>
   <polygon class="fil7" points="0,17100 30200,17100 30200,17048 0,17048 "/>
  </g>
 </g>
</svg>
