<?xml version="1.0" encoding="UTF-8"?>
<!DOCTYPE svg PUBLIC "-//W3C//DTD SVG 1.1//EN" "http://www.w3.org/Graphics/SVG/1.1/DTD/svg11.dtd">
<!-- Creator: CorelDRAW X6 -->
<svg xmlns="http://www.w3.org/2000/svg" xml:space="preserve" width="406.555mm" height="213.573mm" version="1.1" style="shape-rendering:geometricPrecision; text-rendering:geometricPrecision; image-rendering:optimizeQuality; fill-rule:evenodd; clip-rule:evenodd"
viewBox="0 0 39938 20981"
 xmlns:xlink="http://www.w3.org/1999/xlink">
 <defs>
  <style type="text/css">
   <![CDATA[
    .fil2 {fill:#1B1B43;fill-rule:nonzero}
    .fil6 {fill:#5254CF;fill-rule:nonzero}
    .fil15 {fill:#8585B4;fill-rule:nonzero}
    .fil13 {fill:#8D5766;fill-rule:nonzero}
    .fil10 {fill:#925D4F;fill-rule:nonzero}
    .fil4 {fill:#BE443D;fill-rule:nonzero}
    .fil1 {fill:#CBCBFF;fill-rule:nonzero}
    .fil11 {fill:#CE7867;fill-rule:nonzero}
    .fil8 {fill:#D28572;fill-rule:nonzero}
    .fil14 {fill:#E0E0FF;fill-rule:nonzero}
    .fil0 {fill:#F5F5FF;fill-rule:nonzero}
    .fil5 {fill:#FE5B52;fill-rule:nonzero}
    .fil9 {fill:#FFA78F;fill-rule:nonzero}
    .fil12 {fill:#FFB147;fill-rule:nonzero}
    .fil7 {fill:#FFBC96;fill-rule:nonzero}
    .fil3 {fill:white;fill-rule:nonzero}
   ]]>
  </style>
 </defs>
 <g id="Layer_x0020_1">
  <metadata id="CorelCorpID_0Corel-Layer"/>
  <g id="_828688528">
   <path class="fil0" d="M31627 20319l-28147 0c-1300,-1757 -2061,-3906 -2158,-6088 -74,-1669 272,-3429 1353,-4702 1365,-1606 3612,-2127 5739,-2127 146,0 291,2 435,7 1889,62 3771,431 5653,431 362,0 724,-14 1085,-46 2700,-240 5192,-1485 7619,-2693 2426,-1208 4941,-2424 7645,-2597 180,-12 362,-17 544,-17 2549,0 5213,1129 6347,3390 921,1836 686,4035 179,6025 -791,3100 -2343,6211 -5101,7834 -384,226 -784,418 -1195,583zm-2340 -8395l0 1449 2694 0 0 -1449 -2694 0zm-6006 -3320c68,369 262,521 504,521 108,0 225,-30 345,-85 153,-69 258,-173 328,-296 1,0 1,0 2,0 224,0 391,-231 315,-446 -24,-67 -9,-34 10,-102 15,-54 75,-83 114,-124 198,-209 211,-614 -25,-799 -35,-27 -209,-94 -316,-94 -38,0 -68,9 -79,31 37,-73 10,-167 -50,-222 -50,-46 -109,-65 -170,-65 -26,0 -53,4 -80,10 -37,9 -125,57 -181,57 -12,0 -23,-2 -31,-8 -64,-46 -143,-68 -221,-68 -101,0 -203,37 -275,108 -30,-36 -74,-51 -121,-51 -40,0 -82,11 -118,29 -97,49 -171,140 -200,244 -29,105 -11,221 48,312l154 135c10,105 36,244 26,446 -2,40 -3,80 -4,117 0,8 0,17 0,25 0,123 9,231 27,325l0 0zm11073 -4172c-160,0 -333,56 -495,220 -619,628 -135,980 -614,1508 -713,787 124,1663 124,1663l3005 -319c910,-971 -851,-1003 -781,-1912 67,-868 -490,-910 -596,-910 -11,0 -18,0 -18,0 0,0 -283,-251 -624,-251z"/>
   <path class="fil0" d="M17034 5727c-424,0 -848,-31 -1271,-63 -424,-31 -848,-63 -1272,-63 -104,0 -207,2 -311,6 -96,4 -192,6 -288,6 -753,0 -1501,-144 -1994,-810 -587,-795 -1141,-2161 -583,-3126 358,-619 1012,-939 1665,-939 340,0 679,86 976,262 312,185 677,483 1052,483 13,0 26,0 39,-1 625,-35 1225,-401 1810,-757 584,-356 1189,-713 1814,-726 15,0 30,0 44,0 1570,0 2283,1738 1788,3207 -517,1534 -1441,2323 -2664,2474 -268,33 -537,46 -805,46z"/>
   <path class="fil1" d="M16750 13934c-90,0 -163,76 -163,169 0,93 73,169 163,169 90,0 163,-76 163,-169 0,-93 -73,-169 -163,-169zm0 400c-124,0 -225,-104 -225,-231 0,-127 101,-231 225,-231 124,0 225,104 225,231 0,128 -101,231 -225,231z"/>
   <path class="fil1" d="M577 10196c-121,0 -219,106 -219,235 0,130 98,235 219,235 121,0 219,-106 219,-235 0,-130 -98,-235 -219,-235zm0 533c-155,0 -281,-133 -281,-297 0,-164 126,-297 281,-297 155,0 281,133 281,297 0,164 -126,297 -281,297z"/>
   <path class="fil1" d="M12402 17318c0,119 -97,216 -218,216 -120,0 -218,-97 -218,-216 0,-119 97,-216 218,-216 120,0 218,97 218,216z"/>
   <path class="fil1" d="M39938 9648c0,154 -125,278 -280,278 -155,0 -280,-124 -280,-278 0,-154 125,-278 280,-278 155,0 280,125 280,278z"/>
   <path class="fil1" d="M21484 7559c-115,0 -209,99 -209,222 0,122 94,222 209,222 115,0 209,-100 209,-222 0,-122 -94,-222 -209,-222zm0 506c-149,0 -271,-127 -271,-284 0,-157 121,-284 271,-284 149,0 271,127 271,284 0,157 -121,284 -271,284z"/>
   <path class="fil1" d="M28983 9697l220 226 227 -232 -220 -226 -227 232zm220 314l-307 -314 314 -321 307 315 -314 321z"/>
   <polygon class="fil1" points="2375,6856 2098,6579 2381,6296 2658,6573 "/>
   <path class="fil1" d="M9492 14265l220 225 227 -232 -220 -226 -227 232zm220 315l-307 -315 314 -321 307 315 -314 321z"/>
   <path class="fil1" d="M38501 4524l187 187 192 -192 -187 -187 -192 192zm187 275l-275 -275 280 -280 275 275 -280 280z"/>
   <path class="fil1" d="M18922 14913l-2952 0c-18,0 -32,-14 -32,-32 0,-18 14,-32 32,-32l2952 0c18,0 32,14 32,32 0,18 -14,32 -32,32z"/>
   <path class="fil1" d="M16529 15550l-558 0c-18,0 -32,-14 -32,-32 0,-18 14,-32 32,-32l558 0c18,0 32,14 32,32 0,18 -14,32 -32,32z"/>
   <path class="fil1" d="M18135 15550l-1155 0c-18,0 -32,-14 -32,-32 0,-18 14,-32 32,-32l1155 0c18,0 32,14 32,32 0,18 -14,32 -32,32z"/>
   <path class="fil1" d="M18922 16187l-2952 0c-18,0 -32,-14 -32,-32 0,-18 14,-32 32,-32l2952 0c18,0 32,14 32,32 0,18 -14,32 -32,32z"/>
   <path class="fil2" d="M26050 20373c-17,0 -31,-14 -31,-31l0 -4947c0,-17 14,-31 31,-31 17,0 31,14 31,31l0 4947c0,17 -14,31 -31,31z"/>
   <path class="fil3" d="M27079 20342l-2059 0 0 -10c0,-238 193,-431 431,-431l1196 0c238,0 431,193 431,431l0 10z"/>
   <path class="fil2" d="M25044 20318l2012 0c-7,-219 -187,-395 -408,-395l-1196 0c-221,0 -401,176 -408,395zm2058 47l-2105 0 0 -33c0,-251 204,-455 455,-455l1196 0c251,0 455,204 455,455l0 33z"/>
   <path class="fil1" d="M27436 15604l-2772 0 0 -511 2272 0c276,0 500,224 500,500l0 12z"/>
   <polygon class="fil1" points="22026,19157 22135,20342 20512,20342 21236,19631 21228,19166 "/>
   <polygon class="fil3" points="21103,19746 21344,19863 "/>
   <path class="fil2" d="M21344 19894c-4,0 -9,-1 -13,-3l-241 -117c-15,-8 -22,-26 -14,-42 8,-15 26,-22 42,-14l241 117c15,7 22,26 14,42 -5,11 -17,18 -28,18z"/>
   <polygon class="fil3" points="20947,19917 21188,20034 "/>
   <path class="fil2" d="M21188 20065c-4,0 -9,-1 -13,-3l-241 -117c-15,-8 -22,-26 -14,-42 7,-15 26,-22 42,-15l241 117c15,7 22,26 14,41 -5,11 -16,18 -28,18z"/>
   <path class="fil2" d="M21639 20352c-16,0 -29,-12 -31,-28 -14,-147 38,-275 148,-360 104,-81 244,-109 349,-72 16,6 24,24 19,40 -6,16 -24,25 -40,19 -85,-30 -204,-5 -290,62 -93,72 -137,180 -125,305 2,17 -11,32 -28,34l-3 0z"/>
   <path class="fil4" d="M24251 13833l-1989 472c-695,193 -1185,830 -1206,1575l-45 3511 1248 17 632 -3640 1360 -1935z"/>
   <polygon class="fil1" points="24876,18899 25773,19985 24465,20981 24651,19967 24237,19397 "/>
   <polygon class="fil3" points="24640,20065 24903,20012 "/>
   <path class="fil2" d="M24640 20097c-14,0 -27,-10 -30,-25 -3,-17 8,-33 24,-37l262 -53c17,-4 33,7 37,24 3,17 -8,33 -24,37l-262 53c-2,0 -4,1 -6,1z"/>
   <polygon class="fil3" points="24620,20296 24883,20243 "/>
   <path class="fil2" d="M24620 20327c-14,0 -28,-10 -31,-25 -3,-17 8,-33 24,-37l262 -53c17,-3 33,8 37,24 3,17 -7,33 -24,37l-262 53c-2,0 -4,1 -6,1z"/>
   <path class="fil2" d="M25486 20221c-6,0 -12,-2 -17,-5 -113,-76 -151,-240 -138,-362 12,-115 65,-200 145,-232 16,-6 34,1 40,17 6,16 -1,34 -17,40 -57,23 -96,90 -106,180 -11,106 23,245 111,303 14,10 18,29 9,43 -6,9 -16,14 -26,14z"/>
   <path class="fil5" d="M26660 14160l-157 638c-10,48 -30,101 -57,157 -139,286 -402,470 -692,509l-2042 566 1726 3047 -1088 746 -2026 -2876c-461,-661 -317,-1619 312,-2076 215,-157 381,-270 405,-264l1428 -784 2191 337z"/>
   <path class="fil6" d="M22810 12926l-43 1268c1219,-209 2598,-304 3891,-34 259,-566 173,-1025 -54,-1551l-3793 317z"/>
   <path class="fil6" d="M22510 13378c0,0 -1061,93 -1234,-660 -129,-559 348,-1435 774,-2075 338,-509 797,-897 1322,-1126l598 -261 853 308 1360 827 342 2929c0,0 -4034,58 -4014,58z"/>
   <path class="fil7" d="M25528 12320l-197 31c-173,28 -445,84 -622,136 -385,113 -548,567 -548,567l354 21 614 -264 491 23 -92 -515z"/>
   <path class="fil8" d="M24441 13050c-5,0 -10,-2 -13,-7 -5,-7 -3,-17 4,-21l307 -206c7,-5 17,-3 22,4 5,7 3,17 -4,22l-307 206c-3,2 -6,3 -9,3z"/>
   <path class="fil8" d="M24309 13042c-4,0 -8,-1 -11,-5 -6,-6 -6,-16 0,-22l237 -237c6,-6 16,-6 22,0 6,6 6,16 0,22l-237 237c-3,3 -7,5 -11,5z"/>
   <path class="fil6" d="M24420 9224l957 246c256,70 584,242 749,404 444,436 1254,1575 1306,2321 27,390 -225,710 -711,780l-1069 154 -324 -781 983 -249 -897 -1438 -994 -1438z"/>
   <path class="fil2" d="M25643 13147l-333 -806 977 -251 -946 -1507c-4,-7 -2,-17 5,-21 7,-5 17,-2 21,5l968 1544 -984 253 310 750 1057 -152c8,-1 16,5 17,13 1,9 -5,16 -13,18l-1081 156z"/>
   <path class="fil2" d="M24141 10161c-202,0 -404,-83 -564,-234 -6,-6 -7,-16 -1,-22 6,-6 16,-7 22,-1 173,163 397,243 613,222 224,-23 424,-149 576,-364 5,-7 15,-9 22,-4 7,5 9,15 4,22 -158,223 -365,354 -599,377 -24,2 -49,4 -73,4z"/>
   <path class="fil2" d="M22686 11517c-2,0 -4,-1 -7,-2 -8,-4 -11,-13 -7,-21l394 -839c4,-8 13,-11 21,-8 8,4 11,13 8,21l-394 839c-3,6 -8,9 -14,9z"/>
   <path class="fil2" d="M23078 7556c-59,-91 -76,-208 -48,-312 29,-105 103,-196 200,-244 77,-39 184,-45 239,22 128,-127 349,-145 497,-41 45,32 166,-38 212,-49 89,-22 178,-10 250,55 60,55 87,149 50,222 43,-84 348,27 395,63 237,185 224,590 25,799 -39,41 -99,70 -114,124 -19,68 -34,36 -10,102 79,223 -104,462 -339,445l-1357 -1187z"/>
   <path class="fil7" d="M24245 9908c-259,56 -509,-118 -560,-388l-15 -84 -104 -560 -8 -44 939 -203 128 687c50,270 -119,535 -379,591z"/>
   <path class="fil8" d="M24333 8886c-133,260 -348,449 -663,550l-104 -560 767 10z"/>
   <path class="fil7" d="M24129 9040c-389,177 -750,98 -849,-437 -19,-100 -28,-216 -27,-350 1,-37 2,-76 4,-117 19,-364 -84,-525 14,-648 173,-219 443,-127 673,-127 369,0 615,186 639,675 19,392 -49,820 -454,1004z"/>
   <path class="fil2" d="M23137 7340c-283,70 -169,507 88,529 114,10 332,-110 334,-251 -2,117 83,229 191,252 108,23 227,-45 269,-153 18,62 65,114 124,134 58,20 125,9 175,-30 -35,114 25,242 116,316 90,73 204,104 315,132l-154 -853c0,0 -816,-222 -839,-222 -23,0 -616,148 -617,148z"/>
   <path class="fil7" d="M24831 8297c0,130 -100,235 -224,235 -124,0 -224,-105 -224,-235 0,-129 100,-234 224,-234 124,0 224,105 224,234z"/>
   <path class="fil2" d="M23827 8158c0,45 26,81 58,81 32,0 58,-36 58,-81 0,-45 -26,-81 -58,-81 -32,0 -58,36 -58,81z"/>
   <path class="fil2" d="M23481 8143c0,45 26,81 58,81 32,0 58,-36 58,-81 0,-45 -26,-81 -58,-81 -32,0 -58,36 -58,81z"/>
   <path class="fil8" d="M23667 8549c-2,0 -3,0 -5,-1l-3 -1c-34,-12 -80,-28 -101,-63 -26,-44 15,-91 30,-109 35,-41 76,-96 79,-163 0,-9 8,-15 16,-15 9,0 15,7 15,16 -3,77 -47,138 -86,182 -28,33 -37,56 -27,73 15,26 54,39 85,50l4 1c8,3 12,12 10,20 -2,6 -8,11 -15,11z"/>
   <path class="fil3" d="M23854 8588l-313 81c0,0 179,249 313,-81z"/>
   <path class="fil2" d="M24045 8071c-16,-23 -33,-41 -53,-55 -20,-14 -42,-22 -65,-26 -23,-4 -46,-3 -68,3 -22,6 -42,19 -61,39l-21 -10c6,-32 30,-62 61,-78 31,-16 67,-20 100,-14 33,6 65,23 88,47 23,24 39,55 42,87l-23 7z"/>
   <path class="fil2" d="M23410 8023c2,-28 18,-53 40,-70 22,-18 49,-28 78,-29 28,-2 57,6 80,22 23,16 40,38 48,62l-19 14c-20,-12 -37,-22 -54,-29 -18,-6 -35,-9 -52,-9 -18,1 -35,5 -52,13 -17,8 -32,18 -46,34l-22 -8z"/>
   <path class="fil9" d="M24108 8596c-97,0 -176,-79 -176,-176 0,-97 79,-176 176,-176 97,0 176,79 176,176 0,97 -79,176 -176,176z"/>
   <path class="fil9" d="M23281 8603l0 0c-18,-94 -27,-202 -27,-325 0,-8 0,-16 0,-25 9,-1 18,-2 26,-2 85,0 159,61 173,146l1 4c1,7 1,14 2,22 2,88 -61,165 -150,178 -9,1 -17,2 -25,2z"/>
   <path class="fil8" d="M24538 8405c-8,0 -15,-6 -15,-14 -9,-115 32,-194 122,-237 8,-4 17,0 21,7 4,8 0,17 -7,21 -78,37 -112,104 -104,206 1,9 -6,16 -14,17l-1 0z"/>
   <polygon class="fil2" points="23869,13394 25371,13394 25371,13043 23869,13043 "/>
   <polygon class="fil1" points="24357,13394 21874,13394 20991,11017 23474,11017 "/>
   <path class="fil2" d="M14121 19103l0 0c-17,0 -31,-14 -31,-31l1 -8140c0,-17 14,-31 31,-31l0 0c17,0 31,14 31,31l-1 8140c0,17 -14,31 -31,31z"/>
   <path class="fil2" d="M16405 20365c-5,0 -10,-1 -15,-4l-2268 -1255 -2268 1255c-15,8 -34,3 -42,-12 -8,-15 -3,-34 12,-42l2298 -1272 2298 1272c15,8 21,27 12,42 -6,10 -16,16 -27,16z"/>
   <polygon class="fil3" points="9588,11719 18656,11719 18656,2624 9588,2624 "/>
   <path class="fil2" d="M9611 11696l9022 0 0 -9049 -9022 0 0 9049zm9068 47l-9115 0 0 -9142 9115 0 0 9142z"/>
   <polygon class="fil1" points="10648,9671 11343,9671 11343,9355 10648,9355 "/>
   <polygon class="fil2" points="11568,9536 14611,9536 14611,9489 11568,9489 "/>
   <polygon class="fil6" points="10648,10287 11343,10287 11343,9971 10648,9971 "/>
   <polygon class="fil2" points="11568,10153 14611,10153 14611,10106 11568,10106 "/>
   <polygon class="fil1" points="10971,7482 11284,7482 11284,6436 10971,6436 "/>
   <polygon class="fil1" points="11618,7482 11932,7482 11932,6119 11618,6119 "/>
   <polygon class="fil1" points="12266,7482 12579,7482 12579,5560 12266,5560 "/>
   <polygon class="fil1" points="12913,7482 13227,7482 13227,5051 12913,5051 "/>
   <polygon class="fil1" points="13561,7482 13874,7482 13874,4528 13561,4528 "/>
   <polygon class="fil1" points="14208,7482 14521,7482 14521,4299 14208,4299 "/>
   <polygon class="fil1" points="14856,7482 15169,7482 15169,4546 14856,4546 "/>
   <polygon class="fil1" points="15503,7482 15816,7482 15816,4833 15503,4833 "/>
   <polygon class="fil1" points="16150,7482 16464,7482 16464,4299 16150,4299 "/>
   <polygon class="fil1" points="16798,7482 17111,7482 17111,3998 16798,3998 "/>
   <polygon class="fil1" points="17445,7482 17759,7482 17759,3599 17445,3599 "/>
   <polygon class="fil2" points="17961,7507 10524,7507 10524,3428 10587,3428 10587,7445 17961,7445 "/>
   <polygon class="fil6" points="11133,6930 11122,6869 11762,6754 12370,6250 12373,6248 13037,5882 13690,5353 14379,5201 14972,5687 15612,6063 16301,5159 16958,4949 17656,4619 17682,4675 16979,5007 16339,5213 15628,6145 14934,5736 14363,5268 13718,5411 13072,5934 13069,5935 12406,6301 11789,6813 "/>
   <polygon class="fil1" points="11862,8133 16381,8133 16381,7905 11862,7905 "/>
   <path class="fil1" d="M16688 9826l594 -931c-172,-110 -375,-174 -594,-174 -610,0 -1105,495 -1105,1105 0,610 495,1105 1105,1105 610,0 1105,-495 1105,-1105 0,-20 -2,-40 -3,-60l-1102 60z"/>
   <path class="fil6" d="M17791 9766c-20,-366 -217,-685 -509,-871l-594 931 1102 -60z"/>
   <polygon class="fil1" points="6593,19095 6472,20345 8286,20345 7476,19595 7486,19105 "/>
   <path class="fil2" d="M7294 19824c-12,0 -23,-7 -29,-19 -7,-16 0,-34 16,-41l261 -112c16,-7 34,0 41,16 7,16 0,34 -16,41l-261 112c-4,2 -8,3 -12,3z"/>
   <path class="fil2" d="M7449 20000c-12,0 -23,-7 -29,-19 -7,-16 0,-34 16,-41l261 -112c16,-7 34,0 41,16 7,16 0,34 -16,41l-261 112c-4,2 -8,2 -12,2z"/>
   <path class="fil2" d="M6519 19817c132,20 262,64 353,167 84,95 117,224 130,347 4,39 66,40 62,0 -14,-139 -51,-277 -143,-386 -97,-113 -241,-167 -385,-189 -39,-6 -56,54 -17,60z"/>
   <polygon class="fil1" points="4465,19107 4325,20345 2634,20345 3304,19670 3584,19105 "/>
   <path class="fil2" d="M3564 19813c-4,0 -8,-1 -12,-2l-261 -113c-16,-7 -23,-25 -16,-41 7,-16 25,-23 41,-16l261 112c16,7 23,25 16,41 -5,12 -16,19 -29,19z"/>
   <path class="fil2" d="M3409 19990c-4,0 -8,-1 -12,-3l-261 -112c-16,-7 -23,-25 -16,-41 7,-16 25,-23 41,-16l261 112c16,7 23,25 16,41 -5,12 -17,19 -29,19z"/>
   <path class="fil2" d="M4359 19763c-144,22 -288,75 -385,189 -92,108 -128,247 -143,385 -4,40 58,40 62,0 13,-123 46,-252 130,-347 90,-102 221,-147 353,-167 39,-6 23,-66 -17,-60z"/>
   <polygon class="fil6" points="4827,10682 3106,19395 4725,19395 6734,10032 "/>
   <polygon class="fil6" points="6104,10562 6383,19345 7806,19345 7750,10112 "/>
   <polygon class="fil3" points="7525,10452 5065,10772 5125,6511 7125,6451 "/>
   <path class="fil8" d="M6378 5250l0 1098c0,305 -33,533 -344,549 -200,10 -477,-112 -559,-281 -39,-80 -61,-171 -61,-268l0 -1098 964 0z"/>
   <path class="fil10" d="M6378 5696l0 516c-271,-68 -603,-280 -766,-516l766 0z"/>
   <path class="fil8" d="M6378 5932c-19,6 -40,11 -63,14 -163,24 -384,-2 -587,-111 -113,-60 -220,-147 -308,-264 -2,-2 -4,-6 -7,-9 -23,-31 -45,-65 -65,-101l-40 -141 -60 -210 -164 -580 806 -397c0,0 613,127 674,167 -11,111 -12,221 -7,330 6,155 23,306 39,447 14,123 27,239 32,343 11,261 -31,451 -250,512z"/>
   <path class="fil2" d="M5224 5352c0,0 225,-75 196,-121 -45,-70 -178,-280 -38,-520 28,-48 178,-87 228,-105 63,-23 128,-42 194,-52 96,-15 193,-11 288,14 131,35 258,124 396,89 100,-25 214,-105 241,-216 15,-63 1,-131 -26,-189 -170,-360 -582,-383 -913,-351 -270,26 -486,135 -631,388 -6,10 -33,76 -40,77 -354,45 -159,840 106,987z"/>
   <path class="fil8" d="M5546 5349c0,137 -105,249 -234,249 -129,0 -234,-111 -234,-249 0,-137 105,-249 234,-249 129,0 234,111 234,249z"/>
   <path class="fil2" d="M5389 4633c8,208 22,429 11,637 -3,64 -23,57 -47,30 -29,-33 -50,-90 -57,-155l-32 -333 125 -179z"/>
   <path class="fil2" d="M6003 5047c0,46 -27,83 -59,83 -33,0 -59,-37 -59,-83 0,-46 27,-83 59,-83 33,0 59,37 59,83z"/>
   <path class="fil2" d="M6359 5031c0,46 -27,83 -59,83 -33,0 -59,-37 -59,-83 0,-46 27,-83 59,-83 33,0 59,37 59,83z"/>
   <path class="fil10" d="M6167 5447c-6,0 -12,-4 -15,-11 -3,-8 2,-17 10,-20l4 -1c32,-11 71,-25 87,-51 10,-18 2,-41 -28,-75 -40,-46 -86,-108 -88,-187 0,-9 6,-16 15,-16 8,0 16,6 16,15 2,69 44,126 81,168 16,18 57,66 31,111 -21,37 -69,53 -104,65l-4 1c-2,1 -3,1 -5,1z"/>
   <path class="fil3" d="M5976 5488l321 83c0,0 -272,217 -321,-83z"/>
   <path class="fil2" d="M5751 4935c14,-21 33,-38 55,-52 22,-13 47,-22 74,-26 52,-7 108,8 144,45l-11 22c-23,-3 -44,-5 -65,-6 -20,-1 -40,-1 -60,2 -20,2 -39,7 -59,13 -20,6 -40,14 -62,22l-16 -19z"/>
   <path class="fil2" d="M6396 4908c-21,-4 -40,-10 -58,-14 -18,-5 -35,-8 -51,-9 -16,-1 -32,0 -48,3 -17,3 -34,9 -54,15l-15 -19c12,-20 29,-36 51,-47 21,-11 47,-16 72,-14 25,2 47,10 67,21 20,12 36,25 50,43l-13 21z"/>
   <path class="fil11" d="M5731 5525c-100,0 -181,-81 -181,-181 0,-100 81,-181 181,-181 100,0 181,81 181,181 0,100 -81,181 -181,181z"/>
   <path class="fil11" d="M6558 5434c-93,0 -168,-69 -180,-158 -1,-7 -1,-15 -1,-22l0 -4c2,-98 82,-177 181,-177 13,0 26,1 39,4 14,123 27,239 32,343 -22,9 -45,14 -70,14z"/>
   <path class="fil12" d="M5414 6348c1036,1393 481,4874 241,5519l-1545 -120 480 -2551 -780 -870 1604 -1978z"/>
   <path class="fil2" d="M5751 9159c85,-261 -103,-560 -426,-878l-201 432 627 446z"/>
   <path class="fil2" d="M5326 11466c-1,0 -3,0 -4,-1 -8,-2 -13,-11 -10,-19 291,-971 341,-2320 354,-3251 0,-8 7,-15 16,-15l0 0c9,0 15,7 15,16 -27,1946 -216,2792 -356,3259 -2,7 -8,11 -15,11z"/>
   <path class="fil8" d="M5407 8699l1 0c-6,7 -7,8 -1,0zm847 -427c1,-115 -13,-234 -86,-319 -41,-48 -190,0 -271,39 -4,2 98,-467 56,-501 -53,-42 -107,-14 -132,34 -41,82 -69,177 -100,263 -48,129 -106,240 -212,331 -84,72 -179,116 -221,226 -31,82 -21,167 -11,252 10,94 29,188 67,275 17,41 43,85 86,103 51,22 114,-8 163,-27 111,-43 222,-82 335,-118 93,-29 187,-76 251,-152 66,-78 64,-165 69,-262 2,-46 6,-95 6,-146z"/>
   <path class="fil10" d="M5984 8198c-10,0 -20,-7 -23,-18 -3,-12 5,-25 17,-28l233 -57c12,-3 25,5 28,17 3,12 -5,25 -17,28l-233 57c-2,0 -4,1 -6,1z"/>
   <path class="fil10" d="M6000 8385c-10,0 -20,-7 -23,-18 -3,-13 5,-25 17,-28l233 -57c12,-3 25,5 28,17 3,12 -5,25 -17,28l-233 57c-2,0 -4,1 -6,1z"/>
   <path class="fil10" d="M5995 8582c-10,0 -20,-7 -23,-18 -3,-13 5,-25 17,-28l233 -57c12,-3 25,5 28,17 3,12 -5,25 -17,28l-233 57c-2,0 -4,1 -6,1z"/>
   <path class="fil12" d="M5746 9152c-264,258 -560,491 -872,688 -300,190 -646,384 -1009,402 -561,28 -802,-567 -779,-1043 25,-542 311,-1038 570,-1500 259,-463 627,-877 1120,-1094 4,-1 7,-3 11,-4l627 -272 0 20c0,97 22,188 61,268l-990 2095 840 -430c76,302 224,591 422,870z"/>
   <path class="fil2" d="M3924 8981c-6,0 -11,-3 -14,-8 -4,-8 -1,-17 7,-21l1387 -712c8,-4 17,-1 21,7 4,8 1,17 -7,21l-1387 712c-2,1 -5,2 -7,2z"/>
   <path class="fil2" d="M4414 10108c-5,0 -10,-2 -13,-7 -5,-7 -3,-17 4,-22l1332 -940c7,-5 17,-3 22,4 5,7 3,17 -4,22l-1332 940c-3,2 -6,3 -9,3z"/>
   <path class="fil2" d="M4305 8771c-2,0 -4,0 -6,-1 -8,-3 -12,-12 -8,-20l396 -941c3,-8 12,-12 20,-8 8,3 12,12 8,20l-396 941c-3,6 -8,10 -14,10z"/>
   <path class="fil2" d="M5544 8087c-5,0 -10,-2 -13,-7l-522 -773 241 -753c3,-8 11,-13 20,-10 8,3 13,11 10,20l-236 739 514 761c5,7 3,17 -4,22 -3,2 -6,3 -9,3z"/>
   <path class="fil8" d="M12064 6596c-17,166 -170,136 -243,271 -88,163 -328,336 -518,219 -101,-63 -176,-164 -214,-277 -55,-162 103,-391 188,-514 82,-119 284,-156 420,-157 90,-1 194,72 247,159 55,90 131,195 121,299z"/>
   <path class="fil8" d="M12130 6577c27,64 -46,119 -147,161 -101,43 -191,57 -218,-7 -29,-69 46,-119 147,-161 101,-43 182,-77 218,7z"/>
   <path class="fil8" d="M12125 6425c27,63 -65,125 -189,177 -124,52 -232,75 -259,12 -29,-68 65,-125 189,-177 124,-52 224,-95 259,-12z"/>
   <polygon class="fil2" points="11713,6437 11607,6372 12765,4486 12871,4551 "/>
   <path class="fil8" d="M11281 6332c77,14 152,-74 229,-58 112,23 190,14 312,-33 66,-25 159,-95 162,-174 1,-23 -6,-50 -26,-61 -28,-16 -62,7 -89,26 -174,118 -411,8 -597,297l9 4z"/>
   <path class="fil8" d="M12019 6280c39,56 -16,122 -134,206 -118,84 -186,107 -206,41 -13,-42 -16,-103 103,-187 118,-84 186,-133 238,-60z"/>
   <path class="fil10" d="M11455 6676c-5,0 -9,-2 -12,-6 -5,-7 -4,-16 2,-22 92,-73 124,-163 99,-274 -2,-8 3,-17 12,-19 8,-2 17,3 19,12 28,124 -8,224 -110,305 -3,2 -6,3 -10,3z"/>
   <path class="fil10" d="M11736 6520c-24,0 -46,-10 -58,-27 -9,-12 -12,-28 -10,-43 2,-14 9,-25 20,-33 7,-5 17,-3 22,4 5,7 3,17 -4,22 -5,3 -6,9 -7,12 -1,7 0,14 4,19 8,11 23,16 39,14 20,-2 95,-25 107,-34 7,-5 17,-3 22,4 5,7 3,17 -4,22 -19,14 -100,37 -122,39 -3,0 -6,1 -10,1z"/>
   <path class="fil10" d="M11809 6630c-14,0 -33,-3 -46,-18 -11,-12 -14,-30 -10,-47 3,-11 40,-84 53,-94 7,-5 16,-5 22,2 5,6 5,16 -2,22 -7,8 -40,69 -43,79 -2,7 -1,14 3,18 5,6 17,8 35,6 44,-5 86,-21 128,-36 8,-3 17,1 20,9 3,8 -1,17 -9,20 -43,16 -87,32 -134,37 -3,0 -9,1 -16,1z"/>
   <path class="fil10" d="M11883 6763c-14,0 -28,-1 -41,-4 -18,-3 -31,-13 -37,-27 -18,-47 47,-118 75,-138 7,-5 17,-3 22,4 5,7 3,17 -4,22 -26,18 -73,77 -64,101 1,3 7,7 14,8 31,6 62,4 90,-6 8,-3 17,1 20,9 3,8 -1,17 -9,20 -20,7 -42,11 -65,11z"/>
   <path class="fil12" d="M7710 7981l745 440c725,424 1440,370 2101,-250l1025 -970 -630 -675c-445,424 -1305,1265 -2025,775l-790 -579c-311,-209 -660,-352 -1028,-420l-731 -121c-87,1144 307,3816 778,5357l1335 -510c-210,-690 -575,-2211 -780,-3046z"/>
   <path class="fil2" d="M7896 8817c-7,0 -14,-5 -15,-12l-311 -1446c-2,-8 4,-17 12,-18 8,-2 17,4 18,12l311 1446c2,8 -4,17 -12,18l-3 0z"/>
   <path class="fil2" d="M7375 11116c-7,0 -14,-5 -15,-13l-598 -3241 227 -630 -494 -906c-4,-8 -1,-17 6,-21 8,-4 17,-1 21,6l501 918 -229 635 597 3233c2,8 -4,16 -12,18l-3 0z"/>
   <path class="fil2" d="M11285 7258c-4,0 -8,-2 -11,-5l-446 -466c-6,-6 -6,-16 1,-22 6,-6 16,-6 22,1l446 466c6,6 6,16 -1,22 -3,3 -7,4 -11,4z"/>
   <path class="fil2" d="M5440 9113c-3,0 -7,-1 -10,-3 -158,-124 -261,-320 -317,-600 -2,-8 4,-17 12,-18 8,-2 17,4 18,12 54,272 153,462 305,582 7,5 8,15 3,22 -3,4 -8,6 -12,6z"/>
   <path class="fil2" d="M6140 12797l-3 0c-8,-2 -14,-10 -12,-18l171 -902c2,-9 10,-14 18,-12 8,2 14,10 12,18l-171 902c-1,8 -8,13 -15,13z"/>
   <polygon class="fil2" points="22955,20339 23167,20339 23167,13375 22955,13375 "/>
   <polygon class="fil2" points="31412,20339 31624,20339 31624,13375 31412,13375 "/>
   <polygon class="fil3" points="19958,13740 35265,13740 35265,13351 19958,13351 "/>
   <path class="fil2" d="M19981 13717l15261 0 0 -342 -15261 0 0 342zm15307 47l-15354 0 0 -436 15354 0 0 436z"/>
   <polygon class="fil1" points="36655,18279 37658,19375 36636,20369 36675,19361 36079,18857 "/>
   <path class="fil2" d="M36657 19399c-13,0 -26,-9 -30,-22 -5,-17 4,-34 20,-39l289 -89c16,-5 34,4 39,21 5,17 -4,34 -20,39l-289 89c-3,1 -6,1 -9,1z"/>
   <path class="fil2" d="M36663 19646c-13,0 -25,-9 -30,-22 -5,-17 4,-34 20,-39l289 -89c16,-5 34,4 39,21 5,17 -4,34 -20,39l-289 89c-3,1 -6,1 -9,1z"/>
   <path class="fil2" d="M37372 19612c-3,0 -6,0 -9,-1 -111,-34 -192,-147 -198,-275 -5,-121 58,-220 169,-264 16,-6 34,1 41,17 7,16 -1,34 -17,40 -123,50 -132,159 -130,204 4,102 68,191 154,218 17,5 26,22 21,39 -4,13 -16,22 -30,22z"/>
   <path class="fil12" d="M33640 10838l-747 2965c-188,747 -1,1538 501,2121l2716 3156 931 -808 -2377 -3177 372 -4763 -1396 506z"/>
   <path class="fil2" d="M33609 11724c-6,0 -12,-4 -15,-10 -3,-8 1,-17 9,-20 272,-109 391,-386 353,-824 -1,-9 6,-16 14,-17 9,-1 16,5 17,14 39,453 -86,741 -373,855 -2,1 -4,1 -6,1z"/>
   <path class="fil2" d="M36076 18730c-5,0 -9,-2 -13,-6 -5,-7 -4,-16 3,-22l579 -436c7,-5 17,-4 22,3 5,7 4,17 -3,22l-579 436c-3,2 -6,3 -9,3z"/>
   <polygon class="fil1" points="35537,19033 35601,20373 33936,20373 34678,19683 34718,19043 "/>
   <path class="fil2" d="M34946 19855c-5,0 -10,-1 -14,-3l-268 -141c-15,-8 -21,-27 -13,-42 8,-15 27,-21 42,-13l268 141c15,8 21,27 13,42 -6,11 -17,17 -28,17z"/>
   <path class="fil2" d="M34775 20034c-5,0 -10,-1 -15,-4l-268 -141c-15,-8 -21,-27 -13,-42 8,-15 27,-21 42,-13l268 141c15,8 21,27 13,42 -6,11 -16,17 -28,17z"/>
   <path class="fil2" d="M35191 20364c-11,0 -22,-6 -28,-17 -60,-113 -36,-265 59,-369 90,-98 216,-126 338,-75 16,7 23,25 16,41 -7,16 -25,23 -41,17 -96,-41 -196,-18 -268,60 -78,85 -98,207 -50,297 8,15 2,34 -13,42 -5,2 -10,4 -15,4z"/>
   <path class="fil12" d="M34719 10579l-421 4519 200 4229 1222 -66 517 -6992c187,-606 233,-1073 157,-1623l-1674 -66z"/>
   <path class="fil2" d="M36035 11701l-3 0c-386,-75 -615,-438 -583,-926 1,-9 8,-15 17,-14 9,1 15,8 15,17 -15,217 26,421 115,576 97,170 251,280 443,317 9,2 14,10 12,18 -1,7 -8,13 -15,13z"/>
   <path class="fil2" d="M34480 19331c-8,0 -15,-7 -16,-15l-202 -4358 0 -2 358 -3513c1,-9 8,-15 17,-14 9,1 15,9 14,17l-357 3512 201 4341 1211 -54 293 -4056c1,-9 8,-15 17,-14 9,1 15,8 15,17l-294 4070c-1,8 -7,14 -15,14l-1240 55 -1 0z"/>
   <path class="fil2" d="M34698 19093c-8,0 -15,-6 -16,-15 0,-9 6,-16 15,-16l840 -44c9,0 16,6 16,15 1,9 -6,16 -15,16l-840 44 -1 0z"/>
   <path class="fil2" d="M36373 7504c910,-971 -851,-1003 -781,-1912 74,-960 -614,-909 -614,-909 0,0 -613,-544 -1119,-31 -619,628 -135,980 -614,1508 -713,787 124,1663 124,1663l3005 -319z"/>
   <path class="fil7" d="M38430 6910c22,-17 469,-494 469,-494 0,0 178,-706 245,-625 67,81 -33,523 -33,523 0,0 313,-6 341,70 28,76 15,513 -585,980l-437 -454z"/>
   <path class="fil7" d="M38926 6454c-18,-129 -86,-361 -128,-366 -43,-4 -54,175 -57,311 -6,221 -105,398 -64,412 92,31 264,-258 250,-357z"/>
   <path class="fil8" d="M39127 6612c-7,0 -13,-1 -19,-4 -19,-9 -28,-29 -29,-60 -1,-51 9,-103 29,-150 4,-8 13,-12 22,-9 8,3 12,13 9,22 -18,43 -27,90 -26,137 0,17 4,28 10,31 4,2 10,1 15,-2 28,-17 55,-67 72,-134 2,-9 11,-14 20,-12 9,2 15,11 12,20 -11,45 -37,124 -86,155 -9,5 -19,8 -28,8z"/>
   <path class="fil8" d="M39211 6655c-10,0 -20,-3 -27,-9 -15,-13 -16,-33 -15,-47 1,-38 9,-74 24,-109 4,-8 13,-12 22,-9 8,4 12,13 9,22 -13,31 -20,64 -22,97 -1,11 1,18 4,20 2,2 8,2 12,0 7,-3 13,-10 18,-16 39,-47 66,-104 77,-164 1,-9 10,-15 19,-13 9,2 15,10 13,19 -12,66 -41,128 -84,180 -8,10 -17,19 -30,25 -7,3 -14,5 -21,5z"/>
   <path class="fil8" d="M39330 6655c-10,0 -19,-3 -27,-9 -15,-13 -16,-33 -15,-47 1,-22 4,-40 9,-62 3,-16 6,-32 9,-51 1,-9 9,-16 18,-14 9,1 16,9 14,19 -3,21 -6,38 -9,53 -4,20 -7,38 -8,57 -1,11 1,18 4,20 2,2 8,2 12,0 7,-3 13,-10 18,-16 39,-47 66,-104 77,-164 2,-9 10,-15 19,-13 9,2 15,10 13,19 -12,66 -41,128 -84,180 -8,10 -17,19 -30,25 -7,3 -14,5 -21,5z"/>
   <path class="fil8" d="M38974 6748c-1,0 -3,0 -4,-1 -9,-3 -14,-12 -11,-20 31,-107 17,-191 -45,-263 -6,-7 -5,-17 2,-23 7,-6 17,-5 23,2 69,80 86,176 52,293 -2,7 -9,12 -16,12z"/>
   <path class="fil1" d="M35562 7897l1242 817c308,229 727,218 996,-47 74,-73 1261,-1321 1261,-1321l-439 -638 -1233 1174 -1147 -900c-92,-68 -197,-112 -307,-128l-1416 -211c0,0 1006,1228 1042,1255z"/>
   <path class="fil7" d="M31133 11159l-275 373c-389,36 -653,176 -878,412l1448 -3 306 -814 -601 31z"/>
   <path class="fil1" d="M34483 6657c-384,200 -740,335 -1107,554 -118,70 -239,177 -357,316 -138,162 -248,346 -336,538l-545 1208 -1223 2187 860 21 1130 -1855 1579 -2968z"/>
   <path class="fil1" d="M33719 7521c-841,553 -119,1757 -277,3320 -19,190 151,346 338,303 730,-167 1655,-231 2395,-176 172,13 314,-134 298,-306 -240,-901 -348,-1905 -294,-3036l-1231 -988 -876 250 -352 631z"/>
   <path class="fil7" d="M34262 5630l0 1212c0,276 256,351 442,342 159,-8 400,-98 398,-342l0 -1212 -840 0z"/>
   <path class="fil8" d="M34262 6197l0 569c227,-52 524,-253 626,-532l-626 -37z"/>
   <path class="fil7" d="M35351 5044l-226 734c-43,207 -66,351 -233,480 -251,194 -551,243 -656,173 -168,-113 -233,-200 -254,-345 -14,-92 -12,-209 -9,-370 4,-195 9,-456 -15,-820 -3,-50 646,-303 646,-303l747 453z"/>
   <path class="fil2" d="M35160 5646c-51,-187 -184,-200 -272,-536 -459,257 -715,-218 -1110,482l17 -575 249 -342 494 -113 812 323 132 381 -322 381z"/>
   <path class="fil7" d="M34878 5619c-40,125 28,257 151,296 123,39 255,-30 295,-155 39,-125 -28,-257 -151,-296 -123,-39 -255,30 -294,155z"/>
   <path class="fil2" d="M33384 9323c-7,0 -14,-6 -15,-13l-155 -1088c-1,-9 5,-16 13,-18 9,-1 17,5 18,13l155 1088c1,8 -5,16 -13,18l-2 0z"/>
   <path class="fil2" d="M36517 8545c-3,0 -6,-1 -9,-3l-699 -505c-7,-5 -9,-15 -4,-22 5,-7 15,-9 22,-4l699 505c7,5 9,15 4,22 -3,4 -8,6 -12,6z"/>
   <path class="fil2" d="M34634 7358c-161,0 -312,-63 -428,-151 -7,-5 -8,-15 -3,-22 5,-7 15,-8 22,-3 219,165 561,237 866,-56 6,-6 16,-6 22,0 6,6 6,16 -1,22 -157,151 -323,209 -478,209z"/>
   <path class="fil2" d="M35133 10535c-7,0 -12,-4 -15,-10 -3,-8 1,-17 10,-20 336,-115 566,-439 705,-992 2,-8 11,-13 19,-11 8,2 14,11 11,19 -142,563 -379,895 -725,1014 -2,1 -4,1 -5,1z"/>
   <path class="fil2" d="M32428 9455c-2,0 -4,0 -5,-1l-269 -104c-8,-3 -12,-12 -9,-20 3,-8 12,-12 20,-9l269 104c8,3 12,12 9,20 -2,6 -8,10 -15,10z"/>
   <path class="fil2" d="M37195 8076c-4,0 -8,-2 -12,-5 -6,-6 -5,-16 1,-22l194 -179c6,-6 16,-5 22,1 6,6 5,16 -1,22l-194 179c-3,3 -7,4 -11,4z"/>
   <path class="fil2" d="M34102 5591c3,36 27,63 54,61 27,-2 47,-33 44,-69 -3,-36 -27,-63 -54,-61 -27,2 -47,33 -44,69z"/>
   <path class="fil8" d="M34324 5918c-1,0 -3,0 -4,-1l-3 -1c-30,-8 -71,-18 -92,-48 -26,-37 7,-81 19,-97 27,-37 58,-86 56,-143 0,-9 6,-16 15,-16 9,0 16,6 16,15 3,66 -31,122 -62,163 -21,29 -27,48 -18,61 14,20 48,29 74,36l3 1c8,2 13,11 11,19 -2,7 -8,12 -15,12z"/>
   <path class="fil3" d="M34491 5947l-268 70c0,0 154,213 268,-70z"/>
   <path class="fil2" d="M34622 5425c-21,-10 -41,-18 -61,-24 -20,-6 -41,-10 -61,-10 -20,0 -40,2 -59,8 -19,6 -37,16 -55,30l-15 -11c10,-24 29,-44 53,-57 24,-13 51,-18 77,-17 26,1 52,8 74,20 23,11 43,27 58,47l-12 14z"/>
   <path class="fil2" d="M34047 5475c13,-41 52,-74 97,-82 22,-4 46,-2 67,5 21,7 40,20 53,37l-11 15c-18,-6 -35,-10 -52,-12 -17,-2 -33,-1 -49,1 -16,3 -31,8 -46,16 -15,8 -29,18 -44,30l-15 -10z"/>
   <path class="fil13" d="M33971 5881c0,-51 1,-109 2,-174 0,0 0,0 0,0 0,3 0,6 0,9 -1,61 -2,116 -2,165z"/>
   <path class="fil9" d="M33982 6060c-8,-51 -11,-109 -11,-179 0,-49 1,-104 2,-165 0,-3 0,-6 0,-9 84,9 153,76 160,163 7,94 -60,177 -151,190z"/>
   <path class="fil9" d="M34714 5953c-92,0 -170,-71 -177,-164 -7,-98 66,-184 164,-191 5,0 9,-1 14,-1 64,0 121,34 153,86 -1,40 7,78 24,113 -10,83 -77,150 -163,156 -5,0 -9,1 -14,1z"/>
   <path class="fil9" d="M34891 5796c-17,-34 -25,-73 -24,-113 14,23 23,49 25,78 1,12 1,24 -1,35z"/>
   <path class="fil2" d="M34459 5548c3,36 27,63 54,61 27,-2 47,-33 44,-69 -3,-36 -27,-63 -54,-61 -27,2 -47,33 -44,69z"/>
   <path class="fil8" d="M35081 5775c-8,0 -15,-6 -16,-15 -8,-120 42,-191 147,-213 8,-2 17,4 18,12 2,8 -4,17 -12,18 -90,19 -129,76 -122,181 1,9 -6,16 -15,17l-1 0z"/>
   <polygon class="fil3" points="29310,13350 31958,13350 31958,11946 29310,11946 "/>
   <path class="fil2" d="M29333 13326l2602 0 0 -1357 -2602 0 0 1357zm2648 46l-2694 0 0 -1449 2694 0 0 1449z"/>
   <polygon class="fil14" points="29333,12793 29333,12195 31935,12391 31935,12396 "/>
   <path class="fil15" d="M29330 12793l0 -599 3 0 0 598 -3 0zm2604 -397l0 -5 23 2 -23 3z"/>
   <polygon class="fil3" points="29089,12397 32179,12397 32179,11946 29089,11946 "/>
   <path class="fil2" d="M29112 12374l3044 0 0 -404 -3044 0 0 404zm3091 47l-3138 0 0 -497 3138 0 0 497z"/>
   <path class="fil1" d="M27803 6310c0,-599 -486,-1085 -1085,-1085 -599,0 -1085,486 -1085,1085 0,505 345,928 812,1049l-116 415 389 -379c599,0 1084,-486 1084,-1085z"/>
   <path class="fil3" d="M26411 6287c0,62 -50,113 -113,113 -62,0 -113,-50 -113,-113 0,-62 51,-113 113,-113 62,0 113,50 113,113z"/>
   <path class="fil3" d="M26831 6287c0,62 -51,113 -113,113 -62,0 -113,-50 -113,-113 0,-62 50,-113 113,-113 62,0 113,50 113,113z"/>
   <path class="fil3" d="M27250 6287c0,62 -50,113 -113,113 -62,0 -113,-50 -113,-113 0,-62 50,-113 113,-113 62,0 113,50 113,113z"/>
   <path class="fil1" d="M32107 6870l-330 -194c44,-119 70,-246 70,-380 0,-599 -486,-1085 -1085,-1085 -599,0 -1085,486 -1085,1085 0,599 486,1085 1085,1085 373,0 701,-188 897,-474l448 -36z"/>
   <path class="fil3" d="M30465 6264c0,62 -51,113 -113,113 -62,0 -113,-50 -113,-113 0,-62 51,-113 113,-113 62,0 113,50 113,113z"/>
   <path class="fil3" d="M30885 6264c0,62 -50,113 -113,113 -62,0 -113,-50 -113,-113 0,-62 50,-113 113,-113 62,0 113,50 113,113z"/>
   <path class="fil3" d="M31305 6264c0,62 -50,113 -113,113 -62,0 -113,-50 -113,-113 0,-62 51,-113 113,-113 62,0 113,50 113,113z"/>
   <path class="fil2" d="M24577 20365l-24554 0c-13,0 -23,-10 -23,-23 0,-13 10,-23 23,-23l24554 0c13,0 23,10 23,23 0,13 -10,23 -23,23z"/>
   <path class="fil2" d="M39752 20373l-14133 0c-17,0 -31,-14 -31,-31 0,-17 14,-31 31,-31l14133 0c17,0 31,14 31,31 0,17 -14,31 -31,31z"/>
  </g>
 </g>
</svg>
